/* XPM */
static char *_257efec6b6345e2e85e81c0b07177c89alxlHPfkSKf9ySk[] = {
/* columns rows colors chars-per-pixel */
"64 64 256 2 ",
"   c #3E1D01",
".  c #441E06",
"X  c #4B270C",
"o  c #562B0A",
"O  c #5B310A",
"+  c #4A2B17",
"@  c #532C13",
"#  c #5A2D18",
"$  c #4E3417",
"%  c #543314",
"&  c #5B3314",
"*  c #5B341A",
"=  c #55381B",
"-  c #5D3B1D",
";  c #632D0C",
":  c #63330E",
">  c #69380C",
",  c #632D14",
"<  c #662D19",
"1  c #633413",
"2  c #6A3513",
"3  c #663A15",
"4  c #6B3B15",
"5  c #65331A",
"6  c #6B351B",
"7  c #643B1C",
"8  c #6B3B1B",
"9  c #713C16",
"0  c #723D1B",
"q  c #573826",
"w  c #5C3D23",
"e  c #523D31",
"r  c #633D22",
"t  c #6C3B23",
"y  c #683925",
"u  c #723D23",
"i  c #733F2A",
"p  c #5E411D",
"a  c #6F400F",
"s  c #684217",
"d  c #6C431D",
"f  c #74421C",
"g  c #77431C",
"h  c #5D4129",
"j  c #4E4035",
"k  c #554235",
"l  c #594437",
"z  c #634324",
"x  c #6C4322",
"c  c #64452A",
"v  c #6B4628",
"b  c #66492C",
"n  c #6A4B2D",
"m  c #734323",
"M  c #724C24",
"N  c #7C4924",
"B  c #73462B",
"V  c #734D2B",
"C  c #7C4D2B",
"Z  c #66512D",
"A  c #79542B",
"S  c #6C4D33",
"D  c #654C39",
"F  c #764B34",
"G  c #6E5237",
"H  c #785536",
"J  c #73543A",
"K  c #7B5B3C",
"L  c #7D633C",
"P  c #594B45",
"I  c #4F4D51",
"U  c #6B5445",
"Y  c #6B544B",
"T  c #6B574E",
"R  c #685848",
"E  c #7C5C42",
"W  c #745A48",
"Q  c #74604A",
"!  c #7B6548",
"~  c #6B645E",
"^  c #786657",
"/  c #5E5E61",
"(  c #6B6968",
")  c #776D66",
"_  c #726D6A",
"`  c #77726C",
"'  c #6E6F73",
"]  c #736E72",
"[  c #6F7172",
"{  c #6F727A",
"}  c #727274",
"|  c #7C7574",
" . c #814D26",
".. c #834E28",
"X. c #84542B",
"o. c #87562B",
"O. c #8B5B2D",
"+. c #915E2D",
"@. c #995E29",
"#. c #8B5631",
"$. c #855B34",
"%. c #845836",
"&. c #8C5B32",
"*. c #8B5C3B",
"=. c #925E32",
"-. c #955F38",
";. c #88632B",
":. c #8D622C",
">. c #976629",
",. c #94632C",
"<. c #9A642C",
"1. c #94692D",
"2. c #8C6334",
"3. c #86653A",
"4. c #8D633C",
"5. c #946333",
"6. c #9A6433",
"7. c #956935",
"8. c #9A6A34",
"9. c #94643B",
"0. c #9A653A",
"q. c #946B3B",
"w. c #9B6B3C",
"e. c #8B703D",
"r. c #9A7438",
"t. c #9C723C",
"y. c #A1652C",
"u. c #A26B38",
"i. c #A7753C",
"p. c #B2763F",
"a. c #895D43",
"s. c #8D6243",
"d. c #886749",
"f. c #956A42",
"g. c #9C6D43",
"h. c #946748",
"j. c #8F704A",
"k. c #9D7343",
"l. c #9B754A",
"z. c #856A53",
"x. c #8B7558",
"c. c #9A7757",
"v. c #A37343",
"b. c #A97445",
"n. c #A47B44",
"m. c #AA7946",
"M. c #A3734B",
"N. c #A57B4B",
"B. c #AB7C4B",
"V. c #A77756",
"C. c #A67C54",
"Z. c #AC7C52",
"A. c #B17E54",
"S. c #887669",
"D. c #987C64",
"F. c #8F7D77",
"G. c #AA7F63",
"H. c #9C8150",
"J. c #A7824B",
"K. c #AB834D",
"L. c #AC8353",
"P. c #AA8658",
"I. c #B28751",
"U. c #B48454",
"Y. c #B7875A",
"T. c #B38B5B",
"R. c #B8935D",
"E. c #8B8277",
"W. c #968678",
"Q. c #948A7D",
"!. c #AB8866",
"~. c #B38B64",
"^. c #B78B68",
"/. c #BC9464",
"(. c #B79469",
"). c #A78A76",
"_. c #AC9273",
"`. c #B49474",
"'. c #BB9774",
"]. c #BEA276",
"[. c #C59869",
"{. c #CD9B6F",
"}. c #C79C76",
"|. c #C6A26D",
" X c #CBA475",
".X c #CCA37B",
"XX c #C9A778",
"oX c #D4A779",
"OX c #D3AC7C",
"+X c #CCB37F",
"@X c #D6B47C",
"#X c #7A7B83",
"$X c #898A89",
"%X c #8C8B8B",
"&X c #968A83",
"*X c #928D8B",
"=X c #9B938A",
"-X c #8A8D93",
";X c #909091",
":X c #969597",
">X c #A8978A",
",X c #AF9C91",
"<X c #B2A591",
"1X c #B3A296",
"2X c #B3A49A",
"3X c #BCA498",
"4X c #9F9BA5",
"5X c #A7A5A9",
"6X c #B4ABA5",
"7X c #B1AEB2",
"8X c #B9B5B7",
"9X c #CAA985",
"0X c #D3AC84",
"qX c #D5AC87",
"wX c #D4B285",
"eX c #DAB484",
"rX c #D5B38B",
"tX c #DBB58C",
"yX c #DABA89",
"uX c #D4AF91",
"iX c #D9B793",
"pX c #E0AE85",
"aX c #E2B78A",
"sX c #E4BA96",
"dX c #CEB7AD",
"fX c #C9B9AA",
"gX c #C5BBB3",
"hX c #C8BCB7",
"jX c #E4C095",
"kX c #DDC1A3",
"lX c #CCC3B8",
"zX c #D6C6B7",
"xX c #D3C4BC",
"cX c #C6BDC1",
"vX c #CCC8C8",
"bX c #D4C7C4",
"nX c #D2D1CE",
"mX c #DCD1CC",
"MX c #CECED3",
"NX c #D3D2D2",
"BX c #D4D3D9",
"VX c #E6D4CA",
"CX c #EBDDD8",
"ZX c #E4E4DD",
"AX c #EAE2DA",
"SX c #E0DEE0",
"DX c #DEE6E5",
"FX c #E4E5E3",
"GX c #E7E7E8",
"HX c #E3EAEB",
"JX c #F4ECE4",
"KX c #F5EEEA",
"LX c #F8EFED",
"PX c #F7F1EA",
"IX c #EEECF0",
"UX c #FBF8F9",
/* pixels */
"<XQ $ = h h w h w w w w r r r y y z r 7 z r - 7 y - z 7 w 7 r r w 7 7 w z r - * 7 r r w r w z r r z 7 r v z - w w w c c q D S.fX",
"L $ p p * * * 7 7 7 7 & 5 3 3 5 2 2 2 3 3 1 1 3 3 & 3 3 1 3 3 1 1 3 1 3 3 3 3 3 3 3 8 1 3 1 3 1 1 3 3 1 O 1 1 x 7 * % * - w = x.",
"b = Z M B F x & O & u 3 0 4 4 2 2 2 9 f 1 4 4 4 2 3 4 3 3 9 4 4 3 4 4 9 4 2 9 9 2 3 4 4 s 4 9 2 4 9 9 > 2 C : : O m F F v V = U ",
"D j.}.XX}.9XV.V 8 d &.9.-.6.=.5.+.6.<.7.X.u.0.5.5.=.5.5.5.5.5.8.7.=.=.9.5.=.=.7.5.5.=.5.6.9.5.5.=.6.+.5.v.[.C > M P.}..XXX'.G Q ",
"w K ^.{.qXsX!.t O : %.M.5.+.5.u.i.u.>.6.=.U.k.5.v.5.7.t.7.O.5.v.w.5.5.1.q.8.,.7.N.i.5.w.t.n.u.K.7.6.5.-.b.{.C o d l.P.0XsXsXL Q ",
"n x &.^.qXsX^.z 1 2 g.A.f.M.L.L.K.v.6.m.k.R.J.N./.n.r.J.t.k.N.K.N.k.7.l.Y.P.q.g./.J.l.T.L.N.k.L.g.v.B.b.Y.oXC < 3 X.g.|.OXwXK Q ",
"n M 5.M.!.uX!.x : 0 V.[.!.XXrX'.~.Y.Y. X~.P.T.XXyX].R.R.(.wX+X!.(. XT.XXeX+X~.P.~.!.XXyXXX!.~.~.P.[.}.qXaXqXB < t &.q.K.R.eXK Q ",
"c M w.B.M.9X!.z 9 u Y..X.X9X9XXXXX.X}. X X.X XXXOX X].|.@XwXOXXX.XOX.XXX.X9XXXXX}.9X}..X0XXXOX.X}.9X}.oXoX{.F < y $.k.i.K.wXK Q ",
"c M q.7.e.9X!.s 9 ; ..h.s.*.! a.s.h.a.s.s.s.s.s.%.%.%.*.4.*.*.s.a.a.h.*.*.a.s.h.a.a.a.a.s.*.&.4.s.a.3.;.*.%.B # y X.r.:.K.wXK Q ",
"c V B.m.q.+X!.3 9 ; 2 O # & - * o # < < < < ; , O 1 3 3 ; , 6 < ; < ; 2 2 , < , < < < < < < , , & O O O O 1 y < 5 9.T.7.L.eXK Q ",
"z V N.m.7.XXP.8 > : m 6 3 * - 7 < y 5 1 y t u 7 3 6 1 1 3 8 r 1 6 t < 5 1 5 < y < y y 5 1 1 , 3 y 7 - a > 4 6 5 5 q.I.7.J.wXK Q ",
"b M v.w.7. XT.d ; ..^.^.'.^.~.`.`.'.!.v 6 a.!.^._.(.(.(.'._.d.s v c.'.~._.`.`.`.`._.%.& K `.'._.`.`.~.~.T.L.t y y &.k.;.K.wXH Q ",
"b V L.U.U.OX~.d & s.iXqXqXeXeXtXyXaX[.n - P.yXyX0XyXyXwXwXyXH.% S '.yXwXyXiXrX0XiXiXd.o L XXwXrXuXiXuXyXaXoXt 5 6 l.I.J./.eXK Q ",
"n d 5.[.aXaX~.v * d.9XH.C..XaX@XyXyX(.d - P.].j.P.+XyXXXeXjXc.O n /.~.l. XyXwXwXwXtXe.o 3./.P.J.9XuX9X0XeX.XB , 8 o.n.@XeXwXE Q ",
"n M w.U.{.iX_.y + W !.d.e./.@XR.K.+X|.V 1 N.T.$.J.|.XXR.}.eXl.4 V Y.N.;.P.@X XT.OXeX4.O 3.T.7.3.'.iX'.T.@XoXm 5 m o.7.R.@XiXK Q ",
"c d 0.v.M.9X!.c P z.^ Z j.(.@XI.H.wX(.M 5 N.T.O.k.OX+Xk.L.pXZ.1 m A.v.O.U.sX{.g.}.aX5.; 3.R.w.2.'.kX_.e.XX0X6 1 6 O.n.t.T.rXK Q ",
"n M N.U.k.'.D.W 2XxX6XS.b (.eXH.e.<X>XB t V.G.*.c.wX0Xh.V.sXV.# F G.g.9.G.sX}.s.[.uXa.& *.P.f.f._.iX!.L /.0X8 1 6 =.R.n.L.rX! Q ",
"b M k.b.q.XXx.E.AXUXLX6Xh x._.d.G W.S.y * a.z.F W H.D.K a.).E * y a.a.H c.G.x.E a.).J # S d.J Z E._.H.e./.OXm 1 0 X.m.r.K.rXE Q ",
"c M 5.q.t._.! ,XUXUXUXcXP S.).W.W.$X:X&XF.&X&X&XQ.Q.Q.&XQ.=XW.=X=X&X&XQ.&X&XQ.=X*X&XE.W.&X&XQ._.Q.H.Z L /.+Xm 1 3 o.8.7.H.rXE W ",
"c M q.U.'.].! =XDXUXIX7X` xXAXAXCXCXGXGXFXFXCXSXZXZXZXFXZXFXSXGXGXSXFXFXAXCXZXZXGXSXFXZXFXAXZXZXZXfX! L (.OX6 6 0 X.i.R./.rXE Q ",
"c x 5.[.aX9X^ Q.7XHXMX:X' vXFXAXGXIXFXHXHXDXDXHXHXDXHXDXDXSXSXSXHXGXDXGXHXDXFXHXGXHXHXHXDXDXHXZXAXfX! 3.(.9Xt 6 8 O.i.oXeXwXH Q ",
"c M q.U.eX9X! Q.2XIX7X-X/ F.*X*X&X%X;X$X-X$X$X-X%X%X%X-X-X-X-X-X-X-X-X-X;X%X$X-X-X-X-X-X-X-X%X%XQ.Q.^ ! !.9Xt < m o.1./.eXyXL Q ",
"n M 9.7.J._.z.=X=XBX5X;XI ~ F._ ) ) ` _ _ ` [ _ ` | _ _ ' ] #X] ] ] ] _ ) ` _ _ ] ] ' { | ` ( ) ) _.x.K ~.qXy 5 4 #.r.r.P.yXJ Q ",
"S d 2.w.(.9Xj.W.~ ) ( $X) 2XzXfXzXxXhXzXxXxXzXlXzXbXhXbXxXxXbXbXbXxXbXhXlXzXlXxXxXcXbXcXzXlXzXzXzXkXx.3.T.9X8 < 8 o.:.K.|.rXK Q ",
"n M M.B.}.qXz.>XW.R ) >XP P W U R T R T Y Y Y Y Y Y U W Y Y Y T W T T Y Y R R R U R T T R U R J U D - ;.A.{.u < u 9.w.I.XXrXL Q ",
"h A B.v.N.'.d.).fXfXzX,Xq $ $ + X $ = @ X @ # X # # @ @ + y # . # # @ @ % % X X $ w + + + @ o o * $ s 7.A.pXg , 6 0.K.r.J.yXJ Q ",
"z V w.v.{.tXx.= x.3X).h w h.s.%.A c.c.z 1 C %.C *.f.%.C ..V.h.# y F ....q.e.A M 3.!.F & x X.X.N l.s...O.A.oXu 2 9 o.1.R.XXrXL Q ",
"S M 7.Y.qXtXc.% X     X %.^.Z.9.5./.'.B 6 #.g.9.Z.[.M.0.g..XA.1 i a.0.0.Y.I.r.1.N.pXf.O C q.8.8.^.~.<.>.A.oX2 2 6 o.8.|.yXrXK Q ",
"b M 9.b./.eX!.- @ X 8 m 9.U.b.@.:.R./.B 2 X.0.5.b.U.1.,.5.{.V., 0 #.<.>.I.p.1.>.g.OX0.: N 5.6.5.^.M.,.,.K.{.g 2 4 o.1.I.|.rXK Q ",
"z x g.B.Y.qX~.z % x *.&.y.B.i.@.+.T./.m > ..7.1.i.K.1.,.7.{.N.1 0 O.y.@.p.p.1.>.w.eXh.; f &.7.7.U.v.,.>.m.{.9 9 8 &.n.J.R.yXL Q ",
"c A k.b.M.oX^.v O m w.5.y.b.y.@.,.Y./.M 4  .7.1.i.i.1.1.5.{.N.1 0 O.y.>.p.i.>.1.w..X*.# B s.f.4.L.g.,.:.m.oXf , 6 *.J.t.T.iXJ Q ",
"n M 2.8.v..X^.y & M 0.-.u.i.y.y.,.I./.v > C 7.5.8.i.8.>.,.[.N.1 0 #.y.>.i.8.1.7.g.uXj.q v H K j.C.w.1.>.m.oXd 1 t o.2.r.P.eXK Q ",
"S M v.{.oXqX~.8 : f =.0.y.y.<.<.:.P.(.B 2  .0.5.8.8.6.,.+.{.V.1 6 #.-.<.u.u.1.7.d.!.D X + q - b d.2.r.7.n. Xf 1 y &.J.oX|.eXK W ",
"b d 0.[.{.tX^.x : g -.<.y.y.y.<.:.L.(.m 6  .0.0.7.>.8.<.+.[.V.< 0 #.0.@.u.>.2.3.B q U F.,X,XE.l x M 1.;.r. Xx # 7 X.m.|./.eXH Q ",
"c M w.u.v.}.!.x : g 7.<.y.y.<.8.O.L.(.B 2  .0.5.5.<.6.6.+.{.M.< u #.u.@.7.7.;.V q T 6XCXPXUXVX>XG = A ;.l. Xx # t o.t.r.J.aXK ! ",
"b M Y.[.q..X^.x : f 6.0.y.>.>.8.3.C.`.B 2  .0.0.5.6.6.y.#.[.N.1 6 #.@.y.5.q.Z h S.=XMXUXUXUXPXlX*XR p L l./.m ; 4 5.|.n.J.tXK Q ",
"b M k.v.w..X!.s : g 8.7.<.<.<.5.2.C.'.B : ..0.0.<.6.<.6.O.[.b.1 4 #.y.>.7.;.w R 6X4XvXUXUXUXPXlX5X=Xl Z H.].m ; 9 >.i.1.J.iXK Q ",
"c M 5.v.B. X~.7 : g 0.5.>.>.>.,.;.V.^.B 2 o.5.y.<.y.<.6.O.[.M.< 8 #.<.>.7.$.$ W.bX4X4XBXHXGXnX:X7XxX~ = j.].m ; 9 :.1.K.P.qXE Q ",
"c M 5.v.M..X~.d > g -.@.<.y.>.<.+.N.^.B > ..0.6.6.6.<.8.+.[.M.1 8 #.<.u.r.A % >XvX:XBXMX7X5X4X:X=XAXE.$ j./.m 2 4 O.>.i.P.wXK Q ",
"n d 9.g.5.}.~.f ; f -.6.<.>.>.<.+.B.^.B 2 ..0.6.<.y.>.<.+.Y.M.1 8 #.<.8.8.A $ ).BX#XDXHX7X:X:X#X$XmXx.= x.'.m # 2 +.r.;.l.iXK Q ",
"n d N.U.g. X~.8 : f 6.6.@.<.y.>.+.m.[.u 2 ..-.y.6.<.<.8.+.R.M., 8 &.6.,.7.$.- S.CX=X| 5X-X#X' I 8XdX^ h s.}.B 6 6 &.I.i.K.yXE Q ",
"b M v.K.B.0X^.d : g 6.6.>.<.>.>.+.m.Y.m 2 ..-.0.6.y.<.6.-.Y.g.1 8 X.y.<.7.2.d l 6XmX5XI I I / 5XmX>Xe n h.^.i < 6 +.m.J.R.yXJ Q ",
"Z M 9.U. XaX~.8 : 0 0.6.>.<.@.<.,.v.Y.N > ..0.6.>.<.<.6.<.U.M.1 4 #.0.<.5.q.A = T 2XcXcX7X8XvX8X>XU c %.c.^.i < t o.u.[.OXeXK Q ",
"b g 7.Y.oXaX^.m 1 d 0.5.5.<.>.>.<.u.Y.u > ..0.6.<.<.<.6.+.A.g.3 6 #.0.<.1.q.3.c $ l | -X&X*X$X( l + S 4.h.^.i < u #.u.[.OXwXH Q ",
"b f &.8.L.9XP.t 1 m f.9.5.8.<.>.<.u.Y.u 2  .-.6.<.<.<.6.+.A.M.1 8 o.u.-.<.<.q.A + q e l P P e e + @ H q.9.~.i < u X.:.t.R.0XK Q ",
"z M k.Y.{.eX!.z * m f.2.7.8.>.<.6.u.Y.N 2 ..-.u.5.<.<.6.5.Z.g.3 8 &.y.@.,.@.8.$.@ X + + + + + + + & 3.7.5.Y.i < 6 9.N.[.OXyXK Q ",
"b M k.[.0XsX(.v 7 z s.f.9.7.+.,.<.u.A.0 > ..-.6.<.<.<.5.+.B.g.1 8 &.y.@.y.<.<.5.M X % + + + + X O M 1.1.1.U.i < < *.U. X@XiXK Q ",
"S M 5.m.~.9X!.* - z V o.4.7.1.5.6.u.A.0 : ..-.<.@.<.<.<.+.B.g.& 6 &.y.-.y.<.<.>.O.3 o X + . . . M :.:.>.y.U.u y u C w.L.[.wXK Q ",
"z M q.Z.L.9X!.c z.).c.B A q.q.7.7.u.Z.m 2 ..0.0.6.6.6.8.=.Z.g.1 4 #.u.u.<.<.<.1.9.h.m o @ # * B %.w.1.>.8.A.g < 6 #.n.N.T.0XK W ",
"b M w.q.j.].S.z.zXCXVXW.x %.e.2.&.f.C.x 7 F 4.4.4.9.9.4.3.M.h.* y %.-.q.5.5.9.3.s.V.a.* # v H a.3.e.;.;.6.b.0 2 2 -.u.>.K.qXK W ",
"b V Z.Z.f.`.z.Q.PXKXUXgXl G J V S J E r h b S J G J J S G E J w w S G S G G G G G W D q e G U F J S A 1.@.B.N , 9 -.m.u.K.qXa.Q ",
"z B L.A.q.`.z.>XPXUXUXhXY Q.<X,X,X2X,X2X1X3X1X1X2X1X1X1X1X1X1X1X2X1X1X1X1X1X<X<X2X,X2X2X2X2X2X2X,XW.K ;.0.A.N ; 9 -.U.u.N.iXE Q ",
"b M g.w.g.'.! >XnXUXCX5X~ lXJXJXJXKXKXKXJXJXJXJXJXKXKXKXJXJXJXPXJXJXJXJXJXJXJXPXJXKXJXPXKXKXKXKXJXdXz.*.a.M.u < 2 =.v.:.L.sXE W ",
"b A N.B.P.'.d.F.6XIX8X;X( 6XnXvXMXMXMXNXmXnXnXnXnXNXnXnXnXnXnXnXNXnXnXnXnXnXnXNXNXBXNXNXNXBXBXNXbX3Xa.a.h.M.i < 6 g.N.n.~.uXW Q ",
"z d v.[.@XwXx.W.,XIX7X:XI ( ) ( } { { { } } } } ' ' _ ' ' } } } [ ` } [ _ [ [ } [ { ' [ { } { ] S.!.z.a.s.M.i < u =.N.OX0XuXE Q ",
"Z M 5.Y.OXXX! W.F.7X%X$XI S.=XQ.$X%X-X%X%X*X%X*X*X*X*X*X*X*X*X%X%X%X%X%X%X%X%X%X%X$X%X;X*X$X$X*XF.,Xz.a.-.M.i y t ..r.OXeXiXE Q ",
"h M w.w.J.].z.).~ P T &X~ ,XdXdXdXhXhXcXhXhXhXhXlXgXlXfXgXgXgXhXlXgXgXgXgXgXgXfXgXhXhXgX8XhXhXhXhXuXd.L f.k.m < 6 *.r.r.P.yXE W ",
"z d L.[.l.`.! >X>XS.&XdXU q e D l e e l l l k k k h k k e e e D l k l k k k k k l l l k l l e e D w & 2.q.w.8 6 3 O.R.J.J.wX! Q ",
"c M Z.Z.e.`.W ^ 6XVXdXD.X o 2 ; ; 1 * @ + @ * % % & & % & * @ X X % * & * % & % & & o X X * * * # & s ;.1.q.4 1 > 2.K.i.L.yXG W ",
"b A M.M.l.9XD.+ e ^ U @ 4 O.<.X.+.#.*.t , B &.&.X.;.&.X.&.*.C 1 3 C &.&.O.O.&.&.#.#.N > 0 o.%.%.%.$.O.8.>.8.9 2 8 7.i.r.J.yXK Q ",
"n v 9.M.}.tXG.q + X . , ..y.y.6.6.6.g.0 2 ..0.0.7.0.6.5.0.v.#.: 0 #.0.u.0.0.0.0.0.u.o.; 0 -.g.0.f.w.q.<.,.,.9 1 3 X.t.I.[.eXE W ",
"c M 4.A.pXaX^.r q q B s.0.6.>.6.8.5.0.8 2 ..w.0.7.5.5.<.7.w.#.; 6 #.0.6.6.6.6.6.0.g. .; 0 -.g.0.5.-.8.<.,.6.0 < 6 #.g.[.aXiXE D ",
"z v %.-.A.[.C.y < F s.h.0.+.@.,.:.3.4.t 6 ..*.5.5.,.5.+.5.=...2 9 ..-.+.+.=.=.=.=.=. .> g =.5.-.5.&.,.,.,.+.6 < u X.#.g.^.!.J U ",
"h % 1 1 ; 4 < # # y v 7 > > 9 s s z 7 & & 3 s 3 f d a s s 8 1 O # 3 s f 9 s 4 9 4 9 > ; , 9 6 8 m g > > a 4 < < # y O & < r q D "
};
