/* XPM */
static char *cacc8f5ec759437b80ba2ef85b7ef3c3odmEx8b2SEsadEoc[] = {
/* columns rows colors chars-per-pixel */
"64 64 256 2 ",
"   c #1E0B06",
".  c #240C07",
"X  c #270E08",
"o  c #27150B",
"O  c #2C130B",
"+  c #31150D",
"@  c #33180F",
"#  c #3A1A0F",
"$  c #2D1613",
"%  c #331A11",
"&  c #3D1C12",
"*  c #3F240F",
"=  c #3D2116",
"-  c #301B3B",
";  c #3B2438",
":  c #421E12",
">  c #44260F",
",  c #452214",
"<  c #4B2416",
"1  c #442916",
"2  c #4C2B14",
"3  c #452419",
"4  c #4B2619",
"5  c #4D2A1C",
"6  c #532B16",
"7  c #572A18",
"8  c #532C1C",
"9  c #5A2D1C",
"0  c #4D3117",
"q  c #533315",
"w  c #583716",
"e  c #5B3B15",
"r  c #54331C",
"t  c #5C321D",
"y  c #5B3B1B",
"u  c #612E1B",
"i  c #633816",
"p  c #63331D",
"a  c #6A351A",
"s  c #633B1C",
"d  c #6D3B1D",
"f  c #733B1B",
"g  c #773B1B",
"h  c #492A28",
"j  c #542E21",
"k  c #562E27",
"l  c #4F3028",
"z  c #563122",
"x  c #5C3423",
"c  c #5C3A24",
"v  c #5A382A",
"b  c #482837",
"n  c #522E34",
"m  c #4C3335",
"M  c #573736",
"N  c #633623",
"B  c #6A3621",
"V  c #643A25",
"C  c #6B3B25",
"Z  c #653C29",
"A  c #6B3E29",
"S  c #723C25",
"D  c #733E28",
"F  c #713C38",
"G  c #5D4218",
"H  c #634416",
"J  c #644A15",
"K  c #6A4A16",
"L  c #64441B",
"P  c #6B441B",
"I  c #65491A",
"U  c #6C4C1B",
"Y  c #73441C",
"T  c #7A471B",
"R  c #724C1C",
"E  c #6C5116",
"W  c #6E511A",
"Q  c #745717",
"!  c #73541B",
"~  c #7C551D",
"^  c #765A1B",
"/  c #7A5B1C",
"(  c #7D6119",
")  c #5D4333",
"_  c #644322",
"`  c #6C4424",
"'  c #6C4B22",
"]  c #6D422B",
"[  c #664929",
"{  c #744324",
"}  c #7B4424",
"|  c #744D23",
" . c #7A4C24",
".. c #73442C",
"X. c #7A462C",
"o. c #754C2B",
"O. c #7B4A2C",
"+. c #745422",
"@. c #7B5424",
"#. c #7D5A23",
"$. c #7D522B",
"%. c #7A5828",
"&. c #664637",
"*. c #754833",
"=. c #7B4A31",
"-. c #6E533E",
";. c #7B5537",
":. c #7F6024",
">. c #29184B",
",. c #351D48",
"<. c #2E0C53",
"1. c #2B1857",
"2. c #331C58",
"3. c #2B2142",
"4. c #392347",
"5. c #3B234B",
"6. c #3B2353",
"7. c #3C235B",
"8. c #382458",
"9. c #2C1C63",
"0. c #2D1C6A",
"q. c #3B1767",
"w. c #331C63",
"e. c #331D6B",
"r. c #3B1C73",
"t. c #382367",
"y. c #3E2670",
"u. c #451B58",
"i. c #452847",
"p. c #442B4C",
"a. c #582B4B",
"s. c #4A3247",
"d. c #553747",
"f. c #462857",
"g. c #432A5C",
"h. c #552758",
"j. c #4B3556",
"k. c #563955",
"l. c #643A45",
"z. c #633858",
"x. c #783A5B",
"c. c #431C68",
"v. c #551E68",
"b. c #480E78",
"n. c #471878",
"m. c #571A79",
"M. c #601F79",
"N. c #462767",
"B. c #572968",
"V. c #4E3269",
"C. c #583565",
"Z. c #492275",
"A. c #592575",
"S. c #6A346C",
"D. c #632876",
"F. c #693277",
"G. c #5B424E",
"H. c #674A46",
"J. c #754E49",
"K. c #785646",
"L. c #6A4656",
"P. c #794958",
"I. c #5B416B",
"U. c #784A6D",
"Y. c #84481D",
"T. c #835A1D",
"R. c #83621E",
"E. c #8A691D",
"W. c #926D1E",
"Q. c #99771E",
"!. c #BE6C1D",
"~. c #824B25",
"^. c #854729",
"/. c #834B2E",
"(. c #825423",
"). c #825C23",
"_. c #83542B",
"`. c #845B2B",
"'. c #8A582A",
"]. c #94582C",
"[. c #824E32",
"{. c #8A4C32",
"}. c #904F30",
"|. c #835133",
" X c #895836",
".X c #945533",
"XX c #965B35",
"oX c #A15D35",
"OX c #856224",
"+X c #8A6424",
"@X c #8B6A24",
"#X c #8C632B",
"$X c #896729",
"%X c #946C25",
"&X c #97672A",
"*X c #936B2C",
"=X c #8F7121",
"-X c #937224",
";X c #9B7428",
":X c #8C6436",
">X c #946938",
",X c #997435",
"<X c #A37929",
"1X c #AA6534",
"2X c #A97A34",
"3X c #D0770F",
"4X c #865847",
"5X c #8C554E",
"6X c #855A58",
"7X c #9B6A48",
"8X c #966A50",
"9X c #A97547",
"0X c #B07154",
"qX c #8A4D6B",
"wX c #A65970",
"eX c #976466",
"rX c #B06C69",
"tX c #CA7E55",
"yX c #C27267",
"uX c #A9891E",
"iX c #A98328",
"pX c #B6892B",
"aX c #BC9527",
"sX c #AE8235",
"dX c #B58436",
"fX c #D58A12",
"gX c #C99337",
"hX c #D5A92D",
"jX c #BD864E",
"kX c #BC8073",
"lX c #CE8852",
"zX c #D7896A",
"xX c #3E1980",
"cX c #4A0B89",
"vX c #4A1785",
"bX c #581888",
"nX c #530D9C",
"mX c #590E98",
"MX c #4D1194",
"NX c #581596",
"BX c #5C139B",
"VX c #631C8A",
"CX c #641897",
"ZX c #62199C",
"AX c #5E2387",
"SX c #65248A",
"DX c #652991",
"FX c #570DA7",
"GX c #5A12A6",
"HX c #5D13A4",
"JX c #5E0CB1",
"KX c #6213A4",
"LX c #6617A6",
"PX c #620FB1",
"IX c #79548B",
"UX c #9C6182",
/* pixels */
"4 z v z Z x B A A B B S S B S B A ] Z Z Z V N p t x 8 t 9 c 8 z 9 z 5 5 5 1 5 1 5 5 5 5 r 5 5 8 z 6 x z 9 8 4 8 4 4 < < < , < 4 ",
"t x t t 9 N u u x u u S S u p B ] ..A ....N B S p N 9 9 9 x x x x c 5 z h = = h z j l x 5 5 8 4 4 5 4 4 4 4 4 5 9 4 4 8 4 < < 5 ",
"a p B B p u x u u u p S D B B D *.O.X.....A N N N ] A C x x Z v ] Z Z z x v ) z x x _ &.Z Z ] ] ] ..C V A N s 6 B x N C u x 7 t ",
"X.D S N A S ^.^.^.^.D D D ^.{.{.=.{..X.X/.X./.[.X...Z ' [ [ [ ] ] c ] *.] -.Z _ &.` %.o.] ..*.] ....X.X.C  .! s B 9 9 N B u 9 9 ",
"X.D ..D } }.oXXX}.XXoXXX.X.X^.XX#XXX{. X[./././.O.O.o.$.%.+.+.;.%.*.*.&.] ..*.O.#X%.OX`.=.] =.=.[.=.{.*._.).#...A N N B C B p j ",
"[.}.X.X./..X1XoX.XXXXXXX1X&X].&X#XXX X:X|.|.[.O.O.[.`.#X`.OX#.;.`.=.k.h.*.=...`.OX#XOX#X|.....*.=...=.`.@X#X_.X.A A A D B B B p ",
"|.=.=.A ].%X].1X1XoXoXXX*X&X}.;X%X_.`.#XXX:X_.`.`._.#X*XOX@XOX#XOX;.j.d.*.[.O.OXOXOXOX%...Z A ..D .. X%X%X_...=.D X...D C A B B ",
"K.[.*.j @.;X<X;XXX5XoXXX%X*X}. X,XXX'.#X`.#X4X:X*X X#X-X$X*XOX`.'.L.f.l.[.|.#X-XOX`.OX$...=.$.$.X.=.;X-X#XO.|.O.@.+XO.X.A D A N ",
"4X X|.] ..#X-X%X2X.X}.'.>X%X&XXX&X%XX.).).#XG.J.$X_.#X@X@X$XOX`.`.V.j.l.|.$.$X@XOX+X$X).o.%.).$.O.$X-XOX[.=.O.%.~ OX..o.X.X.D N ",
"] *.] ] A ..@.OXT.'.(.).#.Q  .*.o.+.| U ! ! M j.! | +.^ ^ ! ' _ d.8.f.n Z R / U U +.W N _ ' W ` +.^ @.` x x I ' ! s z x x Z N j ",
"] Z Z v V A A @.).OXOX~ R Q ! N n s.V H H H s ,.[ L y U ! s w b 8.w.2., , w G w J e 5 1 w G w y H q r 4 5 e L J 4 5 4 3 4 4 4 4 ",
"Z Z Z Z Z Z V Z P ! R./ R s W L j ; l 2 e H e 5.s.0 0 y y 6 8 5.2.r.2.5 0 J G G G q 5 y _ G G ^ I y 5 4 w I J 5 4 3 5 4 4 4 4 3 ",
"N Z Z Z x V ] A s R ^ E.U i K U 5 i.i.h G e > - 1.) y y 5 j 5 5.c.n.,.j 5 x y H w 4 l s.m q J E e r 0 G ! I z 5 j 8 5 8 z 9 8 5 ",
"V A A B t p N | ~ d U R.E.K i U t b 8.b 1 o % ; 9.N.v z j 4 j 5.m.n.,.8 z x I s n j.7.s.G ^ Q E G 0 _ &.j.h z j j z j x z j j 4 ",
"N N N 9 t 9 7 s L s 9 R Q H w e R b 1.1.$ > 7 b 2.r.d.x t 9 n 6.m.b.,.3 5 r t l 8.9.2.y Q ^ E E G G.j.3.; 4 5 j 4 5 8 j 5 j 8 8 ",
"4 j 9 7 5 6 s t I K y 7 K K ! e s h 1.1.- j 4 h ,.q.7.n 8 4 i.f.bXv.5.j 4 8 l 7.9.9.,.H G G G ) f.9.9.b 4 5 5 8 t N t t t 7 j 8 ",
"p x 7 7 j : 7 9 q 9 2 , 7 y H H e z >.<.1.i.n 5 ,.m.c.f.p.p.2.bXbXu.,.b , ; 2.2.vXt.M E E _ i.8.q.t.,.4 4 0 y w G G L t z 8 8 5 ",
"7 8 j : 7 7 7 N R ! H w n p.U K I L 4.<.b.2.5.i.,.v.bXu.b B.bXBXCXA.p.p.g.t.7.bXbX6.) ' ) p.f.A.Z.6.v y I ' L _ _ ' _ ' c x z j ",
": 9 7 7 r 6 4 9 R ! K i 6 ,.s.U s i h >.b.m.f.,.b v.A.A.S.CXKXZXCXCXSXh.i.i.A.bXh.5.z s.6.C.SXZ.8.) W ! ! ' ' ' ' +.^ ' N k x N ",
"9 k N N ` P z 8 6 R J K e ; 2.5.P 9 m ,.m.bXVXh.S.m.D.ZXNXBXBXSXVXBXBXAXSXD.A.D.n 6.7.N.A.SXZ.p.) +.%.&.k.&.^ / ^ +._ V N N x Z ",
"7 z 7 x s I n m h 5 y e K c w.e.p.M i.g.BXCXmXmXNXNXZXBXLXvXvXr.Z.Z.y.r.vXAXZXDXB.A.m.VXCXZ.f.&.H.I.j.6.) :.W I x c _ G c j 5 4 ",
"u 9 x 7 x x c ,.,.,.s.M K K s.e.c.,.,.c.bXmXmXZXHXBXbXxX0.0.0.0.9.B.C.A.e.y.vXNXSXv.bXZXBXq.5.8.,.f.j.s.G c l r G G G I _ r ` _ ",
"9 4 x z 7 c V i.,.a.h.p.d.` M q.bXh.b VXmXmXmXn.N.t.0.I.eXyXzXzXzXlXlXlXrXwXU.9.t.N.bXNXKXAXk M A.bXw.n x _ I W W W +.+.+.! I G ",
"u B p Z @.%.(. .p.B.bXm.g.p.,.b m.CXZXBXm.Z.e.9.9.U.kXlXeXU.U.V.B.I.S.U.UXkXlXlXqXt.e.r.bXCXa.m.bXN.p.x _ ' U ^ ^ +.U _ ' _ G z ",
"A A D O.`.$.`.T P i.h.m.bXB.h.h.D.KXZXbXN.t.7.6XrXrXU.N.B.7.:XdXpX].; n.NXZ.F.eXjX0XU.t.q.bXv.m.v.8.M ! ^ +.W ' &.s.s.z z j x x ",
"B A O.O._.o.} ~.(.S f.a.CXKXKXLXKXKXm.r.1.qXlX0XIXxXMXGXn.XXhXfXfX3X].>.nXGXAXvXDXrXlXwXt.D.M.D.h.6.H.-.G.j.g.7.6.4.k t j 4 j x ",
"..*.`.$.*.*.{ g g u b f.M.KXKXCXZXn.9.t.0XrXS.n.nXFXnXnXn.].fXM !.3X3X3.vXMXGXJXJXMXqXlXqXf.B.VXVXB.g.N.c.vXA.s.m N V V u k j N ",
"..*.$.#X$.C p d d u 7 2.a.BXCXLXVXt.C.0X;X8.A.HXFXnXMXMXb.].3X5X3X3X!.3.MXMXFXFXFXFXvXU.gXqXN.D.KXCXVXm.CXbXN.p.V x c L A N N N ",
"B A A ` P ` V t 9 u u ,.f.ZXKXDXt.U.sX-X-X6.Z.MXMXMXMXMXFX4.!.3X3X3X) 8.MXHXMXGXPXGXy.G.;X0XC.V.ZXLXVXD.B.7.i.z N k Z V A C A A ",
"..A B .._.@.@.{ a a B t.C.LXDXy.eXgXuXQ.=XH.y.PXJXnXFXFXFXBXh.*.[.n t.HXGXGXHXPXGXvX9.K.-XuXlXB.VXLXVXB.g.a.Z A Z Z N Z V N A F ",
"*.A N ` #.).OX@.g a b r.A.NX0.8XhXuXuX=X=X$X9.vXnXGXNXFXFXnXLXvXNXNXZXHXNXHXNXJXPXy.j.@X-X;XaX0Xy.LXSXh.f.] A A v Z A A *...A A ",
"B N D ..` OXOX| d C n 2.B.0.6XhXuXuXuX=XW.Q.6.0.NXNXHXGXFXFXHXBXPXGXHXGXZXLXLXHXZ.0.;.-X-X=XW.lXB.A.D.k.d.*.` *.....o.o.A A D F ",
"N 9 x Z x +.' V 9 B l 4.3.p.;XR.( ( ( W ^ Q [ 3.2.n.b.b.cXnXcXcXMXcXcXb.bXb.n.c.>.) ( ( E W Q ;Xk.u.a.4.z z r z x _ U G G 5 4 j ",
"x x j x Z c *.] x t N b 5.j.*XaX=XE Q W J J E [ 3.1.c.b.b.cXcXcXMXcXcXcXb.q.1.>.m E G J J G J ( 4X,.,.; 3 3 4 = 1 1 * 0 0 h 3 3 ",
"x x x ` _ ' ' y x a p r l 2.8.-.iXiX@XW ( E E W ' ; 1.1.1.q.w.q.q.b.e.0.t.>.; ) J J K J G G J Q 2Xi.p.5.3 & & 1 1 0 0 r r 3 = = ",
"A ..B +.Q :.E _ t 2 t d p 9 b ,.G.;.;XiX$X$X=X^ U ^ &.; ,.<.>.1.1.1.>.>.,.l G E +.OXOXE Q E Q -XpXM 4.- 3 3 5 r r 0 3 & = % % $ ",
"j Z V @.OX#.#.y 1 O @ p d d N t 5 -.9Xd.6.5.;.+X^ Q W @X>X4XK.;.-.[ [ G J Q @XsX8X5X5XOX:.iXiX-X[ p.- = 3 3 0 w 0 1 4 4 4 3 3 3 ",
"V N V _ ` ] [ Z , o   > f f | f y ;Xd.6.B.t.f.iXiX:.^ E ^ W *X:.=X( ^ ( Q ( <Xd.2.1.*.:X8XK.m b b h 3 3 4 5 y J G G r 4 4 4 3 3 ",
"9 N x N Z A Z Z 5 = o 2 t 7 9 7 ).J.f.v.g.7.G.$X&.K.,X@X/ -X;X,X7X7X:.@XiXiXiXM 7.i.7X+.; ; h 5 5 4 5 5 h 5 r _ q G y y 5 3 = 3 ",
"B u x Z N N A [ W J 0 z 7 7 2 9 %Xp.h.u.2.J.,Xw m 4.3.3.@X4X6.N.6.P.@XH.G.G.2Xd.f.h.k.*XG 0 5 3 8 j 4 8 y L L r r w y G y r 3 3 ",
"N A ..*.[.=.|.`.#.#.V t d a p Y sXf.D.N.k.pXZ N z x 5 x iXk.d.SXk.J.iXM M [ <X4XC.S.j.6XsX#XV x Z *.` o.).~ ! +.` Z Z Z C s x V ",
"D B *.=.*.[.$.%.@.o.C Y T f S T *X5.u.w.L.<Xt j 9 j 8 L pXt.D.DXk.7X2X] ..A '.2Xj.U.F.C.L.jX*XZ &...] @.R.@X).%...A Z ] B Z V N ",
"D B N *.X.*.A ..C ..S T a a a P -Xp.f.c.C.sXp x t x 9 @X;X8.A.SXf.0X X*.A A ..;XL.L.P.F.B.qXjX>XD A ] @.^ ).E./ #.| ..` Z V N N ",
"A B B ..=.*.A ] ..S } } f a d d #X>Xp.v.e.6X+Xt a 9 9 <X>X6.C.F.d.tX*X*...A A  .sXk.G.C.F.C.C.9X XA ` o.%.@.OX@XR./ @...A N Z Z ",
"C N C A V *.=.A A V B Y T f a a d T.i.h.c.L.2Xa a p 9 W.4X7.z.SXh.P.iXC O.Z A A :.iX;.G.G.D.A.z.sX] ` o.o...] +.OX+./ ' Z N x v ",
"S S A C D ..*...D C B ` T g f i t ~.i.h.B.s.<Xp i 7 j ).>X2.&.S.S.f.9X#X] *.A A V %.;X;XG.G.S.C.8X`.A | ~ +.V C | @.C { A N A N ",
"X.X.X...|.O.X.X.A ..R ~ f f a a W.4Xu.S.G.P.T.f u 6 7 R aXP.j.G.F.A.z.0X`.*...] { ` $.%XiXj.U.V.7X*X] o.OXR.).o...`.o.C A A D A ",
"O.X.D C X...(.O. .T./ ~ d a a f 2Xa.B.B.L.1XB T a 8 N N %XiXH.f.k.A.D.z.gX$.|...` B ] %.iXH.L.V.0X)...{ #.).).).O.X._.A A A A A ",
"D u S S ..(.).y U ! ~ Y { } g T.9Xi.a.x.2XB g Y.g S S D D T pX4Xj.y.A.z.eX2XO.{.} ~.} _.iX6XI.V.lX@X$.o.#.$X).+X+X$.O._.O.X.D A ",
"D p B B y ! ! | K H d S R } } ~.2Xf.H.7X~ a g g B g  .} S t ` <X,Xt.y.D.k.pX{ _.{.~./...;X8XV.V.gX=XO.*.$.OX).$.).T.O.....O.[.=.",
"[.N N 7 ! ).+X..@.).}  .OX .S { dXa.J.Q.a u a g a Y R s t u p d <XJ.7.A.B.pXw B ~.~.~. .`.jXV.t.,X@Xo...o.(.#.@.C { ` ] D A =.*.",
"/.B B | ).#X ._.)./.{ ).E._.} /.&X6X8XW.u a a u t K T P t d N p ).;Xu.z.U.pXd S ~._.~.} ..;X0Xg.8XiX_.*.=. .).)...C C C A A D ..",
"=.B O.@.T.#XC %.@.S R T.+XT.~.X.g 9X7XY.u g 7 i T K i Y Y ~ f B } pXN.N.wX&XB C Y.'.O. .} X.<XsXH.iXOXO.O.=. .#.| D C A A A A A ",
"=.S B  .'.O.f (.{ ~.R.T.T.T.~.S } T.hXg g Y.Y.Y.T.T ~ d d T.| S { aXV.F.0X'...X.(.(./.T.(.O.O.;XsX2X;X`.O.[.=.@.O.X.D ..D ....D ",
"D ] D B '.}  . .X.).T.~ ~ T.} p a a pXY.g Y.f K T.T.T.f { T.f B Y.gXf.wX .....~.Y.Q S ~.(.X...o.$.#X2X-X_.[.=...X.*...........D ",
"5 N D N a B B N { P K H s 9 7 y 7 7 E.f < 7 f T K i i u 9 U s 6 i Q.x.T.9 9 C ` R T Y u R { B N N C C ` ' ` ..Z N N N x x Z N x ",
"x V N 8 8 j 9 9 s P i w 2 < , , < : E.q + + # w w q : , : > > # & E.;Xt : : r 5 5 9 6 2 6 r 5 , 3 3 5 5 1 r 3 4 3 3 3 = 4 5 & = ",
"x V t 7 9 9 9 9 t P K w 4 2 i q < : a < : # : : > , # # * 2 > # = 6 %XU 8 8 c N A z 6 5 z 6 I 5 5 5 v z 5 0 z l z r j 5 5 5 z 5 ",
"9 Z N 8 9 N N t p P H 6 7 < 6 2 < 4 7 7 7 7 7 6 q : # # : q e 6 2 , s P t t s x x Z r j V x ' z 9 z x x z x v x x x x Z x z z x ",
"4 5 7 8 9 x V N L K t 7 7 < < 2 : & & : , , : , > : : : > q q > : : : , , 4 6 , 5 x j 5 x x P x j 5 z z z z z j z x x x v x j z ",
"t 8 N t 9 c Z V B p 7 7 : < < : # : : < : : : : : # : # : 6 6 : & : : : : , 2 , 5 j v x c x t c z z j z z 0 j v z x Z &.x x z j ",
"5 2 5 9 8 t x x 9 4 : 7 7 4 < < : : 4 4 7 : : : # : # + # , q # # : : & & & , , 5 4 8 9 5 5 5 8 z 9 5 5 z z z z v z x x x x z 5 ",
"5 5 & 5 9 < 4 , 4 , < < : < : : : : : : : : : # : # # : : : # # # # # # # : & & , : , 5 5 4 , 5 4 < 4 4 5 5 4 5 z z 6 8 r 5 j 5 ",
"O O X X X . . O O + + + + X O O X X X X X X . .   . . X X . . . X . X + O O O @ O O o O O O O $ % = = @ O @ $ O O @ $ O % + $ % "
};
