/* XPM */
static char *_1fb4ee908fb474bd3a6e4109a325582kMzBuRgLSF4nF6ey[] = {
/* columns rows colors chars-per-pixel */
"64 64 255 2 ",
"   c #1D171F",
".  c #28171C",
"X  c #33141E",
"o  c #271B26",
"O  c #2C1C23",
"+  c #331E27",
"@  c #2F1D35",
"#  c #2D2427",
"$  c #36252A",
"%  c #34222C",
"&  c #2E263A",
"*  c #352434",
"=  c #3B2534",
"-  c #3B2A34",
";  c #362738",
":  c #352B3B",
">  c #3B2B3C",
",  c #3C333A",
"<  c #421E1D",
"1  c #552919",
"2  c #633C17",
"3  c #441D26",
"4  c #4A2829",
"5  c #562C2B",
"6  c #5A342A",
"7  c #472936",
"8  c #422C3B",
"9  c #522C37",
"0  c #48313B",
"q  c #54333B",
"w  c #5A3838",
"e  c #673A29",
"r  c #663A35",
"t  c #623B3B",
"y  c #763D31",
"u  c #73501D",
"i  c #6C4528",
"p  c #774729",
"a  c #7C552A",
"s  c #6C4233",
"d  c #68453C",
"f  c #7B4C33",
"g  c #744838",
"h  c #7B4B3D",
"j  c #7C5537",
"k  c #7D6827",
"l  c #282A45",
"z  c #352B43",
"x  c #372844",
"c  c #3C2C43",
"v  c #3D2E4B",
"b  c #2B344C",
"n  c #3C3244",
"m  c #35344A",
"M  c #3C334B",
"N  c #2B3952",
"B  c #3D3552",
"V  c #3C3A53",
"C  c #373B58",
"Z  c #363D60",
"A  c #432C44",
"S  c #462C47",
"D  c #4A2E4D",
"F  c #433345",
"G  c #4B3444",
"H  c #473945",
"J  c #44354B",
"K  c #4B354B",
"L  c #443A4C",
"P  c #4B3B4D",
"I  c #533644",
"U  c #563847",
"Y  c #5C3C45",
"T  c #533C4C",
"R  c #443552",
"E  c #4B3552",
"W  c #443B53",
"Q  c #4B3C53",
"!  c #443B5B",
"~  c #4B3E5A",
"^  c #533D53",
"/  c #583A55",
"(  c #523E5A",
")  c #633C45",
"_  c #653F57",
"`  c #4C3D62",
"'  c #2C445B",
"]  c #38435B",
"[  c #3A4966",
"{  c #39546B",
"}  c #364D70",
"|  c #3A5974",
" . c #3C6578",
".. c #5A4249",
"X. c #5C434D",
"o. c #4C4255",
"O. c #46465A",
"+. c #4C435A",
"@. c #544255",
"#. c #5C4353",
"$. c #504B53",
"%. c #54445B",
"&. c #5A455B",
"*. c #584A5A",
"=. c #5B4A5D",
"-. c #644243",
";. c #64434B",
":. c #6B4749",
">. c #764B47",
",. c #6C5447",
"<. c #785248",
"1. c #7C534C",
"2. c #674A55",
"3. c #624B5C",
"4. c #744C55",
"5. c #6B515C",
"6. c #785557",
"7. c #4C4563",
"8. c #474968",
"9. c #534662",
"0. c #594564",
"q. c #554A64",
"w. c #5B4C63",
"e. c #554C6B",
"r. c #5B4D6A",
"t. c #47546B",
"y. c #595268",
"u. c #5C516B",
"i. c #464C72",
"p. c #584C73",
"a. c #475676",
"s. c #565575",
"d. c #624D62",
"f. c #624A6A",
"g. c #635265",
"h. c #695569",
"j. c #765863",
"k. c #74566F",
"l. c #655973",
"z. c #675B77",
"x. c #49637B",
"c. c #4F6B7E",
"v. c #6C617D",
"b. c #72627D",
"n. c #88701B",
"m. c #84532B",
"M. c #8B582C",
"N. c #834E33",
"B. c #885837",
"V. c #84543B",
"C. c #945C38",
"Z. c #876A28",
"A. c #846C2B",
"S. c #966F2D",
"D. c #8C732C",
"F. c #8A752C",
"G. c #967A2D",
"H. c #8A6835",
"J. c #946937",
"K. c #8C7532",
"L. c #8D7B35",
"P. c #947A33",
"I. c #9B7D34",
"U. c #97773A",
"Y. c #A47C39",
"T. c #824E47",
"R. c #845343",
"E. c #885748",
"W. c #935B44",
"Q. c #955B49",
"!. c #875A55",
"~. c #955C53",
"^. c #8D6448",
"/. c #986547",
"(. c #9C7744",
"). c #8A6156",
"_. c #976556",
"`. c #A57D47",
"'. c #A46A50",
"]. c #8B6262",
"[. c #9D842F",
"{. c #9C8333",
"}. c #988438",
"|. c #9D843C",
" X c #A48737",
".X c #A2833A",
"XX c #A38A3B",
"oX c #B28F3D",
"OX c #AC933C",
"+X c #B4983C",
"@X c #BFA03E",
"#X c #9E8644",
"$X c #A38542",
"%X c #A48B44",
"&X c #AA8948",
"*X c #B28B47",
"=X c #AC9343",
"-X c #AA924C",
";X c #B39543",
":X c #B89947",
">X c #AB8654",
",X c #B99755",
"<X c #BAA147",
"1X c #BFA453",
"2X c #BD9560",
"3X c #C29D46",
"4X c #C39B59",
"5X c #C6A448",
"6X c #D1AE4F",
"7X c #C6A652",
"8X c #C89A61",
"9X c #3D5F80",
"0X c #3D7188",
"qX c #495E85",
"wX c #476786",
"eX c #566A87",
"rX c #49778A",
"tX c #56778C",
"yX c #4C6E93",
"uX c #4A7895",
"iX c #587A96",
"pX c #6C6382",
"aX c #6B6F8B",
"sX c #657895",
"dX c #507CA2",
"fX c #6179A1",
"gX c #4A8897",
"hX c #4F8D96",
"jX c #568799",
"kX c #64889D",
"lX c #5789A6",
"zX c #4A92A6",
"xX c #5A95A8",
"cX c #5B97B4",
"vX c #6698AB",
"bX c #7091AE",
"nX c #669CB8",
"mX c #5BA7B8",
"MX c #67A8B8",
"NX c #76A7BA",
"BX c #65B1BE",
"VX c #5E9EC1",
"CX c #5AABC4",
"ZX c #5FB1C7",
"AX c #67ABC4",
"SX c #75A8C3",
"DX c #65B3C3",
"FX c #6CB3C4",
"GX c #65B4CA",
"HX c #67B9CB",
"JX c #74B5C9",
"KX c #6CBAD4",
"LX c #74BBD2",
"PX c #6DC0D0",
"IX c #80A6BC",
/* pixels */
"v J R P Q ^ ^ ^ ^ ^ ( &.( ( ( / #.#.X.+.O.o.Q Q K H S L B W B L F F 0 c n m x M n m n M n H F A F n L J F S A A c c z z z x S S ",
"L L J Q Q J J P E K E ( &.E P @.#.*.*.*.+.O.+.Q K K K J R W W W J H F F n z c c n m M L L c A F K L v n c c A S S v M M v > x S ",
"+.Q Q Q Q K J Q Q R J ~ 9.+.( %.*.3.*.y.7.+.%.%.^ #./ U P o.+.+.%.@.@.o.o.Q R P o.W o.O.+.+.^ %.%.%.Q O.o.W J E R R W +.R J D D ",
"&.%.%.Q +.w.f.w.w.r.r.r.r.p.u.f.h.h.g.y.u.s.u.f.h.6.4.-.P Q +.7.+.%.@.*.%.%.o.O.$.O.$.$.+.q.e.f.e.e.u.8.t.8.~ R E R L o.o.R K S ",
"w.d.w.%.w.l.b.b.z.pXpXz.l.pXs.l.z.k.z.l.u.p.u.d.5.].~.1.) %.q.q.q.q.*.*.=.%.w.y.g.*.y.y.y.*.h.kXpXa.t.t.t.s.e.( ~ E E o.o.Q P L ",
"g.g.g.w.f.l.pXpXz.pXpXz.pXz.z.l.z.z.z.v.z.l.g.3.k.!._.~.4.#.%.w.u.w.*.*.=.w.y.3.g.y.y.l.t.t.s.IXbXsXaXkXsXs.e.0.0.0.9.%.+.o.+.H ",
"h.h.=.q.l.v.pXpXpXpXb.z.z.z.s.l.h.h.g.l.l.f.h.5.4.~._._.1.2.w.u.u.g.y.*.g.h.*.*.3.w.y.v.kXaXkXNXnXnXNXbXaXs.e.w.&.0.&.%.Q ^ ^ H ",
"h.g.%.Q q.v.pXpXb.pXb.b.v.v.z.k.h.h.h.h.h.h.j.5.T._.'.'.!.,.3.=.d.d.5.$.g.g.3.h.3.3.y.h.l.jXvXNXNXJXbXeXs.e.s.f.f.f.f.w.=.q.=./ ",
"h.h.d.~ 7.l.z.l.z.k.h.k.k.h.h.k.j.2.#.#.3.5.2.1.!.'.'.'.!.1.4.j.j.5.3.3.3.y.*.*.3.d.h.w.t. .hXBXBXMXlXa.s.s.p.0.( ( +.*.q.w.&.E ",
"3.3.q.%.%.q.e.r.r.3.3.2.#.T #.6.j.:.Y I I w d 1._.'.J./.h w w ) ;.U I U o.o.o.H K / / W ] ] c.vXjXtXtXa.O.V R ~ ! ! H ] W o.( K ",
"&.@.Q o.~ ~ %.%./ #.Y ) Y q q -.<.4.-.5 4 w j ^./.C.C.W.f e r :.:.5 4 7 * & & & @ 8 = @ b ' tXc.{ N [ s.8.m m C V b b ' C V S x ",
"@.Q Q ~ ~ +.0.@.^ U _ :.:.) w 6 t <.>.t 6 r j j M.m.p p g h T.E.T.t t I n , m : A D S A M y.tXx.N C B V B b m t.s.a.{ x.a.! B x ",
"P E %.%.o.@.3./ I U _ 4.6.1.>.y r E.!.T.r e g p m.m.m.p N.E.R.T.>.r :.) S F n > G / G 8 x W O.m z z c z V m b { tXxXlXtX{ C m R ",
"9.( ( P G ..5.2.) U U _ 6.T.f p p V.R.T.1 1 2 2 p B.B.m.m.m.m.N.N.T.T.;.I S 9 5 t 2._ 0 8 c n F , , 8 c B m '  .hXvXvXrX' ] B F ",
"~ E P G q w :.) 9 9 7 I :.g p f f N.V.e 1 p B.B.(.>X>X`.(.C.m.a N.R.<.t 4 9 5 r >.6.2.0 8 A c > > 8 8 > n ] eXiXvXvXvXiXt.N z v ",
"J F 0 0 0 Y <.:.w 9 9 ) >.E.V.T.y e 2 2 i U.`.J.(.`.Y.*X*X$XJ.C.m.V.h s r t y g <.T.-.7 ; > x x c > c v W s.aXkXiXvXkXkXsX8.W R ",
"H F 0 - 4 w d w 6 4 < 4 6 i g i s B.j i Z.&X$XI.{. X%X*X*X;X*X*XJ.m.p g g s g j j <.-.0 A c c v S R S v M V ] ] a.iXa.a.s.8.M n ",
"8 8 0 4 4 w d ,.<.g s 6 e i p j ^.>XU.2 Z.|.I. X[.[.G.G.G.I.Y.Y.&X(.H.V.j j V.B.R.1.,.q 8 F J R R R R v J W V b 8.eX8.C ] +.W L ",
"- 8 0 8 0 w d ,.1.1.g e e u a (.>X#X^.u P.|.{.[.[.OXXX X X X X.X$X*X`.H.a a N.V.R.,.w I K P R W Q W W R R W W V 9.p.O.B B +.W Q ",
"0 F U ..I q q -.<.1.R.f i u K.$X%X#XI.F.}.XX|.XX|.XX|.%X XI.I..X$X(.>X$XH.B.W.Q.<.>.w I T Q W P W P P L R ~ W E ~ 9.! ~ Q ~ Q W ",
"G A S G G G q q w s s e a I.XXXX{.|.=X}.|.XX#X|.#X}.I.}.}.}.%X-X$X#X&X,X`.M.N.>.g r 9 I P Q P P H H H L o.o.Q R E E E R J F v : ",
"H J K K S G 7 7 4 e i f `..X[. XXX{.{.G.{.}.|.#X#X%X%X%X-X-X-X%X%X&X-X>X,XU.V.T.>.w 9 I K F J H n , , n J F A c S A c S J J L L ",
"F H K J K D / q 4 i g B.2X%X[. X[.[.{.{.|.#X#X#X#X#X%X%X-X%X%X#X-X&X#XY.`.H.N.R.T.t ) _ T F L J o.H H P P Q J J L R P Q Q J S v ",
"H H P E &.0.#.q w s p J.,X.XG.I.[. X;X=XOX=X%X%X#XXX%X|.}.F.F.F.}.K.}.%X=X=XJ.V.R.!.6.;.T R J R n M V n F F F F F F F F F J F F ",
"o.o.H @.f.3.#.I d s u J.U.U.J.S. XXXXX X}.[.F.}.L.}.D.n.Z.D.G.}.}.}.}. XXX{.S.M.y s r 7 - J v B ! ` B B J J J F M H L F F F J H ",
"@.*.*.5.j.4.<.1.^.^.H.,X4X4X3X*X=X;X<X<X<X=XXX|.%X-X=XOXOX=X=X=X%XOX=X=X<X1X*XJ.m.g r I K Q R ! qXqXqX} C R R P J H G F F J D K ",
"r.d.2.5.].!.~.'.W.M.J.,X3X3X@XoXOX+XOX+X+XOX}.}.%X;X+X+X+XoX=X=X=X;X,X:X:X:X7XY.M.Q.T.5.^ E E ! a.dXzX0X} Z ! D K D U K P D E D ",
"r.0.3.:.T.E.E.Q.C.p J.`.*XoX3X3X@X<X+X@X+XOXXX=X;X;X+X+XoX:X:X;X<X=X=X;X:XoX4XY.C.~.].5./ T E ~ i.dXVXlXyXi.C E E U / P E ( ( / ",
"E @.X.-.d T.E.y y u C.S.oX5X5X6X6X5X+X+XOXOX:X:X:X;X+X@X+X@X5X;X1X:XOXOX+X;X;X`.C.E.T.;.X.Y / / i.yXcXVXkXwXi.V W P P o.o.o.( ( ",
"w./ ..:.!._._.W.N.m.Y.Y.3X5X6X6X6X<X:X:X+X+X5X5X3X+X+X5X@X@X;X+X+X:X:X;XoX+X:X`./.~.E.:.....2.3.7.qXlXVXMXjXc.[ ] o.O.+.o.@.%.%.",
"3.T Y 4.].~._._.C.m.C.8X3X3X3X5X6X1X<X=X:X:X3X3X3X3X@X5X5X:XoX:X:X=XOX}.XX-X,X'.W.~.).,.d -.:.5.r.a.dXcXMXvXjXx.O.O.+.$.$.%.%.*.",
"^ T 2.6.,.>.>.h V.N.M.8X3X3X@X3X1X<X-X%X=X:X;X*X3X3X:X3X7X:X:X7X1X<X:X%X=X:X>X/./._.!.6.,.d >.2.&.a.dXcXMXNXkXtXt.] O.+.%.%.&.@.",
"P T ....d d d g g f m.J.S.D.n.D.k }.k k A.D.Z.D.G..X{.S.I..XY.P.K.K.A.A.A.(.H.g N.) ) -.w d d 4 n C | jXhX0XhXc.{ m C M n S S 8 ",
"K H q w ;.6.6.1.T.N.m.J.&XXXF.L.k k k k k k D.K.n.Z.Z.k H.Z.D.Z.A.K.A.A.A.H.j i e r y t 6 w 6 < @ l } rXhX0XhX .' b & & ; 8 8 = ",
"^ T I H ..6.j.6.!.E.f m.U.,X>X}.#X#X(.k L.A.k F.D.Z.K.A.D.Z.Z.k H.K.H.^.(.^.i 6 1 3 9 4 , < < $ * b | gXhX .0X .x.] , z x 8 = + ",
"( ( @.P ..3.;.;.;.d i f M.`.&X-X#XL.}.K.}.L.K.K.K.K.A.A.A.u k A.A.U.J.(.L.k i s 5 3 7 + $ , $ 4 & l } 0XrXhXhXgX .' b : = @ + + ",
"E ( ( ^ ^ @.T I 9 < 5 p B.J.&XY.#X-XL.|.%XG.L.|.U.L.k K.A.k Z.F.a Z.K.(.J.a i g r 9 7 * * + + = @ N {  .0X0X0X0X0X} N l x 8 * - ",
"~ E Q Q @.@.@.U 4 < 1 y B.M.J.&X#X}. X{.XXP.F.I.U.U.L.L.L.A.F.G.D.U.U.J.i u i d :.q = c & ; 7 A & Z | 0XhXhXzXhXuXa.[ z x c : : ",
"~ Q Q ~ Q o.o...q 6 1 f N.N.p m.J.*X.XI.U.|.U.D.K.}.k L.K.D.D.U.U.U.J.f i g s -.:.;.S 8 = 7 8 S b } wXtXhXhXhXhXgX .[ m z , $ : ",
"J R W o.+.o.#.*.:.,.g W.C.y e y M.M.J.U.U.#X(.U.U.U.^.H.J.U.`.U.U.(.J.f N.h w ..#.) q 9 9 S S v Z i.yXjXhXhXhXzXgXwX} N M n : , ",
"^ @.=.w.w.d.3.;.<.).^.J.W.h T.Q.C.C.C.Y.'.`.`.`.`.`.'.`.`.>X`.(./.C.W.W.~.T.) ....X...Y / / E ! t.tXkXhXhXhXzXzXzXgXwX8.W Q K H ",
"#.@.&.g.g.2.5.:.6._./.'.W.y !.~.W.N.y N.C.C.C.M.M.C.H.B.B.H.^.H.B.V.^._.^.T.>.;.#.*.#.*.0.0.7.[ x.hXNXNXMXBXBXZXAXvXwXi.7.( Q P ",
"@.@.T =.3.;...-.1._.'./.V.r T.~.Q.y y Q.R.V.V.N.M.C.m.i i V.).R.g <._._._.^.6.,...*.*.%.` p.i.9XrXxXBXvXMXMXmXCXmXzXyXt.7.( T ^ ",
"&.@.#.&.3.5.5.6.].'.'./.g t ) T.h y T.T.T.T.Q.W.C.J.N.y e g !.1.>.:.!.!.!.).).5.X.$.q.e.i.Z qXqXjXmXmXvXvXMXmXCXCXcXyXi.7.~ ^ ^ ",
"~ @.Q @.*.3.j.j.].).1.<.6 Y 4.4.t r :.>.) ) Q.~.Q.W.V.h 6 r 4.!._ ) ) :.>.<.6.6.X.o.7.8.i.} qXyXxXMXmXMXMXMXmXCXGXcXwX} ! ~ Q P ",
"7.e.9.%.w.=.*.3.3.,.-.w q T / I 9 I 2.Y w t y h Q.T.T.>.9 9 / j._ ) Y Y ..,.2.X.P +.8.} qXqXfXcXMXmXmXNXJXFXHXHXGXcXqX8.` ~ ^ ^ ",
"e.e.e.y.y.=.g.$.@.#.X.X.Y Q P F S 9 G I I I 9 ) E.E.T.) t 9 D _ / D / ^ ..*.3.o.~ 7.i.qXyXdXbXSXJXBXBXBXJXKXKXGXGXcXwXi.7.%.^ @.",
"e.e.7.7.q.y.u.$.%.*.o.%.o.R K K K K S T T I 9 T.E.!.4.) U I / ^ E ` ~ ~ O.$.y.q.8.} | uXdXdXcXcXMXMXmXxXcXmXCXCXcXdXqX8.` %.o.@.",
"e.~ +.W +.*.O.L W o.W ~ ~ Q Q P K F J K J H Y 1._.!.2.2./ ^ ^ ( ` 8.8.! 8.8.p.qXqX9XuXcXAXJXJXFXBXJXBXBXGXHXKXLXnXyXqX` p.w.&.$.",
"9.E %.Q P @.H n M M ! 7.9.q.%.*.^ K E E K K ..!.).<.;.^ ^ K Q ~ ! ` i.i.i.a.qXiXlXcXmXDXKXGXAXBXBXBXFXFXDXGXLXFXlXwXp.p.f.f.y.*.",
"f.T P S T w.=.+.O.e.e.8.9.q.%.=.=.^ E K K G 9 -.>.t K R M B C Z a.a.qXeXiXfXyXdXVXGXHXPXHXHXBXBXDXDXBXBXCXZXDXlX9X} ` ` %.*.*.$.",
"d./ / / =.r.8.a.tXsXa.p.p.p.u.f.0.@.Q F F G 0 9 q G ! [ i.wX0XyXuXlXnXnXnXSXnXAXGXAXZXZXPXHXPXLXHXPXPXZXKXKXcXyX| i.e.` 9.*.q.t.",
"3./ / / f.p.t.t.eXbXqXqXp.p.e.0.q.@.K T P I G G G E 8.a.sXnXVXCXCXKXKXGXMXMXMXFXFXDXHXDXHXHXHXHXGXGXGXKXKXAXlXwXt.8.%.%.9.9.9.7.",
"w.#.#.&.l.s.c.jXbXIXsXpXs.p.e.9.%.%.@.P T ..T T T ^ ` 8.aXSXSXSXZXZXCXGXBXFXAXFXAXDXHXHXPXPXPXLXLXLXLXJXVXdXwX{ 8.w.9.&.%.q.=.q.",
"$.$.$.%.e.a.kXNXJXIXNXbXsXpXp.( Q o.T P T ..X.T / / %.~ p.sXfXnXSXAXnXMXMXBXAXFXAXMXMXFXPXJXFXJXLXJXJXvXfXx.s.q.w.d.3.&.&.=.=.%.",
", V +.L W ] { jXvXxXiXeX8.~ R x c > ; - > - 8 G G G S A v Z 8.a.wXwXuXgXgXhXxXvXcXzXgXgXxXxXxXlXlXjXtXa.i.[ O.W H G G I G H L L ",
"M B ! v C C wXbXvXvXtX' l l ; ; : ; = + o O + = - - , - @ & @ l C [ {  .|  .rXgXiXuXrX .rX9Xx.| { [ ' N b z v c > 8 7 8 > c > : ",
"~ ! ! B V Z iXkXtXkXyX' N m c ; ; * ; ; = = % % + # # # O & o @ & l l b ' { x.a.qXx.| { x.a.{ [ ' ] C V n M F F G G H F A v M v ",
"R R ! R C s.sXeX[ eXsXZ m c c > = > > > ; - - $ % $ # # % - = * > > x x m m C C [ 8.] C ] ] C M M M L W L L L J E J J Q W M m V ",
"D D R R Z p.s.8.C 8.p.C B > = = * = = = = = $ = $ $ $ # # - - 4 = * = = ; > m z M B B B ! W R L J Q R Q R W L L L R W W W W V V ",
"R D R R W ! e.! ! R L ] z > - % * = ; = $ $ $ $ $ # # # # $ $ $ + = = = = = > c c M J J R J L J K P D J L M L L W W o.+.O.W V M ",
"S c v B V o.W J F > > , - , 8 = + ; > > , , $ $ # $ O # + $ $ $ + + + $ % % = * > , n , n n F F F F A F F F H M L L W L L L M n ",
"0 : * & : z ; * ; - - 4 7 $ $ % + * % @ % % # . O X < O X O # . + + # O # # @ % # * & : - : : z c > c > > : : c c , : : > c , > ",
"o . o o     . O X + $ O . . O . . o o o . o . . . . X X X X . . . . . . O O O + # .   o o # o # ; & * * @ @ o # o & * * % + $ $ "
};
