/* XPM */
static char *d02c0d70924f4cd7c4193bbc43545fc2foU7wcWV55QSL4ai[] = {
/* columns rows colors chars-per-pixel */
"64 64 241 2 ",
"   c #1D0A07",
".  c #240C07",
"X  c #280E08",
"o  c #24110C",
"O  c #2C130B",
"+  c #31150D",
"@  c #35180F",
"#  c #3A190F",
"$  c #341A12",
"%  c #3D1C12",
"&  c #3D2117",
"*  c #421E13",
"=  c #442115",
"-  c #4A2316",
";  c #4B2817",
":  c #452419",
">  c #4B2619",
",  c #4D291C",
"<  c #542917",
"1  c #532B1C",
"2  c #5A2D1C",
"3  c #5A361B",
"4  c #5C311E",
"5  c #622E1C",
"6  c #63321D",
"7  c #6A371D",
"8  c #723C1E",
"9  c #793E1E",
"0  c #440E2E",
"q  c #471629",
"w  c #4A142C",
"e  c #531C2C",
"r  c #440B32",
"t  c #4B0D35",
"y  c #4D0C3A",
"u  c #500F36",
"i  c #520C3C",
"p  c #4C1333",
"a  c #4B1535",
"s  c #531435",
"d  c #531B34",
"f  c #53143B",
"g  c #551A3B",
"h  c #59183A",
"j  c #5A1B3B",
"k  c #4B2224",
"l  c #542E20",
"z  c #582728",
"x  c #563122",
"c  c #5C3323",
"v  c #5E3928",
"b  c #5A2336",
"n  c #642B2C",
"m  c #633523",
"M  c #6A3621",
"N  c #643925",
"B  c #6B3B25",
"V  c #69332C",
"C  c #653C29",
"Z  c #6B3E29",
"A  c #733D24",
"S  c #773B28",
"D  c #733E29",
"F  c #642839",
"G  c #6B3338",
"H  c #74383A",
"J  c #764F13",
"K  c #67412D",
"L  c #6E412C",
"P  c #7C4323",
"I  c #754228",
"U  c #73432C",
"Y  c #7A452C",
"T  c #7C482E",
"R  c #6C4331",
"E  c #774631",
"W  c #7C4A31",
"Q  c #7E5138",
"!  c #540D41",
"~  c #5A0D48",
"^  c #561241",
"/  c #5A1443",
"(  c #5C1C42",
")  c #5D134A",
"_  c #63144D",
"`  c #651C49",
"'  c #641B4C",
"]  c #650F55",
"[  c #691954",
"{  c #741D5D",
"}  c #5B2241",
"|  c #662545",
" . c #6A234B",
".. c #73304F",
"X. c #76265A",
"o. c #771C62",
"O. c #7A2564",
"+. c #7E3264",
"@. c #745653",
"#. c #7F645E",
"$. c #843F35",
"%. c #835C07",
"&. c #8C5C15",
"*. c #8B6402",
"=. c #926A02",
"-. c #976B08",
";. c #977000",
":. c #9C7301",
">. c #956817",
",. c #A37404",
"<. c #A47B02",
"1. c #AA7C03",
"2. c #A5740A",
"3. c #AB7B0C",
"4. c #B37D05",
"5. c #AC7115",
"6. c #A97914",
"7. c #834624",
"8. c #894724",
"9. c #864926",
"0. c #8B4A25",
"q. c #83452B",
"w. c #844A2C",
"e. c #8C4C2A",
"r. c #934D26",
"t. c #984F27",
"y. c #924E2A",
"u. c #8C562C",
"i. c #9A5326",
"p. c #95522B",
"a. c #9B552B",
"s. c #9D592E",
"d. c #824D32",
"f. c #884936",
"g. c #914E36",
"h. c #845234",
"j. c #8B5334",
"k. c #88563B",
"l. c #945434",
"z. c #965737",
"x. c #9D5A35",
"c. c #A25627",
"v. c #A2562B",
"b. c #A35A2D",
"n. c #AB5D2D",
"m. c #B25F2E",
"M. c #A35C33",
"N. c #A55D35",
"B. c #99652A",
"V. c #B2612E",
"C. c #B9662F",
"Z. c #B4742F",
"A. c #AC6234",
"S. c #A9633A",
"D. c #B46433",
"F. c #B96530",
"G. c #BC6A35",
"H. c #B86A3A",
"J. c #C97D1B",
"K. c #C36C33",
"L. c #C56E36",
"P. c #CA733A",
"I. c #DB7B39",
"U. c #E17E3C",
"Y. c #853959",
"T. c #861D73",
"R. c #86296B",
"E. c #902F6F",
"W. c #873469",
"Q. c #933A6B",
"!. c #8A2774",
"~. c #90257C",
"^. c #942D7C",
"/. c #8D3573",
"(. c #983679",
"). c #A23C7E",
"_. c #954E51",
"`. c #AC5E5B",
"'. c #B36A4C",
"]. c #9B4378",
"[. c #985075",
"{. c #AE556E",
"}. c #A34778",
"|. c #94746E",
" X c #B86863",
".X c #C17342",
"XX c #AE8302",
"oX c #B68606",
"OX c #BB8C02",
"+X c #BE860C",
"@X c #C58907",
"#X c #C39400",
"$X c #CA9600",
"%X c #C79900",
"&X c #C99A00",
"*X c #C48315",
"=X c #E4803B",
"-X c #998475",
";X c #A38D7C",
":X c #EA8541",
">X c #992B84",
",X c #9C3285",
"<X c #A43A84",
"1X c #A3348C",
"2X c #A8398A",
"3X c #A72C95",
"4X c #A63393",
"5X c #AC3494",
"6X c #AC3896",
"7X c #B23B94",
"8X c #B5389B",
"9X c #B53B9C",
"0X c #B939A6",
"qX c #BC3BA4",
"wX c #C33EA7",
"eX c #C33DAD",
"rX c #C53CB2",
"tX c #C93DB4",
"yX c #CC3EBA",
"uX c #D13FBE",
"iX c #B04689",
"pX c #AA5E8F",
"aX c #B84497",
"sX c #BD42A4",
"dX c #C14D91",
"fX c #C343A5",
"gX c #C541AA",
"hX c #C949AA",
"jX c #CC42B3",
"kX c #CC43B7",
"lX c #D447B7",
"zX c #D343BC",
"xX c #D373B4",
"cX c #D63EC5",
"vX c #D943C5",
"bX c #E344D1",
"nX c #AB9486",
"mX c #C9B39B",
"MX c #D090AC",
"NX c #D2B1AA",
"BX c #D6C3AB",
/* pixels */
": x v x N c N B B 7 M A B M A 7 B L N K N 3 7 4 4 c 1 1 1 v 1 3 , x 1 , , , , : , , , , l , ; 1 3 , 3 1 , l > < > > - - : = - - ",
"4 4 4 4 2 m 5 6 2 5 6 A M 5 6 M L L L U U N N A 7 4 4 2 4 c c 7 w.P.B.Y x & & , x , x x l , 1 ; ; , , , < , > , 1 , , < - - - ; ",
"6 6 N M M 2 5 6 5 6 6 7 S M M I E T T L U L 7 N 6 L B N c x N u.P.=X=Xs.u.K v x v 3 v K v K K K L U B N B m m < M 4 m B 4 c < c ",
"Y I A 6 Z A q.S q.w.$.A Y w.e.d.W h.p.l.T T T w.T U N K K v j.s.A.C.D.S.N.k.v K K K K E R U U U U T U Y B D m 2 B 2 2 m M 5 2 5 ",
"Y P I A P j.l.l.l.x.x.z.y.l.w.x.j.z.h.j.d.d.q.d.T T W E R h.s.S.g._.z.A.A.A.T R W U Q W W L W E T T d.Y Y Y U Z Z N c M B M 6 2 ",
"d.j.T Y Y z.'.x.l.z.z.z.N.z.j.g.k.z.z.k.h.h.W T T d.W W x.C.b._.} F H A.H.H.W W W Q T W W U U E E Y W E W d.T Y Z D B D M M M 6 ",
"h.E E L z.x.z.N.S.x.x.z.g.l.e.z.j.Y d.d.g.k.W d.W T W l.Z.H.S.` Q.].F M.G.H.u.T W U U W E K K Y L U h.W W E U E D U D D Z B N m ",
"Q Q E l P x.M.z.z.z.S.z.l.z.j.j.'.z.d.k.d.h.d.j.z.k.z.Z.P.H...W.dXhXW.f.L.P.H.W W E U E U E E W T W h.Y j.Y d.W A W U E B D A M ",
"k.k.h.L U j.l.l.l.j.e.j.z.z.z.H.:XP.Y T Y W d.h.d.W x.L.L._.| iXjXlX7XH H.L.D.T T T W d.E Y U j.'.z.d.E d.W T L m U U Y Y E U m ",
"R E L K L U Z W L Y Y T D m Z h.K.V.P m m m m N N Z b.n.s.b X.,X(.7X2X( e.v.a.Y N N N c c m N a.C.a.C Z m c x c m c l m c N c 1 ",
"K K N v N C Z L L B Z N m c m m I 0.0.- ; , 1 1 1 A i.s.d./ ,X,X( O.,X[ z 8 P 6 ; : : = , > < P 7.< > > : , , > : , , : > 1 , , ",
"N C C K C C m Z v m Z m m 1 2 1 1 6 9.4 > ; > > , 6 7.0.b [ 4X>X! ) 0X>Xz 8.9.P , : : : : ; 7.e.I , ; : : : k , > : > > > - , * ",
"c N C C m N K Z m M N m 2 < , l > x e.7.: : & @ ; 0.y.w.a >X4X .y a 4X4Xd q.P 7., - : : > 7 P 7 = : , , , , l , , l 1 l l l 1 , ",
"N L B M 2 m m Z m 6 m D M 2 < c < c A 8.> O - 8 0.r.u.V ' ,X,Xy y y ,X8Xj H b.p.B 1 1 < P y.P l : , : , 1 > l l l l l l l l l > ",
"m m m 2 < , 2 z < 2 2 c z * * 2 4 1 6 P ; 8 i.a.y.n.a.d /.0X+.^ f t >X0X) j e.0.9.6 , A 9.P 1 1 l l : : , , 1 k , 1 k 1 , l l 1 ",
"< l 2 < < - < 1 1 2 1 < < < 2 - 1 - < 6 3 7.0.P 9.Y G ` 1X,X^ r r f ^.0X_ p q.0.7.2 6 P 7 : & : = , 1 ; , , 1 1 l l < 2 l < l 1 ",
"m 2 < 2 1 * 2 2 > - * * < > - < > 7 7 = J 9.8.f.} ^ r O.0X4X[ ^ a ^ O.6X{ a m P 7.0.0.P , : & , : , < , < , 4 1 2 1 l 1 l k 1 1 ",
"< l 6 7 8.7.8.r.i.8.8.A 0.8.8.A 7.y.r.% P q.H f y O.>XsXvXkXsXsX<X+.<X0X!.a n T a.s.a.e.9.q.P q.e.j.e.9.e.e.9.T j.e.9.q.m c l l ",
"* 2 M.L.M.8.8.8.n.s.0.P A 8.0.i.p.8.P , F ^ y O.0XyXvX0X0XsXvXsXkXkXvXsX4Xa d G E w.9.p.p.a.x.b.s.l.s.v.M.s.x.x.i.s.H..Xd.c c m ",
"1 S I.I.K.i.0.D S g.e.9.8.8.8.8.p.e.9.e r ^ 4XyXvX0X1X].].,X,X<XsXsXkXsXkXsX+.g g C j.p.e.l.g.g.g.z.g.f.f.f.H f.f.l.I.I.G.N c N ",
"< I c.C.n.D d j u s j e b b n G G Z b a { 0X0X0X[.k.>.oX+X+XoXoXB.Q k.pXyXyXkX,Xg b } } ( } g g g f a ^ g a g a p Y V.V.S , , : ",
"2 4 p.e.e.D / o.>X>X3X4X,X^.+./.X.' ( O.aX0X<XB.oX%X&X&XOX#X#X#XOXoXoX6.{.eXvXyXqX(.R.E.R.+.W./.W.W./.(.(.W.b a S r.9.p.m l v x ",
"2 - P p.7.9./ [ 8X0X5X0XeX0X0XyXsX4X1XsXkX[.XXOX%X%X%X%X%XOXOXOX%XOXOXoX2.u.}.wXsX0X4X6XqXsX0XqXrXqXrXkXvX6X^ d a.l.l.Z N l , , ",
"4 7 7 b.A.A.H [ T.wX1XX.{ O.R.!.1X5X9XsX<XoXOX%X%X%X%X%XOXoXXXXXXXXXXXoXoXOXoXpXyXyX7X/././.O.O.[ ) 1X0X4X[ a T a.y.Z x x x l l ",
"B B U b.S.D.l.d ( ^.aXW.s h j h ( } ,XiXZ.OXoXOXoXOXXXXX:.XX<.:.<.:.:.XXXXXXXX6.}.aX9X .a } ^ g y +.qX5X) s S e.p.P l 1 l 1 c c ",
"B B Y j.H.G.b.V / o.qXqXE.t i ! ! | 9X`.$X$X%XOX%XOXXX>.h.W W W k.u.B.-.-.oX$X&XL.gXcX0Xg ! y y O.qX0X] s e.s.i.y.l m z l , 1 m ",
"U E W Q M.A.V.s.d u !.eXwXR.i i ^ 9X9XH.$X$X#X<.>.B...} f ^ ^ ! ^ ( } H u.-.OX%X$X XjXlX/.y t R.eXeX{ p D i.s.a.B c c l c c l c ",
"U W E W W n.v.v.S s h 5XwX8XR.i !.yX{.*X#XOX3.j.| ! [ !.>X3X>X>X!.) ^ ^ } ..u.+X@X$X{.jXsX .O.0XeX!.s S M.a.y.S c m c m m V m m ",
"N B B N m P n.r.8.e s  .qXyX7XE.qXwXZ.@X4.>.H /  .1XrXvXyXrX0XyXvXyX8X1XX./ j E 6.@XZ.iXjXaX9XeXE.h F v.s.a.Y c c c C V N B Z Z ",
"U L N I T T A.V.v.r.s h (.wXtXwXzXdXJ.@Xu.| ~ 4XkXsXvXvX>X~ / _ 1XrXzXhXjX8XR.` j.@X*X{.jXzXgX<X( F l.M.M.l.N Z C C v C B m V D ",
"U B N B L L j.D.n.t.$.h  .).wXwXzXdXJ.n.f ~ 5XxXNXMXvX0X~ ^ / ^ [ aXaXMXNXxXhX,Xh j.@X XjXkX).` j l.n.b.M.Y C Z c v C R E U U R ",
"7 N L U N Y T Y n.n.t.V h Y.5XtXkX{..X` o.5XMXNXBXMXvX0X! ! ^ / ) hX9XNXmXNXMXhXR.F B. XkXtX..j H A.A.D.d.E C E D E D R Z D Z U ",
"m 2 c C x L N m P p.e.P e a X.1X<X].b p +.[.-X;XnXmX0X4Xy r t y ) ^.].-X;XnXnXpXR.( V [.1X,Xa 0 I 0.0.P l l l l l c x l x , , , ",
"c c 1 c C C R K x T i.p.9.w p ^.1X(.b a ^ b @.|.|.nXpX0X!.! y ) ,X^.|.;X-X-X-X#. .p a O.3X!.0 q 6 3 6 : : : > & % $ $ & & k : : ",
"c c x N c C x x c N p.e.i.q.e O.3X7XP N e 0 a g } @.|.4X6X3X^.,X>X[.nXnX-X@.@.k 0 q 8 (.,XO.r k 8 P P : : % % % & : & : : : : & ",
"Z U B B c c , x , - r.b.b.y.e X.qX7XB.:.>.J x e 0 a a ! ! ) [ ) ^ d a a 0 0 k x J J >.).0X' r q 7 6 6 & : : , > k : & % % $ $ $ ",
"1 v N C K B K , &   , a.D.D.V g (.rX`.2.XX:.=.J v x q q 0 0 0 q : 3 v J J *.=.;.,.1.2.<X,Xt 0 m 8 I 4 : : : : = % : : : k : : : ",
"C m N c N K L v &   o I n.n.w.d E.eXiX,.XXOX:.:.;.J J J 3 k k 3 J J *.:.;.XXXX=.:.:.i.1X>Xr 0 6 P 7.P P P 7 B 4 > > l , , : : : ",
"2 m c N N B C K 3 & & 9.i.r.P w ` qX9XB.:.oXXXXXXX;.=.*.%.l k J J =.*.*.=.;.=.*.-.,._.0X!.t e $.9.9.7.0.y.7.Y u.P 9.A.e.: : & : ",
"6 c m N N B u.s.s.9.I i.r.8.8 z w !.8X}.:.XXXXXXXXXX;.=.*.c k J *.=.*.J *.*.*.=.,.,.iX0Xo.w V P 9.P ; 4 P 9.y.i.y.b.G.p., , > : ",
"m B E '.H.H.S.S.l.e.I 9.n.n.b.y.j / T.qX`.@X&X$XOXOXXX<.-.V b &.:.6.2.2.2.2.3.+X*X XlXkX` b f.s.z.d.Z U U Z Z B L B e.Z N m c m ",
"S M W I.=XZ.l.w.Y I B N G.V.D.n.b s ! 4XaX XOXOX#X#XOX<.&.z z >.6.3.XX3.XX1.+X@XP.hXzXaXF F M.n.M.U R Z Z D Z C Z Z Z Z N N N m ",
"A m M a.s.T B U N I B y.n.V.V.e.y [ ,X1X8XqX`.3.OX#X#XOX:.z z >.<.3.3.XX1.1.@X*X{.eXjX7X .( g.A.N.9.L L C Z Z Z Z Z Z Z C N m m ",
"Z B B E W E L L U L Z D.n.n.n.V i 1XqX^.X.2X2X{.5.4.@XoX,.z z 2.,.3.6.6.1.@X*XA.aXgXsXgXO./ f.m.A.l.C Z D Z U L L Z Z Z Z C C N ",
"N 7 B K N T E L Z B P A.m.m.r.h _ 8X2X_ / X.2X9X{.5.4.4.5.n S ,.,.1.1.4.+X5.N.].iX2X,XfX(./  .n.N.b.L Z L L Z C K N N N m m c c ",
"B I B B L U W U U B n.F.F.m.V u R.5XE.i y y X.8X7XY.r.5.c.$.c.J.4.@XJ.6.Z.{.aXaX<XW.' 8X7X .h M.D.A.Y B N C N Z B N N Z Z C C N ",
"Y T U I h.T L U A I F.K.K.v.h h 5X5X` h i ! R.7XE.<X).Y.Y._._.c.>.A._.{.dXlXlX2X .! / 1XhXY.d z.G.D.p.K Y Y U U I U D B B L D Z ",
"T P I I I I T T S r.K.K.K.$.i E.8XE.u i [ 1XeX2XY.R.7X).8XwXqX).9XqXaX2XtXtXfXiX .f ^ O.sX].F f.D.D.b.U U Y T Y W Y U L Z Z Z Z ",
"A 6 A B I Y U , 4 i.C.K.L.H _ 8X8X` h R.7X8X).[ ~ ~ /  .Y.E.(.).<X(.W.+.W.7XfXfXfX2X` _ jXaXG F G.P.K.w.Y T T Y W Y U U T E D Z ",
"Z 6 M M 2 N B m c 0.n.K.m.` E.uX8XE.7XwX5XE.~ i s n s i i u u s f s s j s [ O.7XhXaXiX!.gXgX..` S.L.G.h.E U Y Y U U E P U T d.T ",
"Y M 6 1 N U I D q.L.K.L.g.~ wXvXvXqX8X^.` s u n t.t.t.7.M M 7.7.y.v.v.v.p.S h X.<XfXhXaXvXzXQ.f z.D.F.j.Y U Z I Z Z m Z D Z E W ",
"q.M B B I W D d.l.G.K.K.$.~.bXbXvX5X] h u w 8 8.8.t.t.r.8.c.c.c.m.F.V.D.D.n.y.d / E.7XjXzXbX<Xi f.K.L.M.T U I U U B Z B B Z U U ",
"W M U A I T M U v.m.m.v.] 3XbX3Xo./ h s 5 t.9 7.c.t.8.c.m.m.m.F.F.G.F.m.D.D.n.a.n / O.>XcXbXuX` f.V.K.D.T W I I D A B B B Z Z C ",
"Y U M U T P M Y F.K.K.$.] ~.] ~ i n t.c.m.m.K.F.c.M 8 7.t.m.K.m.a.a.Y Y M.L.G.G.D.w.j _ ~.cXbX^.H L.P.G.T d.T L Y U U U I Y Y Z ",
"L U S B Y $.A i.L.L.C.n i i ~ n t.t.m.n.m.m.t.9 M $.M M S $.c.8.A S q.c m a.m.D.D.n.i.Y ~ T.qX^.` K.L.K.e.h.W E Y E I U U U U U ",
"; N B 6 N M 7 r.m.v.$.< u e M $.r.8.8.8.9 9 7 7 5 5 5 < 5 M t.7 1 6 m < < c e.M.n.n.v.9.P d ` ( j f.v.s.U L L C N c N c v N m x ",
"c N 6 1 ; 4 N n.m.v.8.8 5 7.8 5 9 7 5 # + + # - - - * * * - < - * - - : % * , c B P P P 7.8 w r p z 7.9.v & & , & : : & , , & & ",
"v N 4 1 4 2 9.P.P.m.t.7.8.8.8.8 2 ; * - * * # + @ * # # # - < < - : : > , < c N K B r.0.s.i.w.z e Y u.s.P , x x x 3 1 , ; , x , ",
"1 C 6 1 2 c M.=XU.K.r.7.8.5 < * - < < < < - - - * * # # # < i.P - = * < 2 4 2 x c K 1 L s.n.s.s.e.D.P.C.s.v v x c v m N 4 x x x ",
"; < < 2 4 c P K.P.t.S 5 < - - - * # * * * - - * * * * * * 7 c.8.* * * * = - > = , c 3 1 m e.s.i.v.K.I.P.u.l l x x x x c v c x x ",
"4 1 3 c 1 N K N 7 < < < - - * * # * * - * * * * * * # * * * 9 5 # * - * = * : : , 1 C c v c y.i.s.L.P.m.I l l v x v K K v x x 1 ",
"; ; 1 1 1 4 4 3 2 - - < < < - - * * - ; - - * * # # # + # # * * # # * % % % * * ; ; , 1 , , 1 I e.0.r.7.x x l x v x x v c x c , ",
"; l & , 1 - < - - * - < - < * * * * * * * * * # * # # # * # # # # % # # # * * # = & : ; , ; : ; ; ; 3 < , , : , l l l , x l x , ",
"O X X X . . . X O + + + X X X X X X X . X X .     . X X X . . . . . X O X O O @ O O X O O X o + @ & & + O $ O O O + O O + O + + "
};
