/* XPM */
static char * 0_xpm[] = {
"64 64 63 1",
" 	c #040204",
".	c #848284",
"+	c #444244",
"@	c #C4C2C4",
"#	c #242224",
"$	c #A4A2A4",
"%	c #646264",
"&	c #E4E2E4",
"*	c #141214",
"=	c #949294",
"-	c #545254",
";	c #D4D2D4",
">	c #343234",
",	c #B4B2B4",
"'	c #747274",
")	c #F4F2F4",
"!	c #0C0A0C",
"~	c #8C8A8C",
"{	c #4C4A4C",
"]	c #CCCACC",
"^	c #2C2A2C",
"/	c #ACAAAC",
"(	c #6C6A6C",
"_	c #ECEAEC",
":	c #1C1A1C",
"<	c #9C9A9C",
"[	c #5C5A5C",
"}	c #DCDADC",
"|	c #3C3A3C",
"1	c #BCBABC",
"2	c #7C7A7C",
"3	c #FCFAFC",
"4	c #040604",
"5	c #848684",
"6	c #444644",
"7	c #C4C6C4",
"8	c #242624",
"9	c #A4A6A4",
"0	c #646664",
"a	c #E4E6E4",
"b	c #141614",
"c	c #949694",
"d	c #545654",
"e	c #D4D6D4",
"f	c #343634",
"g	c #B4B6B4",
"h	c #747674",
"i	c #F4F6F4",
"j	c #0C0E0C",
"k	c #8C8E8C",
"l	c #4C4E4C",
"m	c #CCCECC",
"n	c #2C2E2C",
"o	c #ACAEAC",
"p	c #6C6E6C",
"q	c #ECEEEC",
"r	c #1C1E1C",
"s	c #9C9E9C",
"t	c #5C5E5C",
"u	c #DCDEDC",
"v	c #3C3E3C",
"w	c #BCBEBC",
"x	c #7C7E7C",
"      d'[:^d%'h0hp'--[lnj!44    4!!jjbbr8#:bj4  4!j!!j!!j#>^r#v*",
"    4!0%bbv0'.p%p'p{>nr!444    !*r>+f>^nr^8::j!!4  4b**jb4*^^^f*",
"    4rl^*^t25kp('hdn:j!4    4 j^86%[{d[-66-lvv#j4   4444!44:>>8:",
"   4*n%f:nhk=.(d6t^*j4     44j^-pt6+{('d++++{{6f^:j4 4!*|!  jrn^",
"   bf%hvrn022pt-%|j!4     44rv0([d%02~p%%00[t%t{f8^r**br#8b*!!*8",
"  4^p,<>>lth('%p0r44     4j-{d(0255px5'2~~xh2.p[%-^n8:j!*^66:j!4",
"  4r0@2f>t%(tdlt|b       :t0[(x'5.5k52'h2d|f{{d02~x-n:b!4!vt*!  ",
"  4bl%v>thp0-+|^r       8l[ppxk=c$~2ht0t+fv-0-v{d.h(-{^!4 6:44  ",
" 4b^lfnv222-{^nj       6h05x.kkh0(l-lp=h+v+v{+ffv{0.x2[8j :!4!  ",
"4j>-[+8v.2(6f^*!     !l2hh~.=$x%pd>lv>vh(d6-{d+[0%('d'h+nb444*! ",
"br%hxtl0p(t^8: 4    !t.(0h52'%~95'({f#02=6#2s$s$2=((6-hp%|r!!:*!",
"8-9<5='([lf8>4     4l~p.%c=([[p[>>^88#>d2|r#tp=<h---tvt.'n#*jb*!",
"+2e/ko~tlfn#r      ^t'50%55t|8#j!j*jbr:#nb*!>dl+n86d000ddd{n:bj4",
"ck7@/c(dlv^r4     4+t5'd%-|r*!j!jr8>b44  !bbb#**r::b^p2ltxxt8!jj",
"mm~.2h+l++fj    4 8-02tv^r*!44!j4!b!**4!!  :8nr44*rr*t[vd55p^bjj",
"e,2x[|>fl8r   4 jj6hxlfn**4!b8^fv{v+6|#jjjb*rl{8!44j:{dvt5.'%{8*",
"s92hln^||*!    !rv[((|8**jr|dp%052%t-l{v|8j*#6:#r4 44[2%pps/~2l8",
"2'%l{f86n*4    *nd(pdrj*8+(p{[{t0lfltd-6d[68*>d{bb4  |k~-ddtp~h{",
"l6vf+f8v8*    #[6t'~+jbflt0[l05xt[[tv|r>>{[%+*!#^8::4j%ocx6fdtpt",
">n^8#8nnb*    x'dpplbjf[dd[8jn#*fr*#8::8^8^|[d8!4##r# f5$x%6{6fl",
"6nn^8#>#!j   !$v[<dr!nlt+2^j4b:j***|-t8b#>fn>ld|j >*:n!4pc2l{>6{",
"~|v|#b^rj4   |td%2v48-({h(j*rr*^n^n+v|#!*^>ff|v{f* 4*8r*^l6vtt||",
"sl-n:b^:!    'v%2-:*d't{p^|>b^v|+v+{f|+6#:nvv6-66n# jbr>{f%f02h[",
"'[%r*:^:4    ~|0.+ >%'6vj:#^666vv|{dd->n>8^nf>v|6l>* jbbh6%6{0h(",
"dd-8bb#*     %v%h^ +0h(':4rlv>|n#rrn6d{+vr:8^>|{v^l{j4#*:hl4vtd%",
"dx6nr:#4    4v{(db4-xpl|**6f^##r::::bb|-l6#:*#|+v+^{>!*bjr.64[n+",
"%5d^#b#4    4>-06!4t5tfrjvl#|n>|{dlv#:#l0-|r*:^{flvf>84:j:2cnl#n",
"{0-*#b^!    !vt(64!%5[lrrdl^f+lv6|+{{^bfv%d|j#^#+nlf8^*bbbr[df8f",
"v0%j#br!    jtt'v44t~2v!v'+*f|#8n:b{d68!|6t-r:*#|vn+nfbbrj#b%v^n",
">-p^^b>*    45{%>4 t5xf!-(#rv^>{v-fb-d|*r+-df::rflf|+>^ -|b##8{l",
">f'l^:^j     p+({4 l.(nj-|bfnn|>|8fn#d|v!6vdvr:b>--+lf|!dtb8b:n>",
">8d[r:b:    4nftt4 -'~vj%6#>>nn>8fr-j>+n4n{-6f#j>+t[+6d!-d:b^4!b",
"rrnv:::r44  4|+%lr ^p(|*l(r#-8n^+>+>:#+n4^%666^*>6ddv+drd28!fr4^",
"!*r|^*^:j!!  vpd-r  (h6*6{{:lnf+{{b+88{n!^0+-f#jfl06|f-^:k>j^6:r",
"88nvfj8:4jb  +s%0^4 8%%^8([|^-dt[88%r|d^*vh|ln:*^6pvn6d>b+>br66:",
"{n:+6^bj 4r: r9<%|b  n0pb{2x-#6+r+'+j{d8!-(|ln:b^lp6v|dv:::*rfd+",
"(hn|l>jj4 b^!*9<5+84 4+ptj+0htt%d6*4bl>brt[6|nj!*{[-d8+lj4brrn^{",
"(s%>l+:bb !88rtk'l|r  r[(%r!>68v> 4:n+b4>%dl>nr**-066#l+!!*#8^vf",
">v0d6d+b#  b+dp{t{ff!  0-t[|^j!!*:rvfn*!v[ldn^:!++d|n8%d*!*#88{>",
"n|d[dt08#r 4r|<~[|f>^!  6-{t[d{+>>ddnjjn-[d6^#jn^{{+^>lf* bvnrn6",
"8n+t'[h(8b! j6p~k0|8^#!   :dv[<.{2t+*b:6td{f:j4fft-v^n-+!j^vfnn(",
"l8>{''d({bf! !vd2.%6>r#j     jn+.[>!!*|{lnnbb4^{d-|{^^|8!bfn{|>+",
">{8|t2.0t^8n  *l+-0-%n:rb!   !:^#!4jrvv{^^#*j*[+h[+-8f{r*#fnd|#l",
"!8{8{(px[t8n^  jnv%k'tl#:r:bj 44b#>6lf{n|-:b n|dhllt8>*88n^f6|n8",
" 4|n^dt2c(%8l8  !rv-lf|{lfr::j:>|-p%|{vf{|!**ffpt6[v:r*nn|^|>+|f",
"j ^({r-t2s(tn#! 44!>r>6v8^>v+l%(p'+|6^|#:!b*v6+26dd::nrbf88n+v6|",
"+r!:td{l6p52t^#f:4!!4*8f+[-6l[tl{#^nrnj4 **+6|d[%6v:n*rnf8nfl{v>",
"^*:*6x-v8|-2htn*#r48*!!r#8rrnf+l|nn>#444*!nl|lh0d+^8n*r#8^:n{ln^",
"#rjn|{v^br8{p(df*4j^8!!*r#bj*#rr88nj444!b+-|+dp[-fr^**b*b|86-[vn",
"jrrvl[t|#|8^f+v6{|b4rrr!j*!4j8rrb!b4j!jn6%-+-([{-n:bj*:*r^|f6lvv",
"!!b#|r+vf>[>^n>ff{6>#*! !444!jj!br!##^l-++v+'[d[|r*jrb#r::^nv+v6",
"   jjr|b#>%'[6v|nfvv-d{vfr*:^nn#^>f{lp'-6||%(-[+r*!#nb*68##+l666",
">r jr:|{n^*8-[%l{t++v++v+{ld(0('0hk~(dd6|v%d+{v:b#4n:rj#>6vt0l{l",
"f^b8r:*r>f!!:^d0d-l%0tt0'0t-dt0'22p0{+ff[p(66{8r:::r!!*:#>>dh0-d",
"  !#l68b:^^b:8nv++l-%%d'(t[ph0[-[t|>v|{tt[{vvn:#:j^:j8rn8nf-(t{d",
"444!n>{{86l^nn>rr8:r#nlp%dt%[d[v+nf6-0pll>v[f^*:b8#jj>>6>n+ld6||",
":*j4 *8nft{6v+[[vvn|>>f{t[-v+6|^n|-tp[+vvd%8nbj^*r*jj#6|v-0{|ffl",
"4j:j !44 !*88^8n>+-d+>r86%--'p%t(lt[+|6++6#:br6^!**|#v6>d~k%^f6'",
"4  4b:j4  !4   4j:n#*:^^f+[dl>^f|6v|||n^^*^8#n#!4!^f>|+6d=x06lh.",
"r!   jr8^!r*   4*j+00{+nf8:>v6d>+v::#^>8*:8:b:!4r8vl6+llvp5%{'(t",
"6>b4 4b*!44j*b  !!r>|x06#|8{d+^8#b:|{{8bjr^:r:b*b^>l+6[tx6v-+[t-",
"p[>b !   :|6>:!j**! j:f8#!!4!!!#>n{f8rbj!bj!b**!b>^6[%t0~(6[{fd6",
"dd[+n>n#**8>:4 4j     4     !#nn#|r!jb#fn#j*j!  !8^{d0''{l%dl>|f",
"(-t2'((t+frb4         4  4jn8#bbb!  4br*j4!!!>-ff|fv|[t%t{t[t66|"};
