/* XPM */
static char * 1_xpm[] = {
"64 64 63 1",
" 	c #040204",
".	c #848284",
"+	c #444244",
"@	c #C4C2C4",
"#	c #242224",
"$	c #A4A2A4",
"%	c #646264",
"&	c #E4E2E4",
"*	c #141214",
"=	c #949294",
"-	c #545254",
";	c #D4D2D4",
">	c #343234",
",	c #B4B2B4",
"'	c #747274",
")	c #F4F2F4",
"!	c #0C0A0C",
"~	c #8C8A8C",
"{	c #4C4A4C",
"]	c #CCCACC",
"^	c #2C2A2C",
"/	c #ACAAAC",
"(	c #6C6A6C",
"_	c #ECEAEC",
":	c #1C1A1C",
"<	c #9C9A9C",
"[	c #5C5A5C",
"}	c #DCDADC",
"|	c #3C3A3C",
"1	c #BCBABC",
"2	c #7C7A7C",
"3	c #FCFAFC",
"4	c #040604",
"5	c #848684",
"6	c #444644",
"7	c #C4C6C4",
"8	c #242624",
"9	c #A4A6A4",
"0	c #646664",
"a	c #E4E6E4",
"b	c #141614",
"c	c #949694",
"d	c #545654",
"e	c #D4D6D4",
"f	c #343634",
"g	c #B4B6B4",
"h	c #747674",
"i	c #F4F6F4",
"j	c #0C0E0C",
"k	c #8C8E8C",
"l	c #4C4E4C",
"m	c #CCCECC",
"n	c #2C2E2C",
"o	c #ACAEAC",
"p	c #6C6E6C",
"q	c #ECEEEC",
"r	c #1C1E1C",
"s	c #9C9E9C",
"t	c #5C5E5C",
"u	c #DCDEDC",
"v	c #3C3E3C",
"w	c #BCBEBC",
"x	c #7C7E7C",
"   44lh#j>tpx2%0''%vnn*444     4*b^v|nnnr8^r:*!!4  4jbjb!*4:^^nf",
"   4*+f*#{'2=2(p'h68*j!4    4448rf[0-ld-6+l-v|^j44   44  4  #>n#",
"  4j8[{b8[kck'%l[l:*!4      44bf%([++l'(-+{6ll{fn:b4  4j^n!44b8>",
"  *^d'd:#[2x'0d-t#!!4     44!86h%[l[txk0---{{l{6+n#8*j*:r##jj!!:",
"  8t=$6nv['h'p(pdj4       4:[{t(0'..(hxh2555...%[-|n8#*j!:>+>bj!",
"  :t@9fnl0(0[-d[n*       4|%0[(2h~.5kc.(x~2l{0%th~'tfrbb44btd*!4",
" 4*{2ln+'(0tl|+r:       !|dt(p25.=c5.2(p%-f>+{{d{d=x%+|*!4jl!4  ",
" jr6ff^(2x0l+8^!       *('(~xx=ckx~'t0p.0|+6l%l>ld%%x00|b4!^!44 ",
"!86[6^8p5hd+n^!!      8(2px~.=95l%[>>rvh5dv|8vv|6{d2h'c%^r!44!b4",
"bl0pd+{xp2+#8b 4     n.2%(h5hh%(<=-ltl|{'c'6xxhdt0(0t6|%0{^*!!b!",
"f~c5~hp%-6^^>       :x2p5t<k(ttk5v0%8#*{hx>4>5ss9x~%0l%x~%>rjj:j",
"(mo~/=%d6>^#b      46('~-p..t+>f####8^^#r-+8b605<x-dt%l0d{+^#:bj",
"x;m9<k--6f^:       >-'k%-0lv#b!!!!*j!j*br8r*j8ddv^#f+['pl%.(|bj*",
"ws<kk{ll+|>!  4 44*6t'tdf^rb!!4!!!b^>j!   4*:b#*jr::b8'pl[5x%#jj",
"7xh0dff6+8*   4 *j|%x'||8**44!***:**j**4!!  b88:44*r#*ll+0kh0vnb",
"ox.%f8f|nj!     ^|[%'-^:bj!bn6t[d(p[t[{nbjjb*:ll844!j:6d|[h$<x0>",
"=ht{f#fv^!     rbd%p'n***^6%0[tdp'd{-l{{v|#!*rfr8:4 44dh%ppk~h5%",
"dl666#ff#!    ^5+thp2:j#v-p(dt{(x'd|6d{{+[[+#*+[|:b4  +k5dd+l('2",
"f>n8n#f:b4    5p-px{8!r60{tl^|(h6+6t[|n#>>l[t^jjv^:bj4j0ocx+|l-l",
"n^88#8|jj    *~+dc08!r+%l[[r!4j:bb*r|8:r^8^f{%+j!b>#8r4+c$x[+lfv",
">>>^brn!j    -[t%'+4:l0ld~f4!rb!!bbbvdl::^|n#vd-r! f*r*4b5<2{dfv",
"+{f^br^!4    .>%x[r!{(p>2lr##:*nvnn+6v>j!:nnvfv+l844jb|bjf[v+t(-",
"d0^b:r^j     ~f0.6 8[hdvn:||:|+vvv|lvffl>j^>|v6l6f#! bbr88+t>(xp",
"t[^b*rr     4d60'8 +%20(#**#lv6vvf6-d-+^f>r>f||6v-+^  *rnh#p+{%2",
"[l^8b#b     !f[0lj4-2'[dr4nd>>fnr::^v--+v8:rnnfv+fv+: !:b-2#j+[l",
"=-f8*r:     bf%0f4!%5[>r!#{^8:r::r:r*b>-{l##rrn66v^{-j!8*!l2^!d8",
"h%rrj8b     8+'0n *05-{r*ll^v>fvl[l+^::+(l+#**8vv+{n|n!4:**=2bl8",
"0[b8::b     v[2t# 805p|*>[{#f+lv+|+6{n:>vttv*#:n6>{vf^#!*jr{.+>n",
"tp|::fb4    n~[-r 80kx^!-'nrf|r8n:b+t+^!n+%-nb:r^vv+>^njr:b#|(fn",
"6'-88#:     *0d0n *(5[:bdtb8v8>6+-fbld+**+{tvb:jn{fn+8f!:#*#*|>{",
"nt0r#j#     bv{t+  (.h:#[r:|^n|>f#f>rd+|!f{d+8::8{l>{>v::(|b8jr>",
"rvl#:b#444  :l-[f  t('r8%6#fnnn>8fb-*>6f!#66d|bb8ftd|l688[l*^:4j",
":#|^*8r!*!  rh6%>4 l2d#8-%*nl8^^|^+f#r+f4bt+-+#8rft[l6[|b%-jb>!!",
"br|fj8r4!b! rch0+* *%'nb-66bl#|6l6^f8:6>j*tvd+:rr|[llvv-jpx:j|>b",
"^n+v8*b44:r jk9pl:  ^0%n+'lf|-ll->:[8>dn:82|dfrjn|'|6^vl:lh#*>d>",
">:|l>*j4 *nj!k/k{^4  v(-rdxh+nd-8f'd*+d^j6h|dn::b+p+|n-l#bv#*#v[",
"x|flv**b !#^:lchd|:  :-xf:l''[[ddlf!jd+:*[%|{^:*r6%-lr{t:b*::r>n",
"s'f6->b#  b+-({0-|f! 4(dh+4:66f6f4 *n6r!n%[6v>bj!6%{%8vd:!4:#r>|",
"|tt{[[:8: 4rfsxdv>fr  ^[d%l^*   4*bf|>b4|t--n^#**{(+{^vdr!!:^8>{",
"fd[%t2-r:! *l0sh[nn>:4 !l|%[d6>>nnl|fb4#-[-l>8b!+|dvf8>h#44:n#r|",
">v[2%%h|b8  j[d<'%>8^*   !6l{.5d{t'>j*b+%[d+rr!nn{{6>^v-:4*#{^#f",
"8>6(x(%d:|8  b[6't-6b#:     *6'(5[^jj*f{-6f^:!4|ft-vnn6-j!8^v+f>",
"6#|dp.(tv*n!  :n|(p0l#::j   4*r>+: *j|vd>8^j*4|{[-|{n^f^rj>#+{>#",
"f68{(05p(+^-   8|6kp-->brr*j4!!4!8:nvf{>>nbb4^[{ht+d8n{^r:v#6{f8",
"jf^#-t'<h(|^n 4 !>n^8nvlfrb:!br:>{%tflv|{{!* >fth{{%8^#bf8^^|fvf",
" ^06r-%p$h(|b^*  4r:flvn^>vv+d[%h'lf6v>||4*!8|v'd6[+rrbrnv8^|||6",
":4^(d{+v[2h0>b>84*r *#>+[l{l[00%|#6|#+bb4**^l>-h6dd:rnrbnf#^f{{+",
":b*vxdv#>{h2t|*j:bbj*j##8##f|+{+^#:88!! jj>6v+[[%+vb>*::+#^8v-+>",
"rb8|dv^b:#vt0dvb!*^n!!jr#*!*8^n>n|nb44 b4#v{|th%-+8#n*b:r#n*|-df",
"rb^n-0f8|8^>v|6l+:4*r:!j*!4!#rrr:*!4 !jr>[{|+%(-->:^bjb!b#|n{ld|",
"jrfl|+l>nd>^n>|>{6>r*! !4!4!**jj#:!:*jn+-t+6%p{l{n:**j#jrr^n>|++",
"444:#f:^|0'd6v|nfv+[-6|8j4 jjbb:44r#|0[6f+|dpddd>:*!8b8*f:##fl+v",
"  j:!f|>brnd[[{l[++v+++6{{-[d-dddtp0((d66^t(tddf:*!rf:*^v^>>[-6{",
"f bj#rf|fbj:ft0d-lt%[-t0---00%'p.k5(d-{fvl(6+{>b:#!^rrj**vfv0'dl",
"*:rf*84bfr!*8>66ldtpp(22p0''(ppp'[-v|>>[('-66+:r::b#j4j#r^nf[h(l",
" 4r6dl8*^v8^^#888:r#>lt+f+{d[[{l{n>v+-t%--f6fnb#:b8rjn8>fnn+[0{+",
"!  b:#l+[dvf^l-f8r88^ft''p%td{>>8|{{0hllf|d6|#jrb##b!#n|v>vl{{f|",
"br! 4#b*^+vv+l6|l-d6+n|v{>>dl-v{l-p0[vv|+(+r^jbn*r*!b:n{f['h+n|f",
" 4!j!4   4rb*jbr^f+^br^+[((h0-dt+ll+f{vv+frbb86^!j*n>8{f|p=5t>|d",
"   j:bj8 jj    !j>>8n^n^>fnr:rnfl||8|nr^:*>##^r!44bl||{v{%s2t{('",
":   !:^r!bbj4  !j#t''pvv>#v0%t+>6b:r8|>rbr#:*r!!*^:l|{6dl|%0dl'(",
"+#!  !4! j4j:! !*!jb60d^^8^rr*#b#bf6lf:bjr8br::bj>8l+6ld'~+ll|-[",
"t|r4j4   >l-*bjbj!   !rj444444*f8++#:r**!:!!bj*4!:>|lp%ppht6d{|l",
"lt-+||^rrb*:!  !4           #>^#n>*!jb8n|rbjjj444:^>d-%.-6l0%6>|"};
