/* XPM */
static char * 10_xpm[] = {
"64 64 63 1",
" 	c #040204",
".	c #848284",
"+	c #444244",
"@	c #C4C2C4",
"#	c #242224",
"$	c #A4A2A4",
"%	c #646264",
"&	c #E4E2E4",
"*	c #141214",
"=	c #949294",
"-	c #545254",
";	c #D4D2D4",
">	c #343234",
",	c #B4B2B4",
"'	c #747274",
")	c #F4F2F4",
"!	c #0C0A0C",
"~	c #8C8A8C",
"{	c #4C4A4C",
"]	c #CCCACC",
"^	c #2C2A2C",
"/	c #ACAAAC",
"(	c #6C6A6C",
"_	c #ECEAEC",
":	c #1C1A1C",
"<	c #9C9A9C",
"[	c #5C5A5C",
"}	c #DCDADC",
"|	c #3C3A3C",
"1	c #BCBABC",
"2	c #7C7A7C",
"3	c #FCFAFC",
"4	c #040604",
"5	c #848684",
"6	c #444644",
"7	c #C4C6C4",
"8	c #242624",
"9	c #A4A6A4",
"0	c #646664",
"a	c #E4E6E4",
"b	c #141614",
"c	c #949694",
"d	c #545654",
"e	c #D4D6D4",
"f	c #343634",
"g	c #B4B6B4",
"h	c #747674",
"i	c #F4F6F4",
"j	c #0C0E0C",
"k	c #8C8E8C",
"l	c #4C4E4C",
"m	c #CCCECC",
"n	c #2C2E2C",
"o	c #ACAEAC",
"p	c #6C6E6C",
"q	c #ECEEEC",
"r	c #1C1E1C",
"s	c #9C9E9C",
"t	c #5C5E5C",
"u	c #DCDEDC",
"v	c #3C3E3C",
"w	c #BCBEBC",
"x	c #7C7E7C",
"2x.'dl68^rjj           4^(~hhhp255c5c=//</kx[0tl8{0p6|[[-(5.h'68",
"2.20l|>^^! !4         !:-$2x(-th~x~x=9k[(.%[%htl+-%[6|fv6.5(.s08",
"5'.(|#8^b4            4fdt2((5c%%x=x~ck%l[[v0(c.+vn>6f6dp'(d+|[(",
"%dt{^8>f4            4*{-d0h=s[{-<95p'0d20p>>bpx(|{>vf-2[0%-6hxp",
"[l6>8r8r     44  4*b4*n6dt(55d%l0~~x'%dh$,${>>n>2p|8ndl62kp0dlpk",
"-6f>n#r4     4   4f::+-[0xh.[dtl6([h([llhs(-%h%vv[0tk$<,$.[-d-0d",
"-{++fnj         4##b+tt0(ph[+nf|>^fn^8^n|{>-.%f66=@[~go9(v+%hp(t",
"-v+fnb4        j2s#v%t0''phl>#nr!j**bb*!*br^>8r*:p[* n.=/h([%hk[",
"--n:*!        4%]t>d[p5h-st^:**bbbj!!4!!!j4 b8^#:lc.j>%<cd^frvtl",
"f+^j!!        fx->%-p9~d+v:!!!jbjj!44   4!j!!!b8n#rp-#tl{6**:d~|",
"6>>:!4       4=-n'[0.p[f:!!!*rnf|ff^##:bjjjjr*4 :#r|8rrt0v88j#t{",
"{8r8j        vg86('.(+n44!:8|6{[[t''0%l->:44j8+>*jr^bj!+{8#:^b^l",
"|*4jj       !0(+l(x.v*44r|dld0pt{{%(0dt'(%|8jrbj!44b#bb8^*4:#r-%",
"8!!b       4r[n[p0'-* 4>d0%h0l6vdp[d[d%l-[ptv:j!*!  4*bb#4:8!#[2",
"84!        !|:-00[6: 4^lthxd|+(~.|frb-d6[0.~.lr**!44  :::* *4j|5",
"#!!       4#6>(0(|b4 ^ttx'l|-x.0#jj!!f'<kh0vd(hd#*4!  j#rb  4 #=",
"8!        *-ld.0[b4 *tp.2'tdr8|**j44*jj^6p(d|l6t%fj!*4486db  44[",
"#         :k+(hdn4 46(.2%%x%:*#6^##8rb8:rl-[f{tt+l>j!bj!-6>! ! n",
"!         8$>0dvj  #thc[fflnj!bn|n!!! !!:jjlh-|tt-+^*!:*8^8:4 4r",
"4        !>[{(%f4 4['k(v+#:!!j*r>vvf|||#**bbr{{+8ld-fj!r#j#r!4j!",
"!       4b+>-%(b  >t.hh%8b!!:+-[{+66vnn>88j|{rrn8n>%[>:*p6b:b! 4",
"*       !f-f0dl4  +hk25^*8b6l+nn>>v|6v6|v>vr{t:#:ff+[{#j^'6b#n# ",
"* 4     *0%+({f  !05xp+!j#d-6##8^>>n|v||v{6lnl[b^#:v[0fb!8{#*r8!",
"!4444   f=2{0v:  nh.h6*!r'l6{>|*rrrbb:^6[dv|l>bbb>>8+t(rj!*6>*#l",
" 4!*4  !(9~(%>j  l(.x^!#-(%+:v|+>>n#b:b#|%6vf684b#ffrf%-j!!4#*r#",
" r!::  *2ws%d8!  0x%t*jldh|brf6l{{dd{n:##v%l+^[:!#8|8rl%f!! 6:jr",
"4j48^44^/9<'+#   tx-^j^%6f*b||6vn8{l--+^br6tv^vv!rf>+n|d[r!  !b:",
"4 *rf*j:$=2t|^   v2l8*-t8!bfv>b:^r*#+v-|r!r+lv^>#r>nf||+-6j44 #!",
"4 j#f^6nlx(lv#   f(lr#dtf#^6>#>-{lv^jl6-n8:fdv+n8#>v>v6v{68!  !:",
"  4rvdk0-dtf6^   #(tb^d06#|>8|v8#|-+#bp+v#!|tdd8:8nf+l6d6+#8   ^",
"   ::|s9dl6nvn  4#%2f^tv#!|f8|8vvf:|fb-d6nj+-%l|8:>8|nvl+dv>! *:",
"   b:0-g%tn|>84  r[(^npdd*{+#>fnn^|b{r|d-8*rfp-v^*^8>f6>+ll#: 4!",
"4  4rk{sk'f>n>4  dl.|8%'fr{l:f88nf|bd#:[l8j!+-t+rb*rn||-nnl[#4  ",
"4   *|2-/0t8#>*  0(pl4l.%|n-f||v-8[:+bj{+|*b+lp{^j*b^{v-f8r'>r!*",
"r4  4r0fx0dv8n*4 *[%h#8(.t*l{>>-v{^*v*jv|{j*6vtln!#:^6v|{>#ffn*#",
"r*   r[v{(l[8rr!  t[064f'.lr[''[l^j|-j:|+n4jlv%d^!8r^{v|t|v8n#!4",
"8^   !8+{2%(>b8!  4-d%8 f((6|n>^!8f0f4vv|r4r-|%+#:r#^>6#d+>n|84:",
"n-!   #{fk~%[r:r   *fpdr nd[(%-dl2p%#^0v#!4n{|[+8::!#nv^dv>n>>48",
"bf*   !b602[%|:r4   n%[t^  48[-|vrjb*-t#^4j%-v%v#:r*n+6>n{f8v>4#",
"!>-4 j4!v#f|+dr:r    6l-[n*       !!{0+^rj>%6--+8::#8{6f8-+n+n4 ",
"*r0n  !4rf^#^vd:r:4   r[(0v>#bj**::fd6fr*rh%fdv6rrb#>--{n+-vtnj ",
">j#n4 4  jrl+b{{8#b    ^k9'+n^rr^+f6nrr*:tx+l[+|rn!^f-t%6v-6pf:j",
"tfr:{*4b* :#lvrnnb:b4!!4bp[{-l[[v>68*4!#t'%f[vvr^j8f>dttlfl^(^^:",
"h-n!n{b4|j ^f>0|fn:#j *#8{55xt'[^>rbj4rt0[v{df#8b48|ddl[68v6-#b!",
"%p6#*!^4!*!!^>|06v+#jj44jb+6vn##!!!j!8{t%l|l|8r:*r+v2l|-|f-[trj4",
"'h%frj n>4::^*>n6l6{+rr:4       :r::|l%[-{d|#>brb:+6x+v|8vl+p>j4",
"$x2t^j 4f| !:^*^8|d%t0tvrn8>**:j!:|{{p-[[-f^v#!j*|6l.6{v:n{6{^b4",
"kxpt{8*4 nn44*8jj|>60p(p0[dl+|f|+vv[t%t{dv8n8:b4!|ld[-({:#{~[:*j",
"th.'[lf:! :#:!j**j>6|+-%'2(p0lf>v6t-|+-{6n88:8j!bl%hvl[|#8vp>:!j",
"+-'p-lt6#j44 b: !rn>--+n:^8^nf+l668f888f8#8!*!8+f{(lv6^#>{ftnn*b",
"fvl{f|v{vnr!!j44j:*b:||^8^-{{6lv^>+#888j#b44!8+#|-{6|6rrf-|vjnf^",
"rr^+vv>+60df*4j!4b>88:8>^8jb#fv>vv-[f*!r!44!n+nf[-d6|f8^n++f*|^n",
"b#nnn>>+vv--l^! !jj!*8:>vfn^^^:jf6f^ bb!4 v-dflttvl+ln8#n{bbbbff",
"|f8r^f>^>ffv|6|rb4jbj!4j!!4  !!4  4!!:j 4+l-|%p(+|+[6rn:##j^:b|f",
"#nn>n|v||vv666-d[lf#b:^8b!44!    jbbr44r>>+n%2xtl66h+:#*n>!#rrb:",
":-0{{6+l-{-+{t6{d'[v8#j4jjj!4! *b!j4:>v-6>n%'(tl|d0{8b8n!*j:b*j:",
"+62x({6l'{t(00p%-[p22%{nj8^b!!::b!8#-{{{|nl(.l+t-l%rj:+f*j*br*j#",
"#^v{%%.'[{ph2k~2%dl-d%00d-f^nn>fv{d{{l|f+dpdtt0l|{{:jrn8!j*b>*bv",
"bb**#v%%+t'2h[0t(..'x.x~=kh0hx[[ld(t+f6+{(x'0t%-6f|#::!::r:b:j8l",
"f|#!*r#ld-++>>v||l%pt%(p..x0t0%-+|6{6+6{t0'[d{{%6n>rb*4 >v:r:j:*",
">|^4!#nf|>#:rv%%v|v6l%lt'[0%lddt66{nn|60.t%{d-[dv#:bjj !>njb!!::",
"b>^bb*:r>88:#^f(...p'-l6dv>ffvv|n|f|n['thd[l%d-fr:*#^*!:r#!4*b#8",
"b8v+:>>^rbr:##8f-%06{d-fvn8^v6>>n6{t%'pt{|66{l>#*#b:#b48^r!#|#>+",
"n+[{f>86dlf>fv{++6n^nvn^r##+{v--[%ppt0't||{{6v|#br8::r8^rb4*>nf6"};
