/* XPM */
static char * 11_xpm[] = {
"64 64 63 1",
" 	c #040204",
".	c #848284",
"+	c #444244",
"@	c #C4C2C4",
"#	c #242224",
"$	c #A4A2A4",
"%	c #646264",
"&	c #E4E2E4",
"*	c #141214",
"=	c #949294",
"-	c #545254",
";	c #D4D2D4",
">	c #343234",
",	c #B4B2B4",
"'	c #747274",
")	c #F4F2F4",
"!	c #0C0A0C",
"~	c #8C8A8C",
"{	c #4C4A4C",
"]	c #CCCACC",
"^	c #2C2A2C",
"/	c #ACAAAC",
"(	c #6C6A6C",
"_	c #ECEAEC",
":	c #1C1A1C",
"<	c #9C9A9C",
"[	c #5C5A5C",
"}	c #DCDADC",
"|	c #3C3A3C",
"1	c #BCBABC",
"2	c #7C7A7C",
"3	c #FCFAFC",
"4	c #040604",
"5	c #848684",
"6	c #444644",
"7	c #C4C6C4",
"8	c #242624",
"9	c #A4A6A4",
"0	c #646664",
"a	c #E4E6E4",
"b	c #141614",
"c	c #949694",
"d	c #545654",
"e	c #D4D6D4",
"f	c #343634",
"g	c #B4B6B4",
"h	c #747674",
"i	c #F4F6F4",
"j	c #0C0E0C",
"k	c #8C8E8C",
"l	c #4C4E4C",
"m	c #CCCECC",
"n	c #2C2E2C",
"o	c #ACAEAC",
"p	c #6C6E6C",
"q	c #ECEEEC",
"r	c #1C1E1C",
"s	c #9C9E9C",
"t	c #5C5E5C",
"u	c #DCDEDC",
"v	c #3C3E3C",
"w	c #BCBEBC",
"x	c #7C7E7C",
"5x0-+|8n:4!!4         jr%92.pdl'~5.x5<k00=0d[0ht|6dplvfv|-kx'cs[",
"2.'+^8^r4             !|t%2p0's'0'~.k9sx6td{p0.5d++^+f|+d'(pd6+d",
"d0dn8^vb             4*6-[%'29.l{'gs2''%thh6>r[$xl|6v6v(2%0t{v'h",
"-{f^##^4     4   !jj4j8vdd%hspd--h..p0%-pxk(f>8ndht#r>++l.2h[[02",
"6f>n8r*     4!   j>rb|{d%2hxp[t(-[.hkpt-~,wk>vh{v%ll02c.csxdd{-[",
"6vvnf:          4#^*|dt00(hh{+^^n>f+6++ff{0+hc0vv%s$%]w11t|6%((p",
"66vf8j      4  jx$8^0[%ph0h({fn|>bj*j::r#n>nn+n>8tcp4!%~~5(('''h",
"6>8bj         4(m(^lt0h50t/+^:***:::*b!!!!4!:^8rb*%'|!d.g9dvv>tx",
"l>jj!         f.[nt-t=9pl+lrjj!!*j!44  4!!j!4j#^8#{5~{npdf8j:805",
"f>:4!        !<-^[ptxxtln*!!4*::###bbjj   !4!!!j#>##v^4v0pf:r*f%",
"n^8j         618+((5.6v#44!*r^+66-{l+f>8:*j*jr:! b##|*#fdnv^rr#{",
":!*b        j((+l(h.0r!44rfl66d(p[t22hp0(+:! !#+|bjrn:j!dfj!:^:{",
"j!bj       48dn[0p((#4 !vd0[('d{+6l%0[6d((0v^*rb!!4!j#:b#r!:#:r%",
"!4!        !v:l(%06^4 *|{0h.%vd+%'(d6l%0ll[p%v:!!*!  4**:r4 ^4rl",
"4!        !^{>((({#4 !ld0.pd||x==%#bb*6tl[0.kxlr*bj4  4::bj ! 4-",
"j!        r%{d500#4 4+thxh0+v[dl^!4!  >(ckh%6%pp{:*4!  j#rb4   :",
"4         n<|0hd|!  8%xxxp'.vj*#>rbj*:jj^{hpdv6dp%^j!* 4^ldb j!4",
"         4+<f0[+j  j{'5~{>[%n*:n||n88:b8:#-l[v-tv6-84**!j-+n!   ",
"         j+l{(%v4  l%.5-6^#rj j*fr!444 !!:jn[08lp[6+#!*:!n^8b4 j",
"        !86>dt(r  bthk[0{#b44j#f6{{6|vvf:j**bl(vl6%-+8!j#**8r!4!",
"        b{{+0dl4  fp.~k6r#j*>+--+>|{vfn>>8r*f>rfvr>+0-r*b%#j:b: ",
" 4      ^2d-06>   t.5p'bjr#[lv^^>fvfv++6f>>^ndf:r#|nlt+rjdp>b#>8",
" 4 !   !d$(tt|*  #2xhl#!!|%l{^rrrn>^>v||>v6l+>'vb8:>vtln*!dd:j:#",
"4!4!   b~ox([n!  l(..v!!|'[6-f{:>8rr*rrflt-|++rvr#>*vdp+b!!r{^*#",
"j4::4  ngokd{#4  (20p:4v[tp>*^vvf>|n::brn-l|>{vj*b^|#vd'^j!4*#*#",
"8!#^*445g5<dfr   (2-|jbd-(8j#>6ld{ddl|#rbf%dd^6|!b#fvb>[[j!4 {bj",
"4!:f:!*0/hx{n#  4lx-8j{0>!b:vvvn8r|6-d6frb|[{f^lb488|^#-%v!! !*j",
" j#fnfffpht{>:   +pvrr-[rj:vv>b#n8:bf+l+#b!v-v8+f!8|f+nvdtr4 4 8",
" 4rr%'.v[t{vv:   |26jnd(>nn+n8f-{-+^:f--f#b>6lv8|:8n>f|f|l6j4  j",
"  :*vhw[t+|nv#  4v0%*>[0n*v^nvv8#^l{^!06+^b^+-{fnb^>6fv{vl|^*  4",
"  *r-8g5%>fnfj  *|(pb|0vf!6f8|8vvf:f|b6t6^r:{'6l:b^n+|-dl6+#n  *",
"  4#kd./[t^n|b  4|0':+'%6*l{8>fnn8vj{#8%-v*j{0ll:#r>nf|v{6[|8! *",
"   :^~{o0'n#>r  45-x^>0(|b{6rf88>|frdnjd-v*4>-%l^^bn^|f6f6{l8:  ",
"   4bd^h'[6^^r!  pl'v!t50^|-nv||-8dn+#46-8:!+v%dn#jb8f|{vn^0t8!4",
"4   r(-{(l[f:8j  +[((j>'.l*l{n>-v{fj|r4v{vfj+|pl|*j*8f{vln8#0>8j",
"*   j#>+'%%v*#j   '{0^ 62x|8%''[dn!n6b!|vv*j|v[l+*::8f6|6+>:|^8!",
"8    8dnk~0tr:#4  8|%tj {(06nfv> r^dl4^|+^4!-+%dvj8brvl>[{|+rnr4",
"[j   *#+'~%%v:#4   8{p6* v-%(t6{{hph8r[vn:4:lvt{n:#bf#{^+-f>#{: ",
"fb    !{:v66-bb:   4d0%-b  j+tdlv6:#*+0f#44>{|tvn::j:8+^6{v^8f84",
"nl4 j44n|#r>{6:rj    v+t{rj  !4   4!v0v8^4b(-v%v8:r!#|6|n>lnnl# ",
"#p>  !44b^{#:[|8^!   4+h'-f^*!4 !b:nt-+#b*+%6d-+8brr#+{|8>[>v+#4",
"!8n! !4 4:|t>r+8b:!   4%/5->n8r:rn>6+>:b*f5dfdv6#rbrn+t{f^tfttnb",
">brl: :n jn#vv^fr:#!!*j4[%-ll{d{6>-n:*b*v''v[-6f#nj#f+0d[>-|-088",
"{^!nlr ^*4*6^ptnv8:j4!r8vxk5((2fv>#:j j6p'lvt|v:n*8>>l0dt|l|ftr#",
"(+rj!^: jb#j>>{dv6njb! !bvl+>>n:jj*!!!l0%{>[6|#8:4#v{--d->>v[6:j",
"'dnrj >| **n*#>|lll-nrr4   !!4 *!b*!^6-([>{{f#b:j#vfhdv-+8l{(0rj",
"2'-#j 4n+ !bn:*8f-(%0%vrn8fjjb*!:*n+l0[d{-{n88rr*#v6.l|+8#df6{^b",
"x2(6r*4 8|44j8jj|f+0pp(td{|^r:r>fv6lpl%l%f|#vjj*:|+l.{6{#:6v2d#b",
".p[-+8:4 b#:*!***f6v+d%2x'h(d++fv6%dt%{[ff8>rb!4bvl-({0d^:v6'n*!",
"tk50[[f:j 4 r* !r>|dlv8rn^ff>>|{--v>|ll+vr>:##j4:d[h+l[vn#>vx8^!",
"6[[+fl[v8:!jj44*#j*#vf^8fdlll[dvn8f888n>:nb*j4>>fdpd++fbf#%n+bn:",
"n|{+|ff|[{^j4j44r>^rr>n8*j*:#^^f+v8n8^!r:j 4*|v8|d{{v+n:>^lvvjvf",
":8>>ff{l-td{#4 !j!!#8#v+|>nf+v8f{%%fj4rj44 *||>|[--{vf88>>v|*b>r",
"^nnn>nfffv|v+nj44bbj4!j!!!!44j!^#bj bbj! jld6fl%t+-+-f88r>vbrbb{",
"f##^||8nv>+{l[-d+#*!rn^j*44!!!   !jj:j  nlt6v(p0v|+t-#^8*^bj^r:>",
"|6>f|v+v+{-v+fl[tl|8r444      *jj*br44:n>v>v'2ht{6+p[r#:*v:!rr**",
"{'d-6v+0-d{-'(l{'p(dn8j*^n:jj4!j!j4rfv{df>vph0[l|d0-n*r|nj**:*jj",
"+(5'[{l%-lp(0p'0%%(2x0-8#:!!!r8:bn8l6ll+^|[hx6+td+0fbj#6^!j*b8jj",
"rn>-[.2%602hk~5%tt[t00h2h{+l-vv6ltll{+>6+%(dtt0l|6{>bb8n:!j*:>!#",
"r**rn-%-lppxl[ltp.hh2x5kc~p'x0%l{[({fv{|[(.'%ttdlfff::*4*^8b::!n",
"v8!jrr+-l6nn^|6f6-0t-tpx'h(ttt-{|vl++6v-%%hddl6%-+8^**j j|>b#:jb",
"f>!!b>>f|^:r8d([v+{60d-0%d[{-d%l+{v8f|lpxt%{d[-0v^::**!4*frjb4j:",
">^::bbbn8#:r^nl'x~x(%d6-l>>nf||>n||fn0't2[t6t[l6r:bb^8!!8r:!!:b8",
"8v6:nf^^:::##8n6[%-6+tv|>^#>6+^f>{l%0h'%{|6+-{v^*:#::r!*nr:4>f8f"};
