/* XPM */
static char * 12_xpm[] = {
"64 64 63 1",
" 	c #040204",
".	c #848284",
"+	c #444244",
"@	c #C4C2C4",
"#	c #242224",
"$	c #A4A2A4",
"%	c #646264",
"&	c #E4E2E4",
"*	c #141214",
"=	c #949294",
"-	c #545254",
";	c #D4D2D4",
">	c #343234",
",	c #B4B2B4",
"'	c #747274",
")	c #F4F2F4",
"!	c #0C0A0C",
"~	c #8C8A8C",
"{	c #4C4A4C",
"]	c #CCCACC",
"^	c #2C2A2C",
"/	c #ACAAAC",
"(	c #6C6A6C",
"_	c #ECEAEC",
":	c #1C1A1C",
"<	c #9C9A9C",
"[	c #5C5A5C",
"}	c #DCDADC",
"|	c #3C3A3C",
"1	c #BCBABC",
"2	c #7C7A7C",
"3	c #FCFAFC",
"4	c #040604",
"5	c #848684",
"6	c #444644",
"7	c #C4C6C4",
"8	c #242624",
"9	c #A4A6A4",
"0	c #646664",
"a	c #E4E6E4",
"b	c #141614",
"c	c #949694",
"d	c #545654",
"e	c #D4D6D4",
"f	c #343634",
"g	c #B4B6B4",
"h	c #747674",
"i	c #F4F6F4",
"j	c #0C0E0C",
"k	c #8C8E8C",
"l	c #4C4E4C",
"m	c #CCCECC",
"n	c #2C2E2C",
"o	c #ACAEAC",
"p	c #6C6E6C",
"q	c #ECEEEC",
"r	c #1C1E1C",
"s	c #9C9E9C",
"t	c #5C5E5C",
"u	c #DCDEDC",
"v	c #3C3E3C",
"w	c #BCBEBC",
"x	c #7C7E7C",
"x2{>8^#j             4:v(02p0(<x0(.k~9o~{[d[[px2%{+vf+nvvd'00-6{",
"(%f88v8              4*{l[%''k$[l[9o~p''lp(%nnn/c%v6f{+{hp0%[6|(",
"-|^r#n*          j!44j8v--tpcc-dl[55h0(t[''h+f^8+0%+:#>|{dxhhd%h",
"v>>^rr      !4   :njbn{-t'.p.%[(%dh~5k([%owg'^l0f(tv{[h.'./h[d+l",
"||^fr4      4   !r>*>-t%0%px'v+f^^|v{%--v+'x62xtvvh$h$;g@1-6{%t(",
"{+ff*          b~c8#%t%(p2tp0{ffv|8r^r#r8n+6>dh|6^=,+b-~k2%0tx''",
"f>#j4         j';p8{[tp52[5<>^b**j*bb*:b*j::8nn8:j|6v nhkw9--|l'",
"|*jj          v5tnd[dh/k%{--#**jjbbj!!!4!!!! !#^8:#~$68{'h{^b8^l",
"f:!!         *$-^lhd'.p[6^*!!4j:bbjj!44  4!jj!!b8n8#+(|r%tt#jbb%",
">#j4         [w8+%(..p+fb44!jbr>vv+|f^::*4 444*j!*n##vb#{p|vnrjf",
"b#b4       4:p0v-0px.v*! 4r>+++6d%ttpp[{f8:j*j:#*4jr#^*j:0#b*#8:",
"4!*        4nl^d%p%'+j  *6-%[[p(%d{l%p'(0'-#j44rv+:j:n#j!^:!4#rb",
"4b!        j+:{(tp+|*  b+l('2p6-6v-p0[[{-%p({nb::4444!:rb#* :nj8",
"!4        j>{npp0[8! 4r[-px'0f|{h~.{+|vt%ll[(0+:!4j!   j*:r4 b !",
"!         ^({-~((n!  j[%h.h[|v(~h08jbb*v0-d0xk2d8*b*4   :#bj44  ",
"4         +9>%'-6j  !{0.5'2hhn*nfj  4  8tc='0dph%vbj4!  j#8#4 4 ",
"         4[~|0t{b4  >%2cp6>pp8*bn+8:**:*j8lxhdvl%h[r!4j !^ddr j4",
"        4b+vl0064  ^%h~2|6#n8*!*^+v8r^bb8:rdvtvl-|d-r4bj4jl|^j  ",
"        jf6|[[(8   d0=(%[^8b4!!**j!j!!! !j:b6t6r[(l6+r4b:!>^#*!4",
"4       #[+l%-l!  r02chh+:b!!bf{dddl6vvv^*!*jrpp^dt[6f:4br**8r4 ",
"4      46.{[%+n   d25h~fj#r8{{6v|8>v6vnn|n8*br:^{{r{ddvj!:lbj:r^",
"4 4    nx$t0[fj  *h2xtf!!j|td+88>>f+f+v66f^>:6-rrn8n>%t>rj(08brn",
"4 !4  4{$92(-84  6(2~l*!b-p+{>r:*#8n^f+|fn++lr-[b8b|f+[{#jj'-:*:",
"!**4  jt7/.[vr4  (h%2^!:-%({vflnfn8:*br8+dd6vl#%{*n*8+tt>b!!f{8*",
"4b8b 4^/o~5ln:  4p2d{*!{[%08j#6v|nvf8b:b#|d{>6{:r:r|bf-(dbj! #8j",
"j:>8!!:<cp(68:  4dxd#j>0{6b!nf6--{-[-68bb^-%+f++!j:8v#>l'|!!!4{b",
"*bnf#f#-2(l{^*   {pvr:[[84:#vvf##b^6ld{f#*>---8d|!b8>v*>dt:!! :*",
"!##dlk6[-tf+f!  4{2fjnd%#:r+v^b^f>#j>+{{f:b>0vn>6j!88|n8-%6!4 44",
"4:b-+@.%|+n|>! 4!{0{jf['nn>v88|-6l6nr8-l+#j:v{v^v8j>f|+n+-t#4 4 ",
" *r6b99d-n|>84  :l(p!|[{b!v#f+|8#rlln4--{n#b>[+|nfb^>nfv>|l6b4  ",
" !8'0dw[h^>>n4  :{'6!-(-|4ln8f^v||#>vrn(+>#!ft{-##8>n6vvl+{^n:  ",
"  ##<[9xhf#8>j  0[2%!lh[n*dl^^>nn8v!68*tllr4{t%->br^^6v{[{{6^>  ",
"  !*-n0.d->#^*  >ht0j|'%v!lf8f^8>|n8-f!l[6#!n{%l|8:n8f>v+6-[n:j ",
"   b0(+p-d{:^j4 4t[2>:(xpb6-#+f|-^lf+>4vt>:*8f0d|^*^8>|+vf+{tn:4",
"   *8^f(%t{br:4  %[0{4|hx+#l+^fdv66j>^4|l^>jn+%tv#**rn|fd>8^'[n:",
"   48d85~%(#b8!  4{ttb4l2'#>0h(d[f4#|:!|+f|j|+t[+#jj:^{vlvn8:-^8",
"    :n{pc(%6:#j   :vp644[pt68v6f b8ldj:|+>*!>+ddlb*r:^6vf{|f:>8r",
"*    *{8--6d:b:    6[%64 6l%(d|v60[28j{v|^4j-6td{*rr:nd|>t+vv:v*",
"j  j4!n|##|-+:#j   b'{[f4  r[[dtv0v|*|0v#j4#6v[lf:rr>rvv8d6n>r6:",
"6! !!4j8>|:#tn#84   jvlt|b4 !#*4  j!n06^844|l|[v>:bbbrfv8d+|886r",
"2^  !  !bldr>l^rb    #2.(v>:!4  4j*^%[fn:j#plv%v^r:j*|++^>{v8|+b",
"^+! 4j  :#vv#^nb:b44  |sc0|f^r::rrfl-+nbbbd[v[-+#b#:rf-+n8ll^dl^",
"*#lr bf 4n||pffnb8j4*:!f%d{l+66++f{f8r:!r%.{v[|+#::r^f%6+8+[|pt8",
"^b^-^ r*!4n>+(|+|*j44b8|pk~2t2dnv+^b!*j8tx[|%+ln#^*:|f0l0||-n-%#",
"v:rj## !:8:8>>-66vrb* 4*f-vf+dn8rrb* 4v%p0|{d|vb>b#nf+(-%{>-|{6:",
"-n:! ^+ j*^#*nn{[dt6#r4   j*j!j*!!!!j+t%d+|%vfr^:4#v+-[d[v^6{plb",
"p68* 4^+  *^#4nn6(000+rn8n!  !j::b:f+-0t{|l+>r:b!r|f(t+l{>fdftt#",
"2pv:j  8|! !:jj|+|t0pp%d+>#:#*!b866{p[dlld|8nr#rj^+6x[f6^#^[f[v8",
"p0-fr:4 b#:*4jb:^l{+d%xxh'0-+v++|+dpl%6(+f^>>j*br|+{.-vl>:r{%56*",
"5ht-{^:! 4 #* !rf|-{|r#n>{{|>f|6-0--tddf+8^>**!!r+-{'{t0v:rv6(#*",
"h't{ttfr*!jj 4b#j*^v>^8v-666l-{{|8n>+++{#^n:nb! #ddh+{d{>^n6>0r>",
"llvf|6+vfr!4j44#>^r#>^8b#8>f+|88vf88n8n*^8!b!!n^ftpt6|+:rvn%>^*>",
"^+6|||6tp-|b  jj!jn#^+v>88n+v>v+n||8r!:r*44!*|6>|[l{vv|r#>^{-^j6",
"8>^n||{v6{{vr 44bbj !j::8##:b*vl%[8!!#j4444b6nnvdl-66fn8#n{>*jb:",
"n8^>nn>ffvv{-+v8j4 r#rj*4 4!!4444 4*:!!  f{[f|l0[+-{l+^^#b^#*8b:",
"#8^fvnnvf|6v6dt[6|#:rr44 4!    4bjj:*  r{tdvl0ptvf|[tv*^:*|*j8#:",
"[vv++++6{d+-lv-h06nr!4**j!444b*j*b:4!b^f>+^l2x't6lv['fb##*n*jr:j",
"20tlf+(0-[d0h%d-(x.pl>j^nb!!4!j44!8|++[+>ndph(-l+l[(>:*n6rjj*:*j",
"d2'0dd[l{(pp'x'%l-lt%0-{nrr:^>#8|>66d{6>^60xh6+[tvd[:jb^+b!j*r8j",
"#8v-x.%{[hh.~~p(x'h.2.==0d0p-+ll%%d66>|+l00dtt0[|v6+r*#r#rj*b:>!",
"b*b#v[[6p%2-6{{-(p'0h2x=kh0hp0dv6({||{{|%p.'0td[dvn|^bbj bf8b:*!",
"8!!rr|l{68n#>l6|l-%l-%h'0'0d[-l+v66+v6vd0%2[-l+d%{n^r**4 :v#:#bj",
"|!!*nnfvn#brv%pl{ll-pll0ll{6ddt+6l>#fvd(.t%dltd0{nrbbj*4!:f*jj *",
"^#:rbb#8#::8^ndx.5''-[+d6>>n>|>>nfvfn0h%htd+[[-{^rb*rnr!*^#b4*#b"};
