/* XPM */
static char * 13_xpm[] = {
"64 64 63 1",
" 	c #040204",
".	c #848284",
"+	c #444244",
"@	c #C4C2C4",
"#	c #242224",
"$	c #A4A2A4",
"%	c #646264",
"&	c #E4E2E4",
"*	c #141214",
"=	c #949294",
"-	c #545254",
";	c #D4D2D4",
">	c #343234",
",	c #B4B2B4",
"'	c #747274",
")	c #F4F2F4",
"!	c #0C0A0C",
"~	c #8C8A8C",
"{	c #4C4A4C",
"]	c #CCCACC",
"^	c #2C2A2C",
"/	c #ACAAAC",
"(	c #6C6A6C",
"_	c #ECEAEC",
":	c #1C1A1C",
"<	c #9C9A9C",
"[	c #5C5A5C",
"}	c #DCDADC",
"|	c #3C3A3C",
"1	c #BCBABC",
"2	c #7C7A7C",
"3	c #FCFAFC",
"4	c #040604",
"5	c #848684",
"6	c #444644",
"7	c #C4C6C4",
"8	c #242624",
"9	c #A4A6A4",
"0	c #646664",
"a	c #E4E6E4",
"b	c #141614",
"c	c #949694",
"d	c #545654",
"e	c #D4D6D4",
"f	c #343634",
"g	c #B4B6B4",
"h	c #747674",
"i	c #F4F6F4",
"j	c #0C0E0C",
"k	c #8C8E8C",
"l	c #4C4E4C",
"m	c #CCCECC",
"n	c #2C2E2C",
"o	c #ACAEAC",
"p	c #6C6E6C",
"q	c #ECEEEC",
"r	c #1C1E1C",
"s	c #9C9E9C",
"t	c #5C5E5C",
"u	c #DCDEDC",
"v	c #3C3E3C",
"w	c #BCBEBC",
"x	c #7C7E7C",
"0|^#|n4              4rll[0p'xo0-dkgkh(ht[0'f|rxg.lf+vlvdx0(%[6f",
"+n##^#           !44!j^vd-d(5/0lll'~~0'0d'(h-|n#f[[[f:nnvddhp'l%",
">>^r84     4j   !rnj:^{-t05'2'[t(d0~~5x0-x,w$f>l66.-|llxh(.o'%dv",
"f8fr*      4    !r|*n-tt%0(h~[+6+ff-{%p[[{x$'v[.vv{.~0@wo],td{0-",
"6fv:4         4>=x8:t%t%p2pt(%6>|vv^nffnnf|-6d<h|60$1#{k<c0ltd5'",
"f^:j          :k;0#6[[(2~'-s.^^bb:!!!jj:r:#>nn^f^r8(v* v.=wcdt+%",
":*j4         4-ktn-%-%c/h[6%l8****b:bbj:j!!44*#n#rbv$.j>[k=[n#^8",
":!j          n/+^{x-(.xt[v8*!!4!j*bj!44 4!!!j4 b^^8^v~t^[[+[rj:#",
"8j!          'w#vdp25.{vn!44!!j:8^^n^:*!4  4jjj!jr^nr>fb:d2v^8:!",
"^:4         >p[|-[(250r!! 4b^f|+66{-{6v8##*!!j!*:44##8f:j+-^^r8#",
"!b         4+68[0(00tr4  b{lttl%0'p[['xpt6f^**!*#:44b#8*jj6b!4#r",
"bj         b6:6(%p-vr4 !r6l('h2[{6+vl[%'%th%f*! b|{rj*88:*8j!r#:",
"!         *|{^p'%0>b4 4ft-p2''|+-vd'p%d0d-0ppd>:*b4444 jb*#: !84",
"4         |'6l~'0+j4 4>t0h5'[||%~c<'|f^rl(l6d%(+r!4!j   !bb*!4! ",
"          [/>[(-6*4  8t'.~(.'%f|l{nbj**jn([-02~2t^*bb4   :#:j4 4",
"         4(2v00lr4  :{'.=06{h2#j*8rb!   *d=cp0txxtn*j4j  *#6|! b",
"        4r6fl%(l4  4t0.~pvvnlfb*rv|#:bb:*!^d5.0|l%2l:!4! 4^[{#4 ",
"       4*+6vt[0n   +txkt-d#8b! !j:+v8#8**#::6ft++l{0-:4b!4j->#j4",
"       !>%|d%l6*  !-2k.~%>:j44j*#####bj! !jbn-%6>%t6l+b4b:!^^8*!",
"       :(5|%%v^4  l'.52'rj^j:fvdd[--66+v|:!*bjn2->%06+nb4br**#r!",
"      4ds=dp->!  4p'.068!jbv[-+nnnnf{+vnfvnrj:b#tl{f%d{>j4:6bj:8",
" !4   *.,c'0{#4  |p(=%#!!#%[l68#^^>v||6v{+>n8!+vrn6r>+%d8bjh%^bb",
" !4   n9,$2d>:4  0h%x+j!>t'll6>vjj#n^^|vfff+f>nd>rr8fnl%6r*:2-rb",
"*rb  45g~k'6^b  4(xd-b4n0lx+#8vfvf^:b*:rfl{l6lv+h8r:n|vtln*!*+{^",
"b#^!4*d95hlv8j  !dxd#j:t-t{b*#+vv>vvn:rb:>-d{>ln|6bn:r6[p|b!! rr",
"j>fb8nf%'06+84  !lpv#*-0f!bj>|vl-{{t[{>:b:|0+nv-r*b:vrn{0(:j!4!l",
"r#+>h(+tdl>6^   !['f*^-dr!:^+vnrr*#v{--|#r8{0-vf+!j:8+rn6({!!4 *",
"r:t+99l%||^v8  4*d0|jvd'rn86|^bnv|8j^6+-+:*ndd+8[^!:8>vbfdt8!!  ",
"brvrkw00nfn|j   #t'0j{-0#rv>r^v-+{{frrl6{8b!fdv^|6!*^^vn^-tl*4 4",
"!86p81.p68n|:   r[p>*d[|r4+#|+f88:{->4+[ln8b>6l|^|b:vnv+>6-[n!  ",
"48#/l~90%^#>:   2l5|:000n*l>8f^v||#>+#b'|+8*n6{{^fn*nfnfvnvl|^! ",
" bbd[{=[[v8nb!  .6'vj-h{r:0+n^f>n8+!+^j[-{^*>{(6{#b^>v|++-+6#^8 ",
"  *d'|(%ld##r!  -l't46x%+j-#n>n8>|n^l|j{[{n*|+'6lb:8n>6l+[6-l8#!",
"  *n6>t0dd:b#!  #'%pb8(x(!--*{n|l^6|v|4ft{r*r>pllr#rf8vnv66-[|rb",
"  4#+n2~%hnb8j   t{0^ 62'|nlv^vtv+-!n>!fd^#j:v[t+#^bn^>>{>fv6'f8",
"   r+{%shtlrr:   #>0d!jt2d:+pht-[v4:|r!f{n6j8+t%{##*b8f|v-n##0[n",
"   4:l^0%+[rbr    fdp> :0h-+n{l|4j#6d*j|+>n*>+-%{^*jj8|{|->nr*+8",
"    !fn^^|-+r#*   b'-%| j|d0%6^fvd{h^4f|6^!!>+-[-#!::n>6v+{f|#8>",
"  j4!:vn^r8%#:r4   ^---#  4f%[dtlx-d!n%vnr4*-{d[-bj^:8{{>d-fvf:l",
"! 4j4 *r-6*v-^8b    ^-[[8j  #|b:  b!#%-f#44^6|[-|:*^^8>{^vd|^n#v",
"r  !   r8[vr>^bb*   4tc5d|8!4    !!8t%8n#4!-l|[vf:b:brn6^+{6f8>l",
"-! 4:: jf:+l^f#:#!!!4!h$h6f>#r:b::>-t6>#j:|({6%v^r:jjff+>n>-f^-+",
"n|b !|j4*{8(0nv8r* jrb*{-l{|v>>+|>66>^rj*fp-ftl+#*#brnl6f8^tv|'d",
":vd> j*j:*|nl-v6#jj j#f%=k.%%p+nf-^b*:jb+.'|{d|+#::r8nt{6>n[{ftt",
"b8b884!rrnjnn6-6l|b:4 *^d++vt-8v8#:j4!#[phv60|d8r8*bf>0-tdf6{n6l",
"nb4 8{  jrn!#n+tt%tf#j!  j*#:#44*j!!4|00(-f[{v|bfbr8|f0[[dfn6{%v",
"|8b44#{  jr#4^f|%(0%l#n8n4   4r#bj!#+dt%6>-[|nr8r4#v|ltd[{n|-vh%",
"0>*4  8vj4!:**n6fd%'h0d+>r*:bj*j:fv{[t%d>-{v8rrb!:ff%%+6-v8l->6v",
"pdnb*  b8r:4jb#8ld+d[xxhp[6||vv|{+-pdd-{d6>#n:r:*f++2(>vvrrnl[.6",
"tllfrb! 4 :j !rf>6{f:#>vdd{ffn|+d%%%%6%ln|#v:j*b:v+{xt|l{8b#{t[8",
"~'dt{^bj4jj 4:8*bnv>^8v6fff|6ldddf{{d[|6^#f#*jj!8+-{hld(l>r#fl2#",
"[{|+t-f8:44*448nn:8f88r|+66[-|nr>n8ff6{8#fb#^*!48dd2v+--^n>{l>v:",
"l+|v|>{%68! 4jjjjn8nvv8:r#>fn|++^#n>#rj8n!b*4*^8|%p%6>{^j8|>l6^b",
">vf||ll%[d|* 4j:b* 4r8^n^f|>8f+dt6#*4b#b44!j^+vff[-6+f6^#^>|vvbb",
"f^n>n+f|v>++n^*44 *j*!!   4j!>||f* brb444 jn6n^+dl[6{||8^r^l#bbb",
":8>f>8f||6l[dtd+>b8nn4j4!!!!    4!j:!!  :ld{>vl([+{l6[^r^r:8*bnb",
"n>nv|f|vv{v>v[0[|^#!44 4    44!:jb:j  !+l%{f[0'tvf|lpt^:8br+**#8",
"{6{++{{{-+{(-+tppp|nb*^>rjj4bb4**b!j*nf>vfn%2x'[l-6l0-#:#njb**:b",
"'(t|6d2{t%0(p0t%p'~([nr:!44*r:44jr{+6d-fnn0ph0-{-|{'lrjb++bjjbbb",
"(0(%(0d+(p(~x.0666{d(p'lfff>fn|6v|{-{{v^>l0xh+6-066[vbjr>>j!jj8^",
":n602%6['h5'.'(x~255.=c.'pxplllt(0-+|>6|d(([tt(0+v++>::rbr**bbbn",
"j*rnl[lt%(-vv+6{0'(0pp.5x0%'0t+|ld{f+{++0(.'(%l[[lfn|rb*4 8v#b:*",
"!!::>{6+#88#{t|+6{d{-0h((p[dd-lv+{++v6vtp0'0-{l6%l+8^**j 4^|::#*",
"j!j8n>+>^b:^-(p6[t-%%{l%66++dddv6{>#f+d(.%t%{%[[%f8:b:bj4j#>jjj4"};
