/* XPM */
static char * 14_xpm[] = {
"64 64 63 1",
" 	c #040204",
".	c #848284",
"+	c #444244",
"@	c #C4C2C4",
"#	c #242224",
"$	c #A4A2A4",
"%	c #646264",
"&	c #E4E2E4",
"*	c #141214",
"=	c #949294",
"-	c #545254",
";	c #D4D2D4",
">	c #343234",
",	c #B4B2B4",
"'	c #747274",
")	c #F4F2F4",
"!	c #0C0A0C",
"~	c #8C8A8C",
"{	c #4C4A4C",
"]	c #CCCACC",
"^	c #2C2A2C",
"/	c #ACAAAC",
"(	c #6C6A6C",
"_	c #ECEAEC",
":	c #1C1A1C",
"<	c #9C9A9C",
"[	c #5C5A5C",
"}	c #DCDADC",
"|	c #3C3A3C",
"1	c #BCBABC",
"2	c #7C7A7C",
"3	c #FCFAFC",
"4	c #040604",
"5	c #848684",
"6	c #444644",
"7	c #C4C6C4",
"8	c #242624",
"9	c #A4A6A4",
"0	c #646664",
"a	c #E4E6E4",
"b	c #141614",
"c	c #949694",
"d	c #545654",
"e	c #D4D6D4",
"f	c #343634",
"g	c #B4B6B4",
"h	c #747674",
"i	c #F4F6F4",
"j	c #0C0E0C",
"k	c #8C8E8C",
"l	c #4C4E4C",
"m	c #CCCECC",
"n	c #2C2E2C",
"o	c #ACAEAC",
"p	c #6C6E6C",
"q	c #ECEEEC",
"r	c #1C1E1C",
"s	c #9C9E9C",
"t	c #5C5E5C",
"u	c #DCDEDC",
"v	c #3C3E3C",
"w	c #BCBEBC",
"x	c #7C7E7C",
">#88^           4!44!*>6d--p5ohl{{0=kxpp[(2'[ff#8lt{-n#>>{%dhp'l",
">8r8*      !4   br8jrn6-t05''x[[([txk.xp[%=1o[^f+>h2|f{{20t~$(0-",
"^>r:       !    !>n*fdtt%00'~x+lllv{0t5(tdk$9-|h'vfdx(.w,/]/'tl(",
"f+r!          4f<{rrttt%p'x[00dvn|||fv+6+|f60+~s-{|57knc/9ct6ll.",
"n^*       4   ng]6#6[[%'~xt0,d8n:8^*!*!br:^n+>n+>>jppn  {5=o.(td",
"bj!          :'=(nl0ltxo=0-62+8b*bbb:::b:bj!j*^n^:bbpk>!{h/$%>f^",
"!j           %$>^6x-%x.ptl|8*j!!!!!*j!!!!4!!!! j8^#rl5k-8pl>fr!:",
"!!          !</rvl''5xpv|^44!!4jb:::*jj44 4!!j!!!r^n##v^48t2{:8b",
":4         4lhd|ddpp25+b!4 4*:8n>+6++v>^b*4  !!!j!j#n#|^8^t#+f#r",
":4         !df8d00(t(|j4 4:6{dt66{t(%d%d|>^:*!**b#  :##:jj+[**!^",
"b         4#6:6(%0%|nj  j#ll0p0'h%[dl[%22p[vfb*4j##j!j8nb*:^*!b#",
"!         :66^'2tp6r4  !6t-p2hxdvd{|l-[%'d[hp+:j j|-rj!:#r*r!!r8",
"         !{h|l5ht-b4  4lt(p5'%+|>lh.x(0{tt-%p(%|rjb444  !*br:4 !",
"         !xsn[(d{b4  !v%2.~(h%vvh~xx%n:r*|0d6d[06r!4!j   !#:b!44",
"         jx0+0pdn!  4fth~5(-(.prbfv*44j!j#(tl%2~2%n*bb4   br8b4 ",
"        !^6>-%([!   |0h~~%|f-%dbb:n|rj4  !{k=pt(~5d#*j4j  *n(v* ",
"       !#-|{%[t|   bt(=h%v{8#r:!!:fnnr:br*4|0k~0>-(h+b!4!  ^-|84",
"       :ltnt0l+:   v'x<p.08r*44jj*#v>rr^bb8::^6%l|{['{:4b!4*lnrj",
"       >52>(tv84  >p.~'cvr*8jj*#|v+vfnrj! j*b{td-v%vvd|j4::4rr^*",
"      :(o5d'-n!   %p5'dvjjrj>l{{l-{+{6++|^j4:*j-%:{p%+{nj4rrbjbr",
"     48sg=00v#4  8'0cp|j!!8dtd6^#nnfv{v|n+v^b**bd2>dd%{v#!!r6rjr",
"!4   j6]s$%l8b4  %'pxtb!*vh[v{>:8r^nv>|6+6|^n:b#:8-{8{dd6bj*20^*",
"!!   8og2=dvnj  4(xd%#!*d[00l6v-bjb^^8n+vf|+nfb{-rr|8n>%0|r*^.l#",
"8844!r<<pp{f8   !dx[8j!ld-.>r*>vv+>r:*br8++v6+l:t6b#:v>+tl8*jb+l",
"^>bb##l''{{|r   *-'+8*vp{+rb:^|6vvv6f#b:j86[dvv{82n:#:fvtd>b!! *",
"^+^d'|t{[fv|#   *%p>*8d[^4:j|||{-{+t[-vr:*>-l+>l>8fbn#b6dh6b!!4*",
"rld~o%0f|>n|: 44:[(nj|d0:brf+|^:b*bf+d[v88bv(6||-r!b:vr^6t'8!!! ",
"r|fpm5t6nvnn!  !f%x+*l-h8>n+f8:f6+nbrv6d+8*#6[[>|{4jr86:^+%dj!! ",
"##l*/$l'^nnf!  !nt(>:t6{*j6n:>+lv6-vr*66l>r*^06f8d:4r8ffb|[%f!4 ",
"^rofp1d2>88nj  8'%x#^(dd#*6^|+>^^rvdfb>[{v8jbv{v86|4:n>v^nl[db! ",
"#b(.f=p[6n#^*  b5d2^f0'lr#-8^>>|||^^68!p66^rrfd6>>n*8v#+v>6{[|b4",
"jb+{f0plt>b^j  4[[h8b%2vr^'^>8f>n8+jv>b-d6^rjf[|68v:#n|>fvn66r>b",
" *|.>-(-t>*8j   p{h-4d~0f#-bnnn8>v8n{+*{[d>:4lp-[8##^>6>6{-+ln>8",
" !##fp~(2|b#:   l[%l4n'.-j[-*ln|ln|6|6!>d[^*4{%d-^::n^6f-6[+dd:r",
" 4rlv[s.d[8b#   4vtt:4dxh#|{+^+%+|[!^fjnd+8*4fdtdn^:^^ff||6{-d-^",
"  j#l82'+%8br4   86'v b(p6:-p'dl[+!bf^!f-^>!!66tl>n*n8n||6nf>v~6",
"   *6>nf|-6rrb   !d%d^ ^ppdnfldv:!r+db!f6>6!#+-p-^8jb8n|fdvn#:nl",
"   4r6###^%r:r4   |'t[r *|[pd>r^n+v(f48|6>8jn+{0l>bjj#86+6{f>#bf",
" j4!4#^ln*6d88b    ^vtv*  *-t[td0kt%b#dv|^4jf+lt-n!*:#^{+|{6f6n8",
"  j  !bf0|rvn::!   !-%0+:4 *v+8>*!rj:d[v8!4bd{-[dr!^br|->n%{f>>r",
"  !4  :8nvn^f:br44  #c<'v>*4     4!rlp8^#44>+|d-+b*^*f^lf8d{|^8n",
"4 4:^  >6>2+f>b8j!jj >9x[>>^r:b:*:8d%6n>j!rt{|t+fb::b886|8d6+n^{",
"84 4|*!4n>|(v+|**44:8b+--{||^#r>^f{d+v#*jr-%6l%vnr:b!n^+|^>v[>fp",
"{[8 !**8!>>fd+6|j*44b>lkk5pd0d6f6{f8#bbb:tplf%{vr*rbrn{{+^8f0|+p",
"#>|844:b>jrnf-d--rrb !:-{{v%'f|v>#*!jb*n05tfdl|+#:::8^--{v^ftvn-",
"!  8{  jb>!*>f[0%({rb:  !b^#8bj*bbj 4#lphtf-%|d#:#bbfn[[-0+fl{6d",
"#b!!nl  !:#!#v>[p(%-^^8n     :!j*4!!|00([|+tv+f*|bb#|>t%-t{^>llh",
"n*4  8+j4!bb*rl|l['2p[+>#jr*j*#b*#f6l%0l|f%+v^##r!^||6t-[d|#d6f[",
"{8*!  :^#r4jrn8dd6--2xh(d+n8^n^66+d(t[d|{l6f#:#b4:^|[06v-vn:l{|%",
"d+8:*  4 rj4!:>>66>:#f+ttl++vv|v6((lt-{[l|8^8:rb:|v+'h>|6^r:^lxh",
"0dl|rb! j! 4r^*bfvn^^+|nn>ff6{-(t-0t+[[^vrffjr*bbv+{.0f{d+rb^+[%",
"(-[%6^r*4!j4!n>nb^f#8n{ll-td6{|^^f+d[|+|r>>*j!j!n{-{hd-%%v^8||60",
"6f|{lv|^:4 4j!**f#>|f:*:r#^^#8|fn#n^vl^#>8rn:j4!nddx|+-{|:fnd{f#",
"{|vn|{h%l>! 4j:*! b>>ff>v{+fv6>8^n>rbj#n:j:j!b:#+%p0{|++::^fvvd8",
"nn||l{+-{{f*j4!! 4**4  44!j*6-0(6r!4b#b! !!j>l>f|[d+{vff88nn{#r*",
"^>n^f>fv||--d6^:j^^n!b44!j!44!j! 4:r*44! 4*6|n86dl[66{+>#^:8+r:r",
"8>v>8fvf+l{l[[l+^#44   44     !jj*:!!4 4+6t|^6l([++ll-lr^8b#8j:^",
"f>vv+v+6-++|{(2-frj4*:*!44 *b!:*r:!  4^-[d+|%0'%+|vv[2lr#r*n|!*r",
"{l++ldll{+('llt'5h[|b8frj*44!4*jjj:bn||>68|ph.'d[v[{%->*rn>j**bb",
"h0v{{h-d((00p00t['0(-|nbj!*^#!!:b{+{6t+>n|pp20d+[6vd(nbjr{|*jj*b",
"[(0.'%60''5~khl{ld0(25'{6l{v>+6{v6{[+vf8v-0x26{-%d|l-8**#f8!j*j8",
"#fdp%{lph.p''0'~.xx.~c=5'h.%d-d0'[6|>>{|tppdt[p0[++||8brr!#*bb*b",
"j:8|ddd%dtvfv+v-0h%(('~2'%0(0{||d{+|+l+v00.'p%d-dtvnf>bb*  >vr::",
"!brn{+v8#^r+tl>6vl{ld(h0ppd--d{++{+v++|['p0'l{-+[t{>##j*j !>fbr#"};
