/* XPM */
static char * 15_xpm[] = {
"64 64 63 1",
" 	c #040204",
".	c #848284",
"+	c #444244",
"@	c #C4C2C4",
"#	c #242224",
"$	c #A4A2A4",
"%	c #646264",
"&	c #E4E2E4",
"*	c #141214",
"=	c #949294",
"-	c #545254",
";	c #D4D2D4",
">	c #343234",
",	c #B4B2B4",
"'	c #747274",
")	c #F4F2F4",
"!	c #0C0A0C",
"~	c #8C8A8C",
"{	c #4C4A4C",
"]	c #CCCACC",
"^	c #2C2A2C",
"/	c #ACAAAC",
"(	c #6C6A6C",
"_	c #ECEAEC",
":	c #1C1A1C",
"<	c #9C9A9C",
"[	c #5C5A5C",
"}	c #DCDADC",
"|	c #3C3A3C",
"1	c #BCBABC",
"2	c #7C7A7C",
"3	c #FCFAFC",
"4	c #040604",
"5	c #848684",
"6	c #444644",
"7	c #C4C6C4",
"8	c #242624",
"9	c #A4A6A4",
"0	c #646664",
"a	c #E4E6E4",
"b	c #141614",
"c	c #949694",
"d	c #545654",
"e	c #D4D6D4",
"f	c #343634",
"g	c #B4B6B4",
"h	c #747674",
"i	c #F4F6F4",
"j	c #0C0E0C",
"k	c #8C8E8C",
"l	c #4C4E4C",
"m	c #CCCECC",
"n	c #2C2E2C",
"o	c #ACAEAC",
"p	c #6C6E6C",
"q	c #ECEEEC",
"r	c #1C1E1C",
"s	c #9C9E9C",
"t	c #5C5E5C",
"u	c #DCDEDC",
"v	c #3C3E3C",
"w	c #BCBEBC",
"x	c #7C7E7C",
"8r8r      4!   !:^4jrf+dt0~''.dt0t[x~22%%[29,hnn>f6=p>f|d(d[c=(0",
">r:4      !     r+j:vt[%%0%p5k-ld[l{2p.5dt5gg.nl~6|+[p%=/9$@sht-",
"+#*           !-[8*8%[%tppx(ttt{>n^>f|6--l|+'l(92v6t<7[.w1o$[v|l",
"fb!      4   jt],^r6t[tpx5'-sc|^n^||#:^:##8>v6>+{>f|=.* b05=<pht",
"jj           fco[^l0l['9/p[{0h|^b*bjj**b*::b#n^nnr**v0d4#0~1/(f6",
"j4          *5=bn6.-[h..tt6>#bj!jj!*b:**j:!!44 *^^#:>~otvvh%v^r!",
"!4          n@x#vl'p5..{+f#44!j4!*:bbj!44 4!!!j 4rn^8rvdn4[d'6*:",
"!          4[=+|d-'02~0#*j  4j*:#r^>nn8b!4  44jj!j*#>8#+*8+(v6fn",
"!         4j'#8[0%pt(-r!  4b|+{d++666{6v>#:*4  4!4j4b8#n*j!t{rb*",
"          !f|:6p0%pv|b4  *#--t(-t'phh0%p'%6>#bj**rr4 *r^rj!>r*!j",
"         !#l|nhxtpd#j4 4bl[{p2'.'{{66v{d(2'0l+r*4!#nr*jrnr:rr4br",
"         :dh^l52[tr!  4*d[0(5'pd|+-vvd('%(-l''{#j *|l:!!!bbb#* :",
"         rs5n[0d{8!   :-0x5~'0l||(~=<c[-6dt-%(((|#j*444  4*:b*44",
"         #=l60pd|!   :6(x52'p.'0n+[%[^b*:*>0[6-[t+r!4!j   j8r:!4",
"       4b>+ndt(0*   j%%2~c-vn%5lr!8^j  *4jr0[{th~2t^bbb4   b8{#4",
"       j>->-t[[+    -txc'd+6r>n8*b#v|#*4  !-kk(['=.{:*j4j  b|0v*",
"      48t[800{+r   8%x~x'pt#8:*  !bf+v#:brb!+xc.[f0'(>*!4!4 >{^#",
"      j-kp>'d|8!  j0x5kh~f#**!4!jj*:#r*rnbb8:jf((-v-p'|*4b44#+^r",
"     4+.o2tpl^!   {hxx%0fjbnjbn>6l--6v>:! 4jb:ll[{+d+-%n!!::!j:^",
"     jh9,kt%f#4  *'0~x-8!!!r6[-lv++fv+6++>b4!rbvtl#[0l6{84!r#:jj",
"     #cw$<[{8*4  dh'2h^!4*+'d-l#8^>>f+{||f{|r!*j:2t^t({+>r!!8l>*",
"!   45o<25lfn4  40h0p>*4^-p%{dv:rbrnf|f++6|>88*:b#%-{|0[l|j!:.%>",
"*4 4*0/k(%{n#   4d.[fb4^t-0'68|->::b^^^|6f6|f^^j6nr|{:f6%[^rj>5+",
"n*jbr|%'(+{fb   *-h6^*r%-dpb*b8++vf^::j:8>+>|6v#vdr#8^nnd%6:*j*v",
">:n[v{[-l^v|*   :%pfb:l0vjj*#nf{+lv++nbrbr|dd{6d#%d*8b+f+tl^*!! ",
"6>%9'{0fv^vn! 448tp^j>d[84:*v||66+v-td6#:b#|[-||{:'^:^*>6%0nb!j ",
"v0t;$l0nf>f:4  bv02^*{-hr##+vf8bbb*^v-[6^r:ntlvf->r^*>8b6-'[b!!4",
"86b$gdxf8^|#   *|(pn:[6p#nf+>8#|{6|rj|+-{fr#v(l+|l*!br+##6['f4!!",
"jx:d7p26^#>r   0{p0bf(v|jj68#f+{fvd6#jv6-vrb^ldd8lv4*r^6:#6t[:!4",
"b$=f<.d-frnb!  2t'p*+'[%:#6>f+nn>#>d|^*t6{8*!|tv^>l*!#8vn:+[0vj!",
"r{{>02ldl:8b!  {l0%*fppnr>-rn>>|||nr6>!t-{^8b>66fnlb!8^fv8>l-t8*",
":n=v{0d[6*:r!  >%02b^ph6:fpbf8>>^^+b>>#+%+>8*n{-+^f8j^v^+v||{->n",
"jn^>%5'2-::84   2lpn!%.'8>{b>nn8f+rn|{:|%df#4fll{n>>bn>nf|vfl|:|",
"!#v|-s~l0nb#!   660f f2x|b[-bln|ln>{>-bnd-6b4{d(6l#b^f>+vvdl+dvj",
" r|%>~x{t>:rj   *>0[!*t.'b+6+8+06ftjn|j8t-f*4|l06{bb8nn{vldl6d[|",
" 4rvff+|-{:::   4vt(8 #((|:[ppl{d{j*n>!>->8*4^6(-+##rf^v^v|6l6t5",
"  !8fbr^>t#br4   n'tt# |'0d#v[[+^!bf+rj>ln+!j6|tdv^br>8ff{|>^8#[",
"  4bv>+#*{d88b    -+[6! :+%(lr*:r>ftl!*|6f+!r66pdf#bb#nf||t>^8b#",
"j4! b*{%8r6nr#4   !+{t>!  rt[tt-pk((r!vf6n:j^660l|:jj*8v6|d|>fn:",
" j   r:6+8^>b*:4   n.p[n*  f6n|vf8n:b6t+>:4!|+{%l|jj:bnv{v+-|v+^",
" !44 j|b+(^|^b8!!! 4%o5-v84      j!*|'|f84 :[{d[[8j8::nl+>-[6>^n",
" 4:>  bl8%pn+^bb jr!j.50|>n#bj!j**:-(6#^b4!|v|[d6b*^*n^+68|[vv^>",
"   fbj!bv^{-v6#j! *88{%-{v>^:::#rfl%lv^84*|t6ftv>bbrbn#|{8+6-vn>",
"v* 4bbn::>^6-6l8:* j8|.kkhdtd{{f+66ff8*bj^%t|dd+nrbb!r^|vnn>dd>{",
"-{^ 4:j>r*nnl%d0|rr 4*6{6+t.ln+|{#:brb!:|ht66%6|rbr*bnvl+f^#60>f",
"r 86  jbf:!|n-(%0d#r^  !bn#^r#r8::!4**8d.2+|[++v::r:886[6{|^|[v|",
"!4:v|  4b:j86>-('0d>rn>  4  :!jj!!448{p''|+0{v-#:rb:fn{0{0tv^|+d",
":! 4+vj44**j:{fvd'.'t+nr*#:!*rbb4!:vt00t{fd[|{8bv*jr|>-p-tlv^{l+",
"b!  4nn#r4!r>^[d{6{22h0-fr*!j*:>|+{-0(dv^d[vf^#^r!n>|v[[ddln#%+|",
"fbb4    #j4j:f>6v^:#f{%tl++66v{6+t'[dd+v-lvn#b8b4:8v-06v6{^#:66p",
"l|r:j 4!! !r^bb|>^^n+n^n>>ff|+dt0t6%-l[-|>#n:r:jrvvvp.ff+68:rf{'",
"[t-^:*!!j*4jf>^b>>8#+l---dl-dd[+{0[vtt^|>#vrbr:bb+6{2'v+t-vrr^vp",
"v+t[|8#j  !!4*#f#n|n**b#n+v>#rnn>vdd>v+#8|8!jjj*f{-l'06t(6n>#d|+",
"fvvv|l+nb  !*j44!nv|f>>v{|>v6+n88^#vl^#n>:#^b! *>--x|66-|bbv^df+",
"vv>6l(([{#44!bbj4*!!!b::#:8>v+{|^nr*j#^8!r:4!*j#60p({6>{fr#>^{66",
"^>f+6|{+v6fn8*44n88**  4jjbv6[dnb4j:#bj44!!bnd>||[tvl{>|n8#^flb*",
">nn>>>fv+-ttt{|#::: !4j!!!   4  !r:*4 4  j^{v^86d-dd6+d|^^8b8^br",
"nv|^>v>|6+vl[d+^8j4!44      4bjj*:!!4 48l-lf^6lpt+vv-[d|*nr*^8jr",
"f++6+6{d6{6vl.(0+n:*^>#jj4b:!bbrr4  4bl-%lvv00'06+v+6('f*#rbf8!b",
"lvv+0-l-+%2t-l0x5xd>b8!!j4j!j!!4jrr^fv>v+8+'h.2-tfdl%t|r*#v^j**b",
"p6{l0[{(p0[pp(td-[%0-l^r:rnn**8r+{{6tdfnn6ppx%[v-t++0d:*b8{n!jj*",
"005h0{thh2ck.[lddp'h~k%-t06|{+l{v{dl6|f^vd0hx-{dt[|+-6:j:8f:!j*j",
"nl(0-+p'xx%'%px~2xx.k==5'2h[t-t0'-vf>f{|[p'[tt(0%66v|f#:rb4#bbbb",
":#n-d-%{t|f|v|+['p[((2.2(t00[6fvdlvv6l+v%%2hp(d{-t{|^|#bb! 4||:r"};
