/* XPM */
static char * 16_xpm[] = {
"64 64 63 1",
" 	c #040204",
".	c #848284",
"+	c #444244",
"@	c #C4C2C4",
"#	c #242224",
"$	c #A4A2A4",
"%	c #646264",
"&	c #E4E2E4",
"*	c #141214",
"=	c #949294",
"-	c #545254",
";	c #D4D2D4",
">	c #343234",
",	c #B4B2B4",
"'	c #747274",
")	c #F4F2F4",
"!	c #0C0A0C",
"~	c #8C8A8C",
"{	c #4C4A4C",
"]	c #CCCACC",
"^	c #2C2A2C",
"/	c #ACAAAC",
"(	c #6C6A6C",
"_	c #ECEAEC",
":	c #1C1A1C",
"<	c #9C9A9C",
"[	c #5C5A5C",
"}	c #DCDADC",
"|	c #3C3A3C",
"1	c #BCBABC",
"2	c #7C7A7C",
"3	c #FCFAFC",
"4	c #040604",
"5	c #848684",
"6	c #444644",
"7	c #C4C6C4",
"8	c #242624",
"9	c #A4A6A4",
"0	c #646664",
"a	c #E4E6E4",
"b	c #141614",
"c	c #949694",
"d	c #545654",
"e	c #D4D6D4",
"f	c #343634",
"g	c #B4B6B4",
"h	c #747674",
"i	c #F4F6F4",
"j	c #0C0E0C",
"k	c #8C8E8C",
"l	c #4C4E4C",
"m	c #CCCECC",
"n	c #2C2E2C",
"o	c #ACAEAC",
"p	c #6C6E6C",
"q	c #ECEEEC",
"r	c #1C1E1C",
"s	c #9C9E9C",
"t	c #5C5E5C",
"u	c #DCDEDC",
"v	c #3C3E3C",
"w	c #BCBEBC",
"x	c #7C7E7C",
"rr!      44    !>vb#6tt%%0%(5=tld%d{h2xktdhww/+>2h|fltt(k$<$,<2t",
"8b            j{^r*|%[%%p(x't%[-|888>v6[[dv+(p{<=-+v2o,6o]1g9-f>",
"r!       4   bke'8r-%[t(h52[h/%>>n|+|8^>8^^>vlf{(>6rxs'j!fx~=.p'",
"j           jdw/>^-%l[(c,.%--=d>^j*b!j!4!brr8f^>n^:*:l+v +2kwg(6",
"4           {<[rf{5l[p.~(%d+f8r*j**jbbrbrb:jj44b8n8:b%ok88d(hd^r",
"!          45wn^+lh0.55%++fb44!j44!jj*j!4!!4!!j4 bn^8882tnn(-t+!",
"           b5s#+d-'%2..vbjj  4!!jb:#r:bj44444!!j44*#nn#ffb:6x-+8",
"          4d(b>d0t'%[0fj4  4bnf|vvv6{6+v^rj4  4jjjj**^#8fbb8[f^n",
"         4*68r{((t'l|^j   *#-dd0[6llt%%-l+n##j44!4:* !#r#bj!-:j!",
"         !^[8fh.%ptnb4  4rld6%2p2xh%%%d[0.htv8:***b:j !:n8bb8r!:",
"        4n%pr-52[%nj4  48[t%(5p2p6v[lvfl-th''t-^*44r|vbjjrrb:r4 ",
"        4{g0n[0d6>j   4^t0x552plv|>+dth'h%%l{02-^* jf|j4  !*brj ",
"        4{<|{%'[{!4  4^-p.5xhh.t{vh=cs~-66ltdt0p'+8!j444   b#:b ",
"       4:|+>dt0(^4   f0ph~<d+|t5[br66>8**:b80%{-[d+r!4!*   !rr#j",
"      4*vln[t[-{4   8%0~=pl++8[(vb*brj  * j*[dvdpkxt^bbb44  #|(n",
"      b>%l8(0{v#   jlhx=%h%l#8rrb!b#6v8b4  4l~5%thcx6b*j4j  *+lf",
"      ^p~%|'d|#4   dp5k.='+8b*444!j*>6+8rbrb!+=s2[62ht^j!4j4 ++^",
"     jd9<h0p{8j   82'5'%p8jbnjj!*b::*!!jr^bb8b4{.hl+d2pn*4:!j*n8",
"    48<,s5[tn#4  40('=%|r!j:j^{+6[d[[{+>b! !*b:6n[{f-6%%84!r:j!b",
"    *|ms$k[+8j4  f.hp5lb!!*|[%-lfnfn^v+6v|8! j:rt[dv%lf{{r !r#rj",
"    |cw25p{nn    ['hp-:4!ndxl+{|r8n>ff6{|+vlnj*bjv(#vp(v6nb!!f%{",
"   !|g<hpl6nr   4l.%v#!*60[(d-l8+:b8>|f|6v+n|8:**bd.^[[(l6^j4r5(",
"!44b#d'p[v6n*   *lh{n*j+[d'(fbr+|nfr#n8n++|l|^>b:::n[+^-[[lrrj8h",
":*^vft{dv^+f! 4 :%pfr*|pd|vb*b#++f>n#:bb8>vf>+nf!-6r#{r>f(0vb*j4",
"8>.26p>|f^vr4 4!^%pnj^d[f!**8fv6ld{+{>#*rbn{6+{{ff[^#r^fn6[{^*!!",
"+dw,t(|^v^|j   :+('#*+[(^jrr+v||f||6%[{>b::>d[{v-8t(j8j||+t-^*!j",
"':,w't0^^8|b   b{p'8:[l2#f^{vfrbbr*:|{[d>:b#+d{>+{:08:n!^-thfb!!",
"-!67=['n88nb   plhljf0fdbbv|^#8vl{v#!>+llf^*f0l||-^:#*f8b+lpp:!!",
"sl8cs-t+^#^*   k+~-4{hvl**6#n|66n|d6^*f6l6^br6%-v|{!!br+8rv-({j4",
"2cdt5d-[8b^j   %lp6!62(lbf6>>+8ff88d+f!d+-n:*n%l6^tr4br>6b#{[tnj",
"nt>60[--:b8!   0l'[4+h[>r6db>>>f||>:6f!v%lf8jj{l|8+f!j88v8#+[%-:",
"^~{-'h0p8b8j   %t00!|hh-*6%*f8f>^n+r^|r8'vv^:nnl+^v6!*n#|+8v-{[>",
"n8v+s=lp|:rb   b-%d**%xhbv+:>^n8f+:n^l#r066^j^>[6|n>br|n|v|fn{vb",
"#{lfkk[t6r:b    ^d%# 62'n8[l:lnfl>^-8d#r%lln*^+%v{8+::n|^fv6vl{^",
"b#ln[lv{-:b#    ^6'+4r0.%*{{|^606n%r8+!b[-{#!v6hl[r##8f+flv[{+t-",
"4rf{*nnft^:#!   *t%-r +(%^r0pp+{-l*j^|j8d{n*!^|p6-:brn86v-+t+-l0",
" 4:6^>bb+t8rr4   tt%dj l(%l#{t%6>*j^|8!fd^^j!^f'll:^:>^f|>||v+f|",
" !!8#ld:#-nr8!   4|{[n  r{00vj4!b^n[d*!|{>l!j+ftt+r^b>r>|>->>#rb",
"44 !:8[{#8>b*:    ^[[dr  4+t%%tl(h%0r!^f6ff!r6+p[+r#*88>|>dl>nn#",
"b   :8r66^f8b#!44 4'=p6#! !+l^{>t-dn:ndvv8!!86+0lv#*j*8n6+v-+fv6",
"44444|6nx->|r#b4jj #$c(+fj4      b*!>(+v>!!!++l0{+bj:bn8l+fd-f>n",
"4b> 4 >>n0v++*j44:r4-x(6>>8bj  4!4b60df#:44^t6d[[^j#:b^+{>nt-|f#",
" 4frjb!f>|d+6fjb4!rnl.0ll>n:r:#:rn-0d^^n44:+vf%-{:*^b8#|-n8[6l|^",
"  !b:^^4^nvd-d6:r4 *^p5=2[d[l6+n|{-66>8jjb[[6vtv>b:#bfr>l>^6>t+>",
"6#  :j^n4#nv0%(t^r4 !#{{vd50nn>-6n^^:rb*r6(-ftl+^rb:!b^>v|8^n[t>",
":^v  jbn:4v^6((0tn#n4 4*^^8#^|8#rjjb:!bnph-|d%vfr:r**#vl6v^8^{[n",
" *{n  !b:jb6|{%pp[+r>f4 4  !4!***! 4*^d'5tf6d|{>bb#:88ft{{-vf>d+",
"j4jdf44!j**r6+|dp52%6^:b#:j::bb!!44>[0''dfl0+{+#::b:>^|(l-(df8vl",
"4  !vf^:4!rfvt-{v+p2h0lnb!4j*bjbn|6[%0[l>6%6vlr:|*!rv>6p[-%6n>t|",
"*j   * ^*4j*8>{v8:8>l0tl++6|f{{66-[(([v^606vf#rn:j^nv|-tl[l|8#[v",
"8:b  4  4!#8br|^^^fv^^>>>>>||v6t'(ldd{|[l+|8r8r*4:8+6(l+|l>rrrv6",
"l|rb! !*j bvf8:f>88{--l{{{-{[(%dt[06[[-+f#88:r:!#+|v%~{|vl{nbrfv",
"[%6^:b44!!44b^frnf#jjrn{d{v+>^^6---td^>v:|f*r::*bv6{pxdvd({f8#ff",
"f{[+f^r!  j*!44:|+v>^^>fn88>f|^8f{6n668#f>*j!j*r|6l-d2+[dd88|#(f",
"vff>[0{>*444r:*4*jj:8nfvn|++nr8nnrv{r#^fb:>rj4 :f--xd6|6{^*r|^{>",
"|f{--[[d|:4!   bj*j!  4!j#{[p068#b!b#8^!*r*!jjj#{0p0d+v>{n#^f^66",
">>f6f+v>66+6>r:8fn!j4j!j!4!jr>*4 j#r*j44!!j#|l>||[%v+l{>|8^r8v6b",
"fnn^ffv6lt[%[l>8!    4        4*rb*! 44 4j|l>^8{d--tl+6dn#n#*^rj",
"|vn>vff6+>v[([>#*4jbj4 4 !j4rjj*r*44  !{6t6>n{l(t6fv+-0d^b^:*v#!",
"6+666{dl6d{v%2p'6f:#f>jb4j:4b*:#4   j|-d[{f6(0''-{v6|l't8br#bnb!",
"v|vptlt{th't--'2='[8**!44r*b4!4!#8^|+v^6f8{hhx.[--f[lpl8*bn6#j**",
"ll-[[+t'00(hp0-l{{%0%l^n8nf#:nn^[+l6%lf^^{p(.(d66t[|-0fbj:f6r!j*",
"%~x(d-hhhc~k(l%t0x2.c~%tp0{vl{-{+{[6+f|^+d0(.t6[t[6f{l>b*#8f*!j*",
"6%0d|p'h5dpt%h~5hhx5~kc.(2'%%-%0h{|f>|l|d'h0t%%(t[66fv>rrrj!#br:"};
