/* XPM */
static char * 17_xpm[] = {
"64 64 63 1",
" 	c #040204",
".	c #848284",
"+	c #444244",
"@	c #C4C2C4",
"#	c #242224",
"$	c #A4A2A4",
"%	c #646264",
"&	c #E4E2E4",
"*	c #141214",
"=	c #949294",
"-	c #545254",
";	c #D4D2D4",
">	c #343234",
",	c #B4B2B4",
"'	c #747274",
")	c #F4F2F4",
"!	c #0C0A0C",
"~	c #8C8A8C",
"{	c #4C4A4C",
"]	c #CCCACC",
"^	c #2C2A2C",
"/	c #ACAAAC",
"(	c #6C6A6C",
"_	c #ECEAEC",
":	c #1C1A1C",
"<	c #9C9A9C",
"[	c #5C5A5C",
"}	c #DCDADC",
"|	c #3C3A3C",
"1	c #BCBABC",
"2	c #7C7A7C",
"3	c #FCFAFC",
"4	c #040604",
"5	c #848684",
"6	c #444644",
"7	c #C4C6C4",
"8	c #242624",
"9	c #A4A6A4",
"0	c #646664",
"a	c #E4E6E4",
"b	c #141614",
"c	c #949694",
"d	c #545654",
"e	c #D4D6D4",
"f	c #343634",
"g	c #B4B6B4",
"h	c #747674",
"i	c #F4F6F4",
"j	c #0C0E0C",
"k	c #8C8E8C",
"l	c #4C4E4C",
"m	c #CCCECC",
"n	c #2C2E2C",
"o	c #ACAEAC",
"p	c #6C6E6C",
"q	c #ECEEEC",
"r	c #1C1E1C",
"s	c #9C9E9C",
"t	c #5C5E5C",
"u	c #DCDEDC",
"v	c #3C3E3C",
"w	c #BCBEBC",
"x	c #7C7E7C",
":            4#fbbbl[%t%p(x'%0--+###n|+t[[6|dk{p<'v6lk1k(;]ww9{v",
"j       4   !dg1frnt%dt('5xt[$.6f>f+{n8v>nn>|-+lp%n6><,+4j[~k.pp",
"4       4   ^=;.8^t[-[(=,=0[{55vn#j:b4j44brr^>|^^n^bjv6|b4-5c@,%",
"           *0=f^f-5{[(.k2t%{v>>r***b*b:r::::*!!:8>8#brk/-jfd.5%f",
"           f1xb>6dh%x~xh66v>*4!!j4!44j*j!jbj!!44 j8^88|t~t#%%+[|",
"           -@286dl'0hh=[#b*!  4!!!*br:bj!44 4!!j! j#^n#rvn!*+5lf",
"         4*x+*v[0t'0[(l:!4  4jr8^^n^f|>n#b!4  4!j*jj*8n#fn8jlv>|",
"         !#{b8-((['tff*4   j#-[-%t6+6+666|>r*!  44! 4 r##:jjb'rj",
"        4*v-:vh.0((|r!4 448{d{-2(t(h'h2pt%[v88:j!jj^j 4*8nbjj^rj",
"        *|([:[52[tv*4   4>[t[(5p25p{+{{6[[.x(lnr**jb8r*jjr8rb#*4",
"        #2o6n%([{vj4   !f002..5p%{f+dl|6-ltph'(%f*44b6{*!4!*b:#j",
"        b2=>l0't-*4   j|tp5.520h-f|-'xx5(httd{d2[fb *>*!   4::*j",
"       !#{v|[t%p|4   jt[hh=<%l(p.0>%22.x-+6{[[t%''6^j! !4   b8rb",
"      !#{6n%t[{lj    -t'==p{||>'x6r!>6nr**:brt(-l[-+#j4!*   4r>l",
"     !r{%v>p0{v#    >%2.kdp-l8:^n#*b:#r! j j*ld|l0~.[^bbb4! 48{0",
"     j|5.{{h-|#!   >'x.chcp[8#rbj  jr6|8:!4  65.tt2k2{b*j4!  !6+",
"     80g~(((68*   j(p.x020#b*#!44j!*bf6+8rb:b!6schd05h-#j!!j4 v|",
"    jh=wk2d[^#4   -'0k'->b!b8**:88>n#*!!jr^::8*bpcx+vt.0^*4:**4:",
"   4r~7ss.-|8j   *.h%~'nj!!!#+tl-{d[t[l+^j44!br*8n%[|{l'%84!r:rb",
"   !(9/'~[+^^    +hx[p>j4j^dhd-tfn8n8^vv{v^#44j:v06tvt6|-6: !:8^",
"   j$,<(06+^:    +h'{n*4:dtp[+l+8:^>>f|{{v{v6*4r*#%-^-([+{>b4!6h",
"  !*6p2p++6^j   !lhd>*!rd[{2%6|flf*bn>vf|6|>|v#!bjbh[^t(-6|#!!:x",
"4!#8ll--n>vn  44:th|8*#%%-0dr**n||vn:8^^>6f{+f88*:b^hl{|(t-6brj*",
":+(v[-fvnn|b   !^%pfjrltlj!b!#^vv|fn^:b*rnvfv|>>r*fbrl{8|60tfb*j",
">=o(l(nn|fn!   r{(p#*|[[f!b*^|vvddl66v^*r#rv+>+|v!dl::v8>n[%68j4",
"+w]~6xn#^fn!   :lp2#:-lh>:8n6||n8n>|ttlvbb*8{d-{lv>%^#:8+n6t{^*!",
"!0@/{5f^#>#!  !'d26!>t+'#>^{f>rb:8:bf+[[vr:b>-d6|-#tpj^jn|600^b!",
"br<g%%lfr>bj  jk-k64-'>fjj6>#8^6-6+nj8v{-|rr^l[+nl+r[#:nj^dl2db!",
"~{dc0l[v:8bj  *0-'|!['d%*r+#f|6|^fd{>*#{{{|#:v(6|v-r:r*|#r|l0'>!",
"x{+0({[f*#:!  40t2>4l2[fj++fn+#||nr-{f46{-|rb^ldt^vv4*b#6#r|{%d#",
"2++tp%2fbr#4   xlh-4lx-|bd[bfnff>ffb6f*8%{6#*j606ff%j!:#|6br-[0+",
"p-f=k[p{#b#4   d+0+ 62'd!{d*|8>f8nv#8vr*h+{n:!n-v>^{: b8nv#^fd-t",
"^+|5s([-#br    ^|0{4r(50!{|rf8>8f+:n:-8j06{n#!|{lf^-^4:n^v+8+66v",
"v0nx[l6[bb#!   jf(tj d.(#v[+#lnf{f8db[^*[[lnr!>d{68>^!^+#+v|n>l+",
"8n+:v>f[vrrb   4l[0^ r'26r-ln>{0{80nrl*4-d6>b!6%6l8f>b^nfn>6l+{t",
"rr6rrbr|%#rr4   |2t[j l'[#^('0f6ll:!8vj:[[+#j#-pdd|8*8f^6fl6[{6d",
"4bln{v*#d>8^j    {+tv4 d(%v^d006|rjr|nj>-|8bj8>0--n:*nn^l>d+[+lv",
"! r*|0{:8|:j:    r6[l:  8d'd^4 4*#^d-*j>-^f*j^>pl[8^r:f^vnvf>f^r",
"! 4#*|+n^f#b#!44 !%(0+b  *t[%%dl%dt%84r|6fl4j+|[%+8nbn88ff6lnn^8",
" 4 *|jfx|ffb8*jj4 |s=%>:  n66|l+2%'f4b6|6f8j#6v't6r^*#^^||f%vf>v",
"  4 rd8-'n6fjb4!rj h/2{|8!      4r:*^tl6|* !^6v(-+8:j*#8++|{{6f|",
"b8 4 r+^6d|{8!! *^r#-0->>nrj    44b^0tv884jjl+l%{6:j*b88{6|6tl|>",
"4+#!#48>^{-6l8:* j86~~[d|>:r:::bb#-0t##^!4jft+td[n*::b8f-|>nt{+|",
" !b:#f48nfd%d0^#b !#d'=x%d[lv6>nv-t-+nf*4!^6vf0-{:j^:r:fl+8>tft|",
"4 4r*#f :fft(t(vb*4 !>{fl.h|n^+l+vfv^rb!:^(-+l-+>b:8bfr^668>ff0-",
"|:  *:^r4|>|%'(t|#>4  *^nnn8+|f8:b:rr*:!ftt{v%668rb:j:88vv>88nd%",
"4-r  !br*j+{vd(20-^f|! 4 444j*b:b!!:jbnt5%{f%%v>:rr*jb+{{v|>^>v[",
"j^[*  !jbr#+t|d%~50l^::8*!:j!!!!!44r|t05pvfd->{nbb#b##n[l6[[{f^v",
" 48{>8:4!r|+l{6n|0'h0{^*j!br#:!!jr600p'%>6%dvd>#r:b:>^>0[l[%{n>l",
"4  :n#n* j*bnlv#:8nl0tl+++f^|vv+6{-t0dlf+d[|+{:8>*!:|>|00dd[v8f%",
"b!     4!#rb8|8^^|v8^>>>>fv|v++[p0%%[6n|0dv|fr:fbjn^vf{tl{df^#r-",
"rrj 44!44:+fr:|^88-d-{vvv-6lt%(0ll[d{v[l6|n8b^rj4b86v(t+fv{>rbr6",
"-nrb!4*b! 4r>fbn>:!j8|[tl{l-lvl0%[v0[l+|88^:::b!#6||lkpnvldl^:rf",
"ttv##b4 4j*4!!866v^8#n888r:r>nf+dt[6^n+:^+rb#::jbv66[k0vdt0f>n8l",
"+{++|n:4 4j::b4!*:^^|6l|+6l+n#8nfn6{{##f|r!j!**8|6{[+pd6dlfb8v#(",
">f|d2tln! 4j!44*j!   4*j#fvvv>n>#|fj#^f#:#^:!4 rfd-(x|{>66#b8f^{",
"f6-+6-l{>brj! 8|f**44!j!r+{0%vr*!4:#8^!!rr!!*!j#60(0-l+||v888>|v",
"n>vf|v>|ll--|nbj!  4j444   44  !*8:j!4 !!!j#l+>f|l%{+{{6vf#n:#|+",
"f^8|ff6l-[[dlvn: 44       4!!!jrbjj 44  jb6{>^86d[l-dl+-l##n#*nb",
"vff|v|6+f>-0hlnr*!###!j !#!rjjb#b   44^dlt|>>{l0%l>f|{t(lr#8b*{r",
"+66{l-lvt[++pp.(dv:nf!j! 4j*j:r4   !:-{[-6f6p(h2[tv{6+['+:rr^j:*",
"|+pp{%-tp20t-0'x~(-^rb!4*8r!4!!#nnf+6|n{>8{'2hxp{-+6d%(frj:v6:j*",
"--d[+d'0'0hhpd66vl00(6>>>>f#8vn6d6llt{f88+p(xxd{v-0lv[t#*jrv|b!j",
"k.0[6'2h5c=2[t(0252ks.%02%{6l-[{+l[+v>vnv-t02(ld%0l|v{{#bb88n*jj"};
