/* XPM */
static char * 18_xpm[] = {
"64 64 63 1",
" 	c #040204",
".	c #848284",
"+	c #444244",
"@	c #C4C2C4",
"#	c #242224",
"$	c #A4A2A4",
"%	c #646264",
"&	c #E4E2E4",
"*	c #141214",
"=	c #949294",
"-	c #545254",
";	c #D4D2D4",
">	c #343234",
",	c #B4B2B4",
"'	c #747274",
")	c #F4F2F4",
"!	c #0C0A0C",
"~	c #8C8A8C",
"{	c #4C4A4C",
"]	c #CCCACC",
"^	c #2C2A2C",
"/	c #ACAAAC",
"(	c #6C6A6C",
"_	c #ECEAEC",
":	c #1C1A1C",
"<	c #9C9A9C",
"[	c #5C5A5C",
"}	c #DCDADC",
"|	c #3C3A3C",
"1	c #BCBABC",
"2	c #7C7A7C",
"3	c #FCFAFC",
"4	c #040604",
"5	c #848684",
"6	c #444644",
"7	c #C4C6C4",
"8	c #242624",
"9	c #A4A6A4",
"0	c #646664",
"a	c #E4E6E4",
"b	c #141614",
"c	c #949694",
"d	c #545654",
"e	c #D4D6D4",
"f	c #343634",
"g	c #B4B6B4",
"h	c #747674",
"i	c #F4F6F4",
"j	c #0C0E0C",
"k	c #8C8E8C",
"l	c #4C4E4C",
"m	c #CCCECC",
"n	c #2C2E2C",
"o	c #ACAEAC",
"p	c #6C6E6C",
"q	c #ECEEEC",
"r	c #1C1E1C",
"s	c #9C9E9C",
"t	c #5C5E5C",
"u	c #DCDEDC",
"v	c #3C3E3C",
"w	c #BCBEBC",
"x	c #7C7E7C",
"       4   4b.;h^bv0%d%(h5xtd<k-vff+{f^vv>>>f{lv'.f{n(99:!rhk5'0",
"       4   *dm@+8f0ldtp=,=0tlx<+>n*:rj4j4*rr^nv^n>n8*8[f84bt5s@/",
"           |=%|>|p2{[p.k.t(l+|vnr**bbb*bbb*::jj*^nnrb*v$c8*6(cc(",
"          !~/8#|l%'%xk2.l+6v#*!!!!!!!!*:bbjr!!44 jr^8rf-kx-r2-v{",
"          :,w8nlldh0hh=pf:*b4  !!44jb:b*!!444!!!j 4rnn8r^v^ :l5d",
"        44%(v:{[0['0[([^j4   4!b:rr8r88r:j444 4!!jj!jr>8r6b^8tv|",
"        4!-v*>t(([p0f|#!4  4j#ld{dd66{l66v8b4   4jj!j *8#^*jj|':",
"        !8d8rd2.%(p6r*4  4!^6-l{p(-ld-[tt-6v8r*4  4484 jr^8*!*nr",
"       !rlp^#(52[[{:!4  44ft[-%x2'..'%((t[p'[v>r:j*b:b!!jrn#r*^!",
"       b-c~>f0([l+*!   4*+(%22h5ph(v|--6|ll'h'[|8bb4*^+nj!!*:*#r",
"       jl,pnd0p%[:!    r60p~.55p0{|v|++f{t-%phpph+b4 *l^!  4!bbb",
"       *|[f+[ttp64    8(thh==pt2.%l+h=ckcpht[d{{'tvr4br44   4##:",
"     4j>-ff(td6lb    r%%2c=hd|nf(~[*rl%hh-f66[t[thh{n*4 j4   jr8",
"     j#[[>+'%6|#4   :lh2~x-%|dfrd(vb!#|*b**:b:d'dl[-+#j!b*4  j^l",
"    48[~h|tplf8!   !(p5~<'=p(888r#:*:rn>* j4j*6dv{%5.[^bb*!j  r{",
"    j6s$.%((v8j    l2h~h%k08#b*!44 4j:vn8r!   6.ht02~hl:*j4!4 4l",
"   4|ko/c%d-8r!   f2%2=%6f*!b>b*!!jj**|{68:b:j!l$k(-h=2{#j!!j!!^",
"   j+]s9$0{>^!   4h'hh5-r!!!**:v+fv6|^*!!j#n:#b465=2fv%.t8*!::b!",
"   n0mx25lv88    ^'.dhl:!4jr+[%d-l+{[t[lv#4j!j#8j:%'tvlt2[#4!::#",
"  4.7$20[lv8:    |(xd|:j4^{%x-6lv#^#^#nvvl>r: j*:6{-l|d|+[vb !bv",
" 4*{2x(%>6+^4   4{pt|:j!ft[tp--d8b8^n>fv{6{{vr4!rbd%dv%t+6lnb4!-",
"4j:f-{dv^vf8   4b[xvn*j6(--5d|:nllbj:>||f|6n>-f*jbj|prv('v+fr!jj",
"j+nvpf||8f^j   jntpv**v0t|+8b*b#|vvv8r^^nvvv{ff8bjj:05*[[pd-vb#j",
"[kt+xn^|^v#!   rl(p#j>[-lj!b!nnf+|v^n#::b#vv>{f^>*rbr6t6^-[%d>j*",
"$@={hl888|#4  4r-'x#b6[06!:*>|+|dd-{6{>r*r#n+nfv>8*-8#v{:>f(%+#j",
"/7odx[n8#>:4  >ht26!nt{x^nn|+||8#8^n-%-+r:*rv-6++6j--brn^>n{[6^*",
"no7'[[+^rnj4  -.[kv!l(>-r#n6>>:br^rb^+d[{r:b^6td+-|f(##:^{f6%d#b",
":[9h{dd#b^j4  6lt'>:%p6+jj{nr^n6d66>bbv{dvrr:|dlvf-:(%jn!#fd%2v*",
"(vh'{d{bb8!   d{(hb:[h0-jn68vv{>8>-lv*r{+dv8j>%l|f->rl:#>!^--'p8",
">+l(tx+rb8j   v2%x:b%2+#*6+8nvr|v>bllfjnll+8*#6p6>+-bb:bv#8>6d0-",
"%|x~00t^b#*   jtt084t~{v*%tj|n|f>ffb6|:jt6l8:*|tl-^684b:^6rb>l%0",
"v8~92lt8b#!    >[t# {.'l!-6b|8>f8nvn#+#j({-n:!:t-+#t+!jr#v+brd-[",
"6^5h%|%8:rb    nl(| f'.{!-fr|8>8fvrn!{nj[d+^^:nv{v8|+j!#8>|#nv-6",
"(6f{f|-{r:r    >{2+4j%.p*6tn^{^f{v:d*[njd[{^8*>|-+^v{j!^nf+vnfvl",
"#dj#b8f0rr#!   b2d[# vpp^^dl8|l0lr%v*[#4-[->#4>6-+fn>bb>v#vv|+|-",
"bv^|8*#[f^^*    d6%l4 %hlb+p'[^v{-n48vj!-tl>b46dt6v^+:bn|nff-l6l",
"*+8{0vb^v:j:    *vd-r *l(%#|tp0-6r4bff!#-[f:*!d%(6-##8#f+|l+-dll",
" :*#-l88f#br!4  !l-%vj  n%'6*44 !:#l|bjfd>8*j:f%[{6b:^n8+v+6+6fn",
"  rbb+(8f>*^*j!  f<hd^j 4|%0tdl6{vl0|4*|{n+jj^>(ddvr8:f^|v^6>nn8",
"4 !+v8'pn+>*b4!b4!xo.6n* 4+-|dl%=05fjjf|v|{4*+|[%6>njrf#>|^-l>nn",
" 4 46nn[{v6:j4 b84vc2[fnb4     4!n^486{{f>**^6v'%68^*:nn>vfv0vvf",
"* 44*+n|d{6+*:44r>v[llfnn#j4    j!!8d0|ff!4!>++(d+^rj*b^|6+v+-6f",
"{:j^ jf8+[-[6:r 4:f2sh[{frr:::*:!b6%pn|8*4j#-vl%{6rjjb:n>l+ft[lv",
"*8brv!*nn{(tpd#:  bd[x.%-tl|>>#^fd0[>#^:44:6[+0-[^*bb:#>{{>n+[+-",
"4!#*rf *vndp0%-:^: 4#{n6.26||nv6{l66fn#!!jv6vv0-{:j8r:rn6-n#++|(",
"4 4*:^r!|+>t('t{r^b  j^nnf8v++{n#^^:#jbb:t%6|t{+nbb^:n^8fl>8^^>t",
"-!  !brbjfl^l%5ht||f4 444j4*r8rbj*rb!:!nd%[|{%+6rbb:*b8#v+v^^#f{",
">{4  !*b886(vd-x~pdn*##*4r*!jj!j 4!jr>[~hl|{0d+nr:r*!bv+l+++6fff",
"4{{:*j4!:v+66|rndph0{8jjj:r:b!!44*f{(pxplf6[6|68b:#b##nl%6l(tln^",
"  86>f:4j*b^lvrr^^l%tl+vf8:br8>>+-00('0||-(6|-nbr:brnnn-p--t[|#+",
"   !44!!#:b^f8n^+v^^>>f>++vl{66l-[(0-6||l%6|->:^^b!:f|>d(d[-6f#n",
":4  4  4r{nbr|^#^-d-+|v|6v6l-0p'tddd+^f[%vvv^:#fjjn8+f{d-+6l8r:r",
"::j 4b*! *n|>bnn*!bn6%tld-%0[d[l0tl6{tl{|f8##^rj4:86f('v|f6lv#*r",
"+^:bj4!j!4!!:nl{|8###^>>^rr#>{tdv6p[6v+n#^#brb*j#6|v655lf6%t6^##",
"0{>^r*  !b*!! 4r^>>+llfvf+vv^8|d%ln|nv:^+>*r#:bj:+6{{kx-6t0l8>>n",
"|f+d+nb  4:r*4bj   4*rrn|f#:^8^#>dlv#r||^jjj***^|66td+-+6-|:*^v#",
"v6dh%[{r44   br:*j  4jjn-tp%+nn##*!rnf8b:>rj!44#fd[d~t6+n{v#rn>8",
"|lv|l6+6>n^:j:ff!j4j!j!44*^v#b444#888*4:rb4!*j*8+t%'{6{{>|>#88>-",
"nf>>|v|l[t%-+#:4              :b^*j!444!j!j^dvn||{[dd666l+n8n:rn",
"^8|vfv{{---l6n8j!jj!     4:b*j*b!!!44  !*8{+nn^+ttd6l-lld|:n8rbn",
"vv|++-6|f+dxp{f#:jnf8bj4#j*!b8#*   44bltd[|>>l-%(-ff+f-pp+b8r*bl",
"6{{lll|tp-+d(2~pdfbn4!!4 !j*jjj 4 4b>d+dl+>6pp2h(td+d6l%[>*r8>!j",
"60xltt00pp(-%p(~'0ln8*!!^#r 4!jf|fv{{f>{>#6p2hh2{6d>{{hd#bjr{+:j",
"-[-+d'(ph2x'[v6vvd(hpv||||^n|+>ll{l-[{>#8|((h5t6++%%|{%6bj*#+>j!"};
