/* XPM */
static char * 19_xpm[] = {
"64 64 63 1",
" 	c #040204",
".	c #848284",
"+	c #444244",
"@	c #C4C2C4",
"#	c #242224",
"$	c #A4A2A4",
"%	c #646264",
"&	c #E4E2E4",
"*	c #141214",
"=	c #949294",
"-	c #545254",
";	c #D4D2D4",
">	c #343234",
",	c #B4B2B4",
"'	c #747274",
")	c #F4F2F4",
"!	c #0C0A0C",
"~	c #8C8A8C",
"{	c #4C4A4C",
"]	c #CCCACC",
"^	c #2C2A2C",
"/	c #ACAAAC",
"(	c #6C6A6C",
"_	c #ECEAEC",
":	c #1C1A1C",
"<	c #9C9A9C",
"[	c #5C5A5C",
"}	c #DCDADC",
"|	c #3C3A3C",
"1	c #BCBABC",
"2	c #7C7A7C",
"3	c #FCFAFC",
"4	c #040604",
"5	c #848684",
"6	c #444644",
"7	c #C4C6C4",
"8	c #242624",
"9	c #A4A6A4",
"0	c #646664",
"a	c #E4E6E4",
"b	c #141614",
"c	c #949694",
"d	c #545654",
"e	c #D4D6D4",
"f	c #343634",
"g	c #B4B6B4",
"h	c #747674",
"i	c #F4F6F4",
"j	c #0C0E0C",
"k	c #8C8E8C",
"l	c #4C4E4C",
"m	c #CCCECC",
"n	c #2C2E2C",
"o	c #ACAEAC",
"p	c #6C6E6C",
"q	c #ECEEEC",
"r	c #1C1E1C",
"s	c #9C9E9C",
"t	c #5C5E5C",
"u	c #DCDEDC",
"v	c #3C3E3C",
"w	c #BCBEBC",
"x	c #7C7E7C",
"       4   8$u<886t-[%hk,=0[-~sln>rb^:4***rr^n|f^^|n8j-[f4 80x<@",
"          btc%>nv5dldp.<k%(d6+l+n:*j:*jjj**:r*bb#n>8:**ts'!b-h99",
"          6/'jn+d2t02k25d6lvfrjj!!!!jjb:rb::b!!4 !#8^rrl2o({^x-n",
"         4h;2r|l6%'022~x6rr:*4 4!j44!j**j!!j!!!!j  :^^^8rvv84f-x",
"         #'.^n-[0th0t00+:!4   44jjb*::rrbj!444!!!j!4!:n>#^+*^fp-",
"        4fh:b+0(0[ppv|n*4   4!r+{v6vvf++fn#*44  4***j*!88#fjj46%",
"       !j++b^%h.%(pd8:4   4!8f-dl%0[++++66+fnbj     !! 4r#8:jjr6",
"       j^d-b>2~2tdd#j4   4!>ttldhx(p'x'hh't-6>##j4jjr#! !bnnb:bn",
"      !nt.[8v(0[l6:!    4b6p[p''5p25'l|{-d-0x2df8:**j#^#:jj:rr*#",
"      !f<w|>d(p0tn!4   48{0p55~5hpt6>6[t+>{l0('(6fr*4!8tr!4 !*b:",
"      48pt>+ttt(d!    4+(%2hk~h'h.[f|n>-6l%t00h(p5lr4 8^44   !r:",
"     4:f+fvpt[6-#     +%0x=c~p{f-[5pf(=<<9x'%dt{6p%68!*j4!    :#",
"    4*|d{#d't6f8j    f[22k2dt>lvnh.l#*+d(%->++d%d[h2->b! *!   j#",
"    b^'htn0plf8!    vh2.k<'kp(n#r^>#b*jfbj**::b6htl[l+#jj:jj4 !n",
"   48%/~2t((v^j    8'p..hp<tf^#r:bbj!b#>v:4!j!b>[v+[25%nbbj4!  *",
"   jdx@kk[dl8r!   j'((kxt6|b!jnb! !!!j*|n8r!   fxp[0x5h-:j*4j4 4",
"  4^$/o9cd6nn!    [xxtkh+r!!jrbj**j*jjb|{6^:b*4!{s.[t5c'+#j!jb*j",
"  bf1,h~'l|8#    b0hh('v*!!j*8f[d{6-d6nb!!*88:8!*(skhv{'x[8*4b#b",
"  +<9<(0-l|8b    ^t5t6>*4!#+t2%-[lv>6dttl|*4r#*#84#55tvl(2d#44b#",
" 4[o~5p{f+v^     +t'{^*4*v([pt+|{f#88n#n++l^:44*b:n8--+{+-0vb44*",
"4*^{d[-f^+>r  44jlx-fbjr-[d-.t{d^rrr#^>fv{{{6^j !bn(v0f%-f+-nb44",
"br>pvvvf8|:!   j^['6b*^tp-lpvn**v-v!j#>vvfvv>+-:4r*r(l>{pp|+>rj*",
"-v+2vn^v^v:4   r{('nj8llt84j:j:#|+66fr#n^fv6vfnv#4:jb26n[(%llvb#",
"$x-[(n#^8fb   !rd'.njv%ld!!rjfff6+vfn^::#r>6f{+f8r*bb+kv{v(%[-n*",
"]o%d.>^#^8:   -0th6j#d-'lb8*f+v|{ld-6{v8bbr^v>vv^fjr::^t68|6p%v#",
"]@2{2{>:nrj   20tkf!60|p8>n+vv>#:r##+%d{nbr*n{f>+>n*tn#nl:fnd[{^",
"~@=ldt>b8rj   t{t'^r%'fnjj|+nnr:^n8::+-%-nbbr|[-6+{j-lb##>>n{%lr",
"v=x--d8*#:4   ({p0*^%p(-*:6#:n>ld{6|#jf+t+8b*>{[-+l|+(rrr86f{('f",
"|dp[(%^*r#4   2+''!^%2ln!v{nv+{88n{d6b*++d+r8#+[{f|l*2l!n!:f[-2p",
"+-2'th>::#4   d6%%!8px+r:-6*>frv+fb{df8#6{6|rb|pvf+-8^6b^>!86-%(",
"n5<.60vr:r    >|%-!j(.%8*%tjv^|>>ffb++#4d+df:*>-%{nl+bb::+r^>vl%",
">p<.v%|bbr    j>0tj -5.nbdnb|8>>8n|>:+n4-d-frbr{[[|>{j4::>6rb8td",
"*'pl|l[rb84   !6(0r +hhf*t|rv^n8fvr>46nb{(+f^j4+%+|n0:!*#8{>r8vd",
"-*+#f>0rr#j    %d%> *(5%jlt#>6n|{vb-b[njlt6|^rr|l+>^{84j8#>v#f+6",
"[b:bbr[6n^:    >'ttj -p[#fdl8v-(l:t{j[^jltd>8j#n-l>^-n4bn#++v>^|",
"vn+{#b^{r*r    4|{[f !(hv*-p'l^f+-|4#+* +[df#4^ftv+8f^!8+^>f++-v",
"+#v(t#r>#b:*    f60vj *6(%rv%'(dlr b>|j*l%-nb46{%vl#v>*n^|8||t6l",
":b*v+v^f>j8:!4  r.t%^4 4|((|!!! 4*:+|rj>-{nr* ddp{[#^brf8{>[vd-6",
" :#!^.d^v^r:4!* !h$h6#4 ![[0[6vvvf{(|!jfd^8**j|d%{d::bfn^l>lffv^",
" !vd#+h|++b*4 :r n,~%v^4 b6-+0lh<[.|*jnv6fl!j8ftt-{b8:rfn+>+6>nn",
"   >|^+[v{nj* !88bth0vf8j    j!8#{v!jnv6fvf!*6|[t{|^*:f8^f||[-f|",
"44 !|>^{d{dn:* j#6.0dv>^^:4     b*!#{0|6>#4*>6vpt6nnb:>8nv|f{[{+",
"*!#4!f^|d0[0^#b j#[kc(tvn:rbbb*j!:>d'|+^84!!|+6'[688jbb8n66vv[-l",
"n!#v!4^>v00%p>b! !ntl.(dt-|#r::8>d00^>r#4 j>-v-t{6#*j**nr-6|n[d6",
"*#j:|4!v#{(h%t8nn  *6>vh5-6++nf6dtl+n>^44!^--+(-d>b!*rr>|l|n8dl|",
" *br^#jn-^dth0[nrn4 4r^>f8f6fd{|f>+>#8!4j#l||{0d{:j##:rn|-68nf>v",
"   !b#bj#-^6t.5({>|! 4  *!*:#8:!j#:rj:j#f'd6>%{+^:*^::|#n6+>88#f",
"|  4!*b#8{p6-+'~'t>b8#*4r*!jbbb!4bb!b*8-%tlfd[v+::brbb#8>++vn>^f",
"d|   4jr++66>r8{0h({8jj*b#8bj!j444:8+t55[6>tp++n#brb4*vf-{+lt[6>",
"j66#^j jjb^lvr88^{t[l+|^bj!!!jjb>lt('2hdffddv{f#*:#*##^|0-{l0-68",
" !>n8^!:bbnf#n^{|^^>>ff{6vl{+66{l%%((0+f{0-+{6>jrrb:^nn|p(-d[dfr",
"      4r6#b#v##>dddv||ff|vv+{[(00'%d6vf6%d|+drr^#:jb>vn6%%{[lf^r",
"j  44! !8||rbn^j!:fl0[-[l%p0p0d{ddd+^f-06vvv#b8v*j^r6>+-l+v668r:",
"rb! b*b4 :r>>-{>r#r#f+|v||f|-(%({6{dtl6v|n8bnr#j4b^+f[x0>v|--+#:",
"|#:b4 4!j!   bnf|>vl6^8r8^fnf+-ld'-|f+nr8n::rbjjr{fvv(k'6vd'-+n8",
"lvf8r4  jbr#4*j4!br8nn+{{v8r8|+l|r6>|##vvrb#:r*j:++{{lc06ddd|r>f",
">6([v^j  !bj4!*j!  4j!^v6vfn>n#>dl>rr>|>b!jj***^f{6d0%>l|6lf**nv",
"l-0ttd>*4!  *|fr:44!*jr+6p(68#rbj!rn|8*r#^rj!44r>l%[p2-6v>{f8#nn",
"{v|{v|6+f|^::#:j  !! 4  4!*j   *r8##b4j#r!!j*!*8>lt'[v{{{nvn#8#n",
">>>>++{%t0%{|8j 4           !rr#b!!44 44jjjndvnfvvd-d[{+6d|^^^:r",
"8f+>|66+6d-l|^r4jb*4 4 j4brj!jr*!j 44  jb>l6nnnf[0t{6+ll-d>b>#bb",
"+v+6-lvv|{(.[-n^*rn6*b!b:!**r^b4   4!#tt[[|>nl-%p[+|f+|d20f*8:*b",
"lll{-|-'%6{tp~xp-^r*4!444*j!!j44!4j:vdv-l+ff(h'2hd%vld6[t{8*r^>!",
"[.d[%%((p([t(('.(%+>#*jjn8b 4j:+v|+ll|>l|rf(hh'2%+lln{d2+r**rl+:"};
