/* XPM */
static char *_ae9398706dc4f70b3acd4cf0b8454757mkayjWMSzbr3pG3[] = {
/* columns rows colors chars-per-pixel */
"64 64 64 1 ",
"  c #040204",
". c #848284",
"X c #444244",
"o c #C4C2C4",
"O c #242224",
"+ c #A4A2A4",
"@ c #646264",
"# c #E4E2E4",
"$ c #141214",
"% c #949294",
"& c #545254",
"* c #D4D2D4",
"= c #343234",
"- c #B4B2B4",
"; c #747274",
": c #F4F2F4",
"> c #0C0A0C",
", c #8C8A8C",
"< c #4C4A4C",
"1 c #CCCACC",
"2 c #2C2A2C",
"3 c #ACAAAC",
"4 c #6C6A6C",
"5 c #ECEAEC",
"6 c #1C1A1C",
"7 c #9C9A9C",
"8 c #5C5A5C",
"9 c #DCDADC",
"0 c #3C3A3C",
"q c #BCBABC",
"w c #7C7A7C",
"e c #FCFAFC",
"r c #040604",
"t c #848684",
"y c #444644",
"u c #C4C6C4",
"i c #242624",
"p c #A4A6A4",
"a c #646664",
"s c #E4E6E4",
"d c #141614",
"f c #949694",
"g c #545654",
"h c #D4D6D4",
"j c #343634",
"k c #B4B6B4",
"l c #747674",
"z c #F4F6F4",
"x c #0C0E0C",
"c c #8C8E8C",
"v c #4C4E4C",
"b c #CCCECC",
"n c #2C2E2C",
"m c #ACAEAC",
"M c #6C6E6C",
"N c #ECEEEC",
"B c #1C1E1C",
"V c #9C9E9C",
"C c #5C5E5C",
"Z c #DCDEDC",
"A c #3C3E3C",
"S c #BCBEBC",
"D c #7C7E7C",
"F c #FCFEFC",
/* pixels */
"  r>j0dd0@lt,M4llajO$>r     rr OOBv48<&vyXXvy=nd>r   rr>    ri=2",
"  >6<8dOAtcf.M8<40d$>r      rrxi<4a<Aya;CyvvvvvXn6$>   r>j6r >d2",
" xByaa6BAl.waC&g<dr>r      rr$=8l@&<&8D.&XXAAyyAyjiBd>>dOiO6xxxx",
" Bvl7C2n&aw;w@aM0xrr      r>0<ga@@4Dl;.MMlwtD..wgvA=nOBxx>i=ni$x",
" 68kbX=0a@;88gav2x        >g4CgMlDc.tD%D;D,.@aD4@Dw&y26d$rx2;Xx>",
" xX,4==C4@4g<0y66        6X8Ca;wwl,,D,tw;wMy=0jyC@.fM<jO>> Bvx> ",
">dA0A2&wll&vjnBx        jwa;tlDfV7%+,;MCM8ynjga&=CM4@;gvi> Oirr ",
"60gy2B@tDa<Xii>>      ><lw4ttt,+t<C@y<vaf.yXyy<XjjAv,Dt%X6$rx >$",
"08@vA2;wD@=ii$ r     >@.;C4DtDt;alw8=y<njM8X020AAC@44@<&C&=6>>rd",
"M,t.aa4g8Xi=i       ><,;lD@+c4aa73D4wg0=<wVDXt+%MC@Da@<www<jd>$B",
"--,7,@avA=Oix       ng;wtv;t.@<jyAn22iB624Dg6xCf73Dl88vXM;An6ddd",
"hu77-g8<0n2d       dvgt.8&;8vnBd$rrxd6O2OB0=i6j@.7.gga4a@&@M<i$d",
"-qp+;&gyy02r  r  r>=g4lg&==O6$>>>>x6Bj6>xdOB$$6&8XnB2=vMlg4tw&6>",
",Dww<XyvnBx   r $x2&l.&j0B$$>r rxxr>B$>x    x6did$B66d2lgXC%w8B6",
"DwMy2=jX6xr     2i8C44AOdd>rxB2Aj=n=O$$x>>>  diB6>r>BO$yvyl,.4@X",
".M@ji2yjO>     id<@;lvB$$$ijvCa4@MtD@a@&jdxx$xd<g2rr$x6X8Agwmpt;",
"ag<y22XiB>    O7jCMMc=x$iXg;;v8X8aCAy&g<vXjO>$6Oi2Br  x&laM4aaw,",
"X0jAi2=>d     ..ya,&j>x=v@vC&yCwcD@vnjvy<y88ABxv&2O$rr <c.gg0<8@",
"n2Oiij2>x    dlX8,D0>x=vaXCgOxnjB2AXa80nijj&CvBx=&i6$r >;3%.yX<y",
"n22B6nO>>    88@Cl<$>A&a&@Dd>rdB6d$$n0O6B26=X@C2>>i=6OdxX3VwgX&j",
"j=jdd2B>     c=@w@i A@lXgtjx$BBr>BOOBACX6B=0iO<80>r$idi rX%fDXC0",
"vjBdBn6>    r.0a.&r$&l4j8=2jj$6jAj=0<yAi>$O2j0=y&A> jd6j>xyM0y@w",
"4n$$6i$     $gvaM2 j8wC8B$OnByyXAXjy<j0A<d$j==0XAv=x r$OOdOyCj;w",
"8nB$6Or     62Cayxr&;lMl=rxjgjAj000<gg&=nAOBnXXX&XXi$ $dBjg=MXyC",
"<=2$6O      n=aan >@.an2$>jvnn=nBBdB=<8X022O22jjA0v<2r xd6D<AB<8",
"@jB$Bir     yAlaB 64c&ABxjv2O$iBBOOB6d2y<&=O62200vnjvB >B$B.Cr$g",
"aiOOdB>     @y.g$ n4.@vBdgvjy00A&8&<=6$=@gv2B$6n<XAn<&$xOxx=c&xv",
"a=xB2ix     Dga<> A4,.O><@Xd=yv0=nAyv0Ody@8XOx6iy0<ynA2>rBd$t%0=",
"4v6=6ir     v<aC> j;tC6$glBOjj62=Od0CX=$6AagAxiiOyi&0j2O>$xOd8Cn",
"4462rO     r=j8@$ 2l.gx28X$n0ijy0vAd<8v6>AX8&66dB=jy0=ni$B6$i>g0",
"&4n6$O>rr  >XA@&O d;D4xA8$OAi=jjjO=jd&vj$2Xgvn6ddA<n0AOjrOixidBO",
"=X2$OO>$x   8@CvB  44g$Ag&O02nn=ijdv6nvjO$vA&06BB2gX2vnAxnl0$n>>",
"B0j>2i>>$x r4fC8O  gwvO=&v60<2i20nXj2dA0>>yACXO6$jvgvvjyxA8A$iir",
"B0jO>6r $i  C-D82r 68a2B8&0OvOAyvX=2i>A06rCy&yO26=XC8Ay@6j4<>$XO",
"nAy0dxr xi6r@kf@=6  na4d&l<nX&<<&jd&jBgnO$@X8A2Oxjgvg0Xg=$,4$$Av",
"6j&Ax$$ rBn$j+D4AO  >v40i@DMjj@g2iaCBjCi6iDXgjO66Aa&<jjv0xaC6$i<",
"Anvyi$O  $0<8XMCAj$ ri8liOgl4gg&g&&$xgvix<MAg=BB$08@A2<gjBin6di0",
"wAAgv6id rBj7l8<=jB  yl@Mi 2&yA&j$ $ivid6CCjyii$dAvM<nXg06xdd6Bj",
"@@vCM=BOr d<@3Mv==jd  =ag@AOr    >dnA=x 0@8<AnBxr0aXaA0y<>rxBiO0",
"g848w;n$$  d;Cpa82i2x  Bj<CC<0n2iOAAABxxyC&&n2Od>AM<&jnvj>>$OiOO",
"08w4gM<dX6  Og&tC<jOB>   OCAa.aAyg;2d>xj@gvynidrXj8X0On;yxrxi0OB",
"j<4DwCC262  >XAya&gO6O>    >Aw;;D&06$6=y@8&yB6>nny<X02j&ixrB=Xj=",
"OA&MwlCgB0=  xjA4,MC066dr   >dA@A2>>>nACAj2OBr>0jCgX=2y86>xj2yX=",
"02<aa,t48BvB  xO04aX&yOBB$xrx$xx >xBjAyyn2id>rAygg0<=20=O>6jBv<=",
"XnigC4f,4<OOrrrrB=i2invjOdBxxd$OOA<vjXX=njxdr=CvlgXgi2X0O$2A2AA0",
"nv26&@@7D;yd=i r >$=vXj2=0A0y&vvMMCjv<=XCB$>>0j4;vy@iO=$=ininAjA",
"rvwA0X0&llMXBi2$6ir$O=A8&<vC@aa;g=Xynj=A>>$>jj<;gy8<BB6dn=jO20XX",
"$xjlCXi=ylw@Adr$B$>$$OOii2j0X<ynOjnO0B> xddj&n@;<v8B6ndB2jO2nXgX",
"Bd2M&nd6OAgC&yB>>2jr>$BOx>B2AyA=innBr> rxxX<AyCC8yAd=6dBjn2BB0&<",
">B=y<=O02n=0jX&y6>>i6>x$>>dBd6OO=Brrr xx6=vAX;a@<yiOj$d6d6==iggg",
"B0<CC&2Ovn2n=j=<X=B$>r>xrrxi66$>d>r >>OnggjX&;4gvj626xdx$6iAn0yv",
"d6A6=X0A4avXA0n0XXCvX=drrrrx$>dO$6O$$nAv@<Xvaa<&A=6$$xB6$B6i2=Ay",
" >rOnnxBn&ag<y&vXA0AXy<yAXX0=Oii62n<;@&jy0XMC&g&n6$ idOd0jBiO<vy",
" >Bd20viO$Oy;488<8C&vCgX<gM4;laMDt;@a8<y=yaMgC&n6x>$06d>iiyjyaCy",
"x2$66B202r$O=v<g@MlMww.;@@@@4lwD.w4&&v=AX4gXyynd6O>B2ddxd6=nA4l8",
"$dXX2$>22666Bn=2Bi2jygXy84;@88@MvXj0==v4M4Xy<0dO6Bxi6r6dn6=nACM@",
"rxnvv0d2<0inji6B6Biny4Maa@C8@X<A20Xy&@a&gX0y22dO6dOi$>0i00==<8CX",
"  r$2A<&@yX=<a<y0<jX0<v&yAX<0iiiX<<algyy=XCj0BxB$6id$>O0XjjvgXy=",
"Bx r>dr>6nj0AjjAvgvnBOX@&yMa@&@Cv44C0AAA&a=O2x$nd6dx26iy0A;tlA2A",
" >$>>r   dx>rrxdO=ddBnnX@@@gXyvAyy<0XyXAyOB$dOy=x>$dj2n<=XDcw8=y",
"  r6ddOB>6    rd$AXvj222i6dd2jjXXAO==Bi2$$jOO2BxrrdA<XA<X<4pl&&l",
"r  >x2B>>$dxr r>xj4@t@Xi02@aC<jyBd6O=0n6dBOB$O$>>OOivAy&&v0&8vv;",
"2x rrr> xx$$6rrx$>>BX8XnOBd$$$ddO2A<&n6$xBi6dBB6x60ngyy&g,tXg<0v",
"XO>>x   B&v=d>xd>r   xdr rrrr>6AO<066B$$$Bx>x$x>rx2nX8lC;;a@y&<0"
};
