/* XPM */
static char * 20_xpm[] = {
"64 64 63 1",
" 	c #040204",
".	c #848284",
"+	c #444244",
"@	c #C4C2C4",
"#	c #242224",
"$	c #A4A2A4",
"%	c #646264",
"&	c #E4E2E4",
"*	c #141214",
"=	c #949294",
"-	c #545254",
";	c #D4D2D4",
">	c #343234",
",	c #B4B2B4",
"'	c #747274",
")	c #F4F2F4",
"!	c #0C0A0C",
"~	c #8C8A8C",
"{	c #4C4A4C",
"]	c #CCCACC",
"^	c #2C2A2C",
"/	c #ACAAAC",
"(	c #6C6A6C",
"_	c #ECEAEC",
":	c #1C1A1C",
"<	c #9C9A9C",
"[	c #5C5A5C",
"}	c #DCDADC",
"|	c #3C3A3C",
"1	c #BCBABC",
"2	c #7C7A7C",
"3	c #FCFAFC",
"4	c #040604",
"5	c #848684",
"6	c #444644",
"7	c #C4C6C4",
"8	c #242624",
"9	c #A4A6A4",
"0	c #646664",
"a	c #E4E6E4",
"b	c #141614",
"c	c #949694",
"d	c #545654",
"e	c #D4D6D4",
"f	c #343634",
"g	c #B4B6B4",
"h	c #747674",
"i	c #F4F6F4",
"j	c #0C0E0C",
"k	c #8C8E8C",
"l	c #4C4E4C",
"m	c #CCCECC",
"n	c #2C2E2C",
"o	c #ACAEAC",
"p	c #6C6E6C",
"q	c #ECEEEC",
"r	c #1C1E1C",
"s	c #9C9E9C",
"t	c #5C5E5C",
"u	c #DCDEDC",
"v	c #3C3E3C",
"w	c #BCBEBC",
"x	c #7C7E7C",
"          >~.tn>-5l-[h59~%pd6+dlfr*jb*jj!j*brbbr:nnnrb*rx~-4#-x/",
"         *5$n:f{%xdp.kx.d{l+v8bj!!!jjj*b#rr*r!!!44:^^8r#%c9[v>x[",
"         ^w,r^6l{''pxh~5-##::4  4j!4!!4j*j!4*!!!!! !8n^^88d{#!l-",
"         6=2:vdt%('0%%pl#j!4    4!!j*br::*j!4 4!!j!!4:8>^r|f*8vp",
"       4j56j^[0ptt'p+ffb!4   4!:fv>|^^8n^8bj!4444!***jjb^#8f**!l",
"       !8{:r+(hxt('[nr!4  4 *#n-tl[%t66ll66v#*4   444   b###bjj^",
"      4b|tr#d.~ht-[8*!   44jf%t{6%.0--td-ddl+v8:j4 4!^j4 j#>#**:",
"      bvp'^#dp0[l{#j4   44:lp[%pp5''5.h('2pt%%6^^r**bb#rbjjb8#r*",
"      8'@hnv[(p(tv!4   4!^-0(.55~~'p'{f6-+{l%h5'ln:**4rv-bj44*bb",
"      :0=6nltt[0tj     *[%%22~5xh%%-|||+-vfv+d%hhd{^j4 ^f!4   j:",
"     !r+vnlptd6{^4    ![t(xkc=.[-p5'+v[0p(%(pp0pt(~t8! 8j44   !8",
"    !r6d>#(p[6>8*    bl02x=2t%f+|>0.hnv'k<oc0(l%{6(%dfb!44*    *",
"   !b{00vn'(lf8!    !pp..=<(500{nblpt8*#--6+nf+d%dt'2dfr!!b!4  *",
"   bf.c50t(0|^*    4[hp~.h'$(-f8^8r8#b*jn:!j*b:b|'0-[-{#b*b!j!  ",
"  4#t1$=xt-6#:!4   d2%'<pdl+#:b!*!4   *#n6#44*!brl+vd'~0>bbj !4 ",
"  *xko,ck[+^n!    85'h'~(fr!!*#>jj4!jj**>n8#j   #h0l%x.hd:j* *!!",
" 4#=e.x=t{f8#    4l'5-2t^j!!!4**r>>8rbj*nl68:*4 4dc2[tks'{8*!*::",
" :{sg'(p+l|8*    b-xp-vr*4!b^{%t%-lld[lfbjj:88:#!*h/5'+-hxt^*4j#",
" v@/c'p|f6v^     fdh->b*4:{t%xt+-[v>>v-tt{n!4*^*rr4-<5d>-p2[#4 j",
"jn0(0t{^n6nb  44!6h(f8bj^t[-['t{t|^#8nn#>6l{8j !b8b*|(%{{{d0vr!4",
"b:dl++v^n|j4   *^[pdr*b+p%d%5-|>#f+#b#^>||{6+>8 !*:>d+tf-{|+ln:!",
"#|ttnnf>ff*    #60'+*bvd[6*nbb**#|+:!j^>v+v+v668!4r*dt[6[0[v+>r*",
"dl{2>888fnj   *#d'x+jf%6%#4**!88f{6v6>r^nnfv{>^-fjb*j{0*f%'l6lvb",
"c0+kv^8#>:*   '%t2{*:{[d'!*r*||vvl|6n^8:r#^+v+6ff^*bjb'h*[d'%[->",
"12+5l|^:>!!   ={%kf!+06hv>f:++vf+6[d{6{n#j:^v|++>88*:b#2d6>llp%v",
"]<-ddl#b^j!   t{%(8rthf+*##lf|nrb:r:>[[lf*##r||n+^>!rrbrd+rn>t[{",
"1=t{d6*b^!4   pdp[jf0(t{j!6|^8rr>>nrb|l%dvbb*nl+f{fn:0f#:68f>lt{",
"2.t-p|bb^*    .{h04f%h%|!^+#^ff-dl{+8jnv[-nb:8vt[{+ljd{*8bf+f6ph",
"{0(t.+#*#*    %6(d4v''>rj{l^|+6r#86[6#jf6-v^r*>-dlv-n-0:rr:ffddx",
"d.560-#b#4    |l(| f'.-::%{jf>#+6|:+dfnb6+d+8*n[l{nv{*5>j>!*fdd0",
"29clt{b*#j    n6064r0xhb#[d*v^vn>>fb++^4{{-+#*^6pv8{lr||*>njr+vl",
"p5pv{%:r#b    >6hl4!t~0:>-*r|^nf8nffbvf4ftl+r:b+0l6|d#b:br6r8:|t",
"d'f|>0>rr:    ^%p{! {.hn8%+:+8n^|v8>4+>r>h|l^*!nt{[8v|!j::|6:*#l",
" n:r:-dnr^4   4.{%> 8'26:l-^v+n|{+*l*[^bv0|6>bj:tl+8{[j!:#^{n#|v",
"r#8b*nl#br4    fvt-! t'{:vd{r{l0-:d-*[f*{t{+nr!|66v#>{*4:8^f6^>^",
"n6%l::>8bb:    r6[lb #0(v:thp+>ffdl!:l: +[[+8jjf{-v8+lj4r>#6+v|l",
"^^[d^n>f*#:!4  j(-%n4 b-p{rl('0[[# *^vj!6[[vr!rv[+{^ff**^6#|n+d6",
":!8fh|^v8#r!!j  (cplr  j{'[84:b 4!bfv#j8lt6#b4+6(+-8f|r*>|f^vv06",
":^4r0.n6+bb4 b: 8,c0>:  n(ttl+n^>nvpn!*fd>8r* -lh{[nn#rrfvvft+v6",
"!f%8n-d|{^jj j8:j5='6|:  8dv[%-.xl2+*4#v{n>*jj|-06[8:bf^^+6n6>nn",
" 48+^|-l6l::j b^|-{t6>fr!   b#^--p{:4#v+fv-4jnf[0--b8:bf^|v8l-+f",
"4 !nf8+[d[-:#4 bfp$0l>8^#j     !r:!#f[fl>+*j:6|dtlv##:n>#f|n|%d6",
"!:4!^>n{pt'd#:  :[0c~({vbr:bj!!4!b#{p66>^j!j|6+pt6>nrbn^nfv+fv--",
" #vj4#|ft'%0{b^! !v-[([t[+rb#br*n-%'v6#n!4j:vv{'[68^jbb##v{6ffp-",
"#!#v4468v%'pt|r>4 !8>v(~[66{>>v6t0df##^!44*{l+dt{+8b!*j^#flv>^[l",
"br:88jrd>6d'2%{r+#  jr>n8f6fdl+6+66fn>j4!:v[{+(-d>b!*rb8>ldn#^+f",
" !b:#b*:-vv['=p[^>j 4  *!br8^#:#88r#bj4bb+{vfd0d{:j#8:r:f6-|8n88",
"  4!bb#^{(-6f[5h(vb^#:4:*4j:b:*!brbjr*r^(0{+6%668:j^:j+:^|{vf^^8",
"j  4!*#6666n:#vth(l^j!j:#^*!!j44!jj:rft([d|v%{6|br*#:*88866v{66f",
"t>!b4 jj:^{v#^88v[d{+|r*!!*!4444#f+%%.k0{f{00v|8#brb4*8+l-6{dp[{",
"b{|^| !bbnfrnnlv^^>>f|{+|{6v||+l%(0'2h-|f{tlf{n:br#*rr8n-p-l-%l|",
" jj jj:fb:8+##fd[-||f>f|||+vl---t%0[[6f6t0{f-|njr#b*n>^>l'0-[-6>",
"     4b|6v**>n!!#|d%ddd{[%t'p'%[%[[v|>{ttv|-6rb^r:j*>v>|d%{6dv8r",
"! 4j*4 !:8+n+6nbrr#+{|{{d-lld6%%[-|n+{(lvvvf:b>|j*^:6f6[l6fv6{nr",
":*!4jb! 4!4j||vvn>+>##:rr8n{%[6fttttl6v|>8#bn8r!4b^fvvx5%^v6%-6#",
"n##j  4*b!   j*:^|v6|66l6v88|[%t[vnn6>r8n8brbb!*r{fvv{.50+-['6f>",
"++n8*   j#8b*b4   4j*8f8:r^8^>^8vl+fnrf{8*:8::*j:6+6-{dxd+[l6rbf",
"{'p-6#! 4j! !!jb  4!jn-%'06>nn>dvrr#>|>#j!jj*bj^nl6l[x(|{>v{>b:n",
"{{l[-+8!*44 8{|jj!*j!44*>{|#b!!!!r>|n*:rf#*j!4 b^60%(([l+vf6n88>",
"|f6|n+{66v^#b*!   4     4    4:r^#rb44b::4!jb*r^8{6tpvvl{6>|^88r",
">ffv6lt%%%d{n#444       4!4jb8:b!4 !444!jbj|d68>v6---[[{v{d>#^^b",
"f+>f++||d[[6^#*!br*!! 4#!8j!!r:4j!444 4*:fl+n^|flptd|v|-d[d^*>rb",
"++{--|{vvl.'%d>nj8vvb* j44::^r44   !*f%0[tvf>{dt((-vvv++[.[^*#:*",
"-l{-|{p'-{-%2~.06r:4!!44jb!44!4jj4b#+l|6l6fnt2p.20[[>t--tdv:br>>"};
