/* XPM */
static char * 21_xpm[] = {
"64 64 63 1",
" 	c #040204",
".	c #848284",
"+	c #444244",
"@	c #C4C2C4",
"#	c #242224",
"$	c #A4A2A4",
"%	c #646264",
"&	c #E4E2E4",
"*	c #141214",
"=	c #949294",
"-	c #545254",
";	c #D4D2D4",
">	c #343234",
",	c #B4B2B4",
"'	c #747274",
")	c #F4F2F4",
"!	c #0C0A0C",
"~	c #8C8A8C",
"{	c #4C4A4C",
"]	c #CCCACC",
"^	c #2C2A2C",
"/	c #ACAAAC",
"(	c #6C6A6C",
"_	c #ECEAEC",
":	c #1C1A1C",
"<	c #9C9A9C",
"[	c #5C5A5C",
"}	c #DCDADC",
"|	c #3C3A3C",
"1	c #BCBABC",
"2	c #7C7A7C",
"3	c #FCFAFC",
"4	c #040604",
"5	c #848684",
"6	c #444644",
"7	c #C4C6C4",
"8	c #242624",
"9	c #A4A6A4",
"0	c #646664",
"a	c #E4E6E4",
"b	c #141614",
"c	c #949694",
"d	c #545654",
"e	c #D4D6D4",
"f	c #343634",
"g	c #B4B6B4",
"h	c #747674",
"i	c #F4F6F4",
"j	c #0C0E0C",
"k	c #8C8E8C",
"l	c #4C4E4C",
"m	c #CCCECC",
"n	c #2C2E2C",
"o	c #ACAEAC",
"p	c #6C6E6C",
"q	c #ECEEEC",
"r	c #1C1E1C",
"s	c #9C9E9C",
"t	c #5C5E5C",
"u	c #DCDEDC",
"v	c #3C3E3C",
"w	c #BCBEBC",
"x	c #7C7E7C",
"       4d7=b^+l{h('.5h=268n##!  4!j!4!4!**j!**4!!!4 j^n8^##{x-:*",
"       !pw2r|dd[(2tp%2hdn*j44    4!44!*bbbj!444!!!j4 !r^>^#8+>!j",
"     44v.|*^dt(0[('0vv+8*44    4j*:rr:r::rbj!444!!!!*jjb#f8#6^#r",
"     4!ndb:|%p2t['p[n#b444    b*^d[6{6vf|||^:b44  4*!j4! b^#8:*j",
"     !b{{b^[2550dt%^b!4    44bvdtl6lp0-+{{6{{|#*4     r:  *:^^bj",
"    4b|%[b#%x20dl{^j!     44rt%tl-%x.t[tt-dd-++>#b!4j*::j44jrn^b",
"    bvpk[^>dpp'tt6!4     4*ft00px''~ph~52p2.htt-f^8:**!#n^r*jj:r",
"    *{/w|>lt0[t(%:4     4n(-0hx~5~~.''h->|6+--0.xtf#bb4!8%^!44 j",
"    !>h[>v0ttd+l>j     4+%[px25c~2h%0-vv+-%l|+d((p%6|b! :f44    ",
"   4rvvf8%ppl6>8b     !+[hp.<c5x%-{pkh6|>8v|vddd052hhv*4b:44    ",
"  !*v[{n#(ht{n8!     !%'2.~c=-%[>{|fd5~{d=<c~~'.0(l{'[fr!44jj   ",
" !bnp'06{'pd>^*4    j[h(555.0=kp0vnb%'p^b^(2c<%[{d-{p2h{n*!*b44 ",
" j>095~p%d-f#:44   !02%(~5([~.ff^8^8#^nb*!+l+|^^6-%t00(v^bj*b4* ",
" b-$1===[l|8>!     65'x%c'df>rjjj!jjjbb*bbr:!!b*bbn'p-t%(v#b*!4!",
"!t=<19<'l+n#r     :['~lxh[8b!!!b8>jj 4  !rn684 :*:bllv-hk'vjjj *",
":0e9hhx6l6>#!     |[~(-l>:!!!j!!bjb*j4jj*j^fn#j  !*%d|t..'6rb*4b",
"^2m=p06f6||b     *lt'->:*!4j#>|d[tt-6f>8j*n-vr:!4 40~p%0c$2%f:j4",
"9,c~%[n^|v#!  444^0x-f8b4jnd(txh--dd-6d[lnb!>|8:bj!b5<'d-0h.(fb4",
".k(t-vn8|#j    *:-%p+:**^-(-{d(0l>6+#>n+d%[fj!b^r8b4-s<.l>tp2%8j",
"{{+|>v|^v8!    #v%p(#j:|[p[-0~0+6t|::#^n8#vd-n!4n*r^4:~k(v{l-[68",
"{2n^88^^fr4   nf-(p2jbvtlt>*nrbb*rltvb:8nvf|vlnb44b#:b^[dllfv66^",
"|kln88#n#:    5dtx-n!n[-t6j b*!br8|>8j!r>ff6l6{|8 !*:>-v%>%[f+++",
"|hhv>8:>bj    <+%=+!#{tl58j::*ff>|v||{|b#nv>|vv6+r !:b%[%{dhh+6d",
"v'2-f8b^**   :%-((8!lp6([^>^^vvv|ld6{n^>r#^n|+6n>[r4rbj%t!f[p(0%",
"-{[t>*b^j4   +%%2{j>0hf|*#8f6+f|nnvdd{+6rrb:n6fl|^v#4:j*x[jt60dp",
"(6d-n*:8b    -ht.64|(p0[*!fln>n:bb:bb|t-{8bbrf+n-f^^bj*:{=vl#v+%",
"0l2%nrb8j    6-t'f {''dfjr68#r8>v+|8::6tt{^:r#nv|v>n8br*#f[v#>n[",
"(t('|#b#4    >f0[8 lx%>rj6l^v|+6-{{{f::fd[l:bj^{v^{^f4n|br66#f>{",
"x[-%>:*#!    8>0tb lxp{:rd6b>6|::*>t6|j#+--f::#f[lv6+b+0^#:#|6|-",
"c(60|#b8!    8+'%j +.p0!>p{*vn^66688[{^j|6-+8:j>-t-6d>n[|b^j>fvt",
"=-f[-*:rj    ^thd* 6h.[4{d88|^|n>^|rn-|:r6{lv^*f{-d|v-!'dj^b!:|{",
"lv>6(#^>*    !5-[8 ^hxl!{+:^f>n>#>86!|v:4t+-+#jnl%6>|-:[2*b|!b:+",
">#:>%n8b:    4d60{ 4(xpj6[v*l#^^|ff>!>|rjt6[fr*#+pvn{-8b{#*+n#rb",
"rjjrffbj#    4>|tlj -'dr>-{#{>>v{6*{*{|8!pld>r::60l6fd>b*:b^l8br",
"+|:r8f*:#444  >-t{b :p'nbdtfrll%drf%b-6:*(l6^^!!|0{[#v6!4::8+-:8",
"((nnn|#b^jj!  8~[%^4 8t0{|ph0n|v#6(#jd|*^0{{nnr!>0++8l-!!b##>||>",
"{{t|#+|*:! *b b=c0+b  #t08nth(t%[|4!8+b |%{l^8bnfl+f8|-*4b^#v|{v",
"r82~>v6#j! j8*42ok{^! 4n0(+!:v#:^ j8fvj!+[-{nr!f>dl>^+lj4:f#fv>{",
"4:f%[f{fjb4 :nj+<2[+^4 8'd%->^*b##n{f*j^l%dv:j4|6[{v^v+!*^+8#v|6",
"%8^vd-6dn:: !:6t6%[>f:  *d6d[-d%6+t0r**vd+>r*4f6%l++8f^rb>f+^[v+",
"f+nn6[d[tr8j *^do(l>>>r4   #l>'=t5d# !>v-^8**4-+2d{{#v^:#f|6>66>",
"!>+8|-p['t#b4 bt%<2(|88r!      *6+b *n|6>>vj!*f-'+[6r#bf^nv{^vd[",
" !#|^v0't06bn! !66xhdl>:r:*4  !b!jr>l6++|-n*4f>%%ld8b::^|^||>8{(",
"8 4:v^l020tn8^  j{f6pp0-^brrb:!*:86p[v+>>#!*^l>0dd{b88r>n8f|v|v|",
"+>  6>>ttx(%>8|  !n|{.%v6l+n8n>lt(h{+|>^4 *#{v-t0v|#^*:|#nfvv+f>",
"j|n!b[{8-%k20||n  44^>#f6fvl6{[%%-^8#8r44*j>{|0h[68^:*b#8#vd6v>^",
":r#jbb{d6--kxp+rb#   4!b8nvvf||v{+>nf:444*v-|6%dlf8rj*j*>:|-fnr>",
"jb8b!^l%{|8+0hplr#8bj#j4!::r*j:8r8r8!!4!#v[-+0%{->*jj:*rnf-d{>#n",
"4!b:^|{l+8:r>d'(lnj4!#^j!!!*j!j#:r!:!:b>l{v|60d[+:j:#r*r#>|66v^^",
" 4!j*n^n-|r>88|{{66f:!:r:!!j44!jj!:4*nl2t6+|%t{6rb!^#bf^r8|v6+6{",
"4!! !j:#>r>>[f^^>>f+{fn^:*j!44rnnn6dhx%ddf|t-v6#*8!^:b88n>-l6{%p",
"|ffb!*r8f6*r6t[{||>nvvv-l6666-00('p.5'{+>-00++vrr:r:4!bff{pt{ld%",
"^48j*n*#b#f>!*>{%tl[l6l66ltdd-d%(hpp6||v-t-+6>^brb8br:#nn+('[dd[",
"    jnd68j^^:*b#f--{d%p'%hp(t%p%[6l|n+d(dl>6{fb:*8b!n^f>n{%t{{[|",
"4!j! !:r+vl-|^^##8^^#rn^+t[6tt[d{n^nld0-||d-r#j^b:*!8v|>6-{6|v{|",
" !b:* 4:*!#|fvf{[{n^#^^n>{%[lf66l6tl%t|+v+v:*r+nj*^bn6f0xpffv{--",
"b!  4jj!   4b*:r8>f6--v|#^+tt[ht{-+vv||n88*>r^#44b^8+fvhk2-fl%p6",
"^#j   bb:84:!    jj#>:*r^8n|+|r8>>6nr#8n#b:#*b!j#|+66+l[sp{lt[d8",
"-+^b4 4j#b44*jj 4!j8-0(%vfnn8[dl+88*n+6#b:8rr:*jb>{66t[{vl++-6#j",
"ht[6r!44 448>r:4!j*!!b+%l^##rj*!*88+f^rj!*jj*bjbf>ld-d'~{{vn{6^:",
"6l{{+^:^bj!8+>44jj    4!!    4:8n^|:!br^>#jj!  4r^{%%2t6-+6>|f8^",
"v|>>{-ldl|>rb4             *r^rbb:!44jrbj4!j*|nn>>+vt%{6+{{++f#^",
"f|{l-%tt[-6>8!4!4      4:b**b**!4 !!  !j*:*vvdn:^vldd-dt-6+t+8rn",
"ffv6|>vt0%68:*!b#b#jj48:r!!j#84!!4 4  4b8v{ln8>+vd't->f|6-([{rrn"};
