/* XPM */
static char * 22_xpm[] = {
"64 64 63 1",
" 	c #040204",
".	c #848284",
"+	c #444244",
"@	c #C4C2C4",
"#	c #242224",
"$	c #A4A2A4",
"%	c #646264",
"&	c #E4E2E4",
"*	c #141214",
"=	c #949294",
"-	c #545254",
";	c #D4D2D4",
">	c #343234",
",	c #B4B2B4",
"'	c #747274",
")	c #F4F2F4",
"!	c #0C0A0C",
"~	c #8C8A8C",
"{	c #4C4A4C",
"]	c #CCCACC",
"^	c #2C2A2C",
"/	c #ACAAAC",
"(	c #6C6A6C",
"_	c #ECEAEC",
":	c #1C1A1C",
"<	c #9C9A9C",
"[	c #5C5A5C",
"}	c #DCDADC",
"|	c #3C3A3C",
"1	c #BCBABC",
"2	c #7C7A7C",
"3	c #FCFAFC",
"4	c #040604",
"5	c #848684",
"6	c #444644",
"7	c #C4C6C4",
"8	c #242624",
"9	c #A4A6A4",
"0	c #646664",
"a	c #E4E6E4",
"b	c #141614",
"c	c #949694",
"d	c #545654",
"e	c #D4D6D4",
"f	c #343634",
"g	c #B4B6B4",
"h	c #747674",
"i	c #F4F6F4",
"j	c #0C0E0C",
"k	c #8C8E8C",
"l	c #4C4E4C",
"m	c #CCCECC",
"n	c #2C2E2C",
"o	c #ACAEAC",
"p	c #6C6E6C",
"q	c #ECEEEC",
"r	c #1C1E1C",
"s	c #9C9E9C",
"t	c #5C5E5C",
"u	c #DCDEDC",
"v	c #3C3E3C",
"w	c #BCBEBC",
"x	c #7C7E7C",
"       vgg^n{d-[2ptp05xln*j444   4j44!!*bbj!44 4!!j!  b8^n8rnvn4",
"    44jx[^b6[tp[0'p[+6+^j!44    !jjbb:b:r::*!4444!!!jjjj:n>##{r^",
"     4:0^*^l(''d%ppl^8b444    4b*>dlv+fn^>^^b*!4   jjjjjj!#^8>:*",
"    4j|dbrv'x~'t[([8bj4     44#|l[d{l00-{--{{vrj4      b4 4:#8#b",
"    j8{%rr+x52td6l8j!      4!8t%t{{-h.d6+v||v+|v#:!44j*^*4 4*^>r",
"   !8-xp^8{(p(pdt+!44     4:v%0t0hp'5p'.2.22hpd6f8^:***b88:bjjb#",
"   j|km0nft%%t%p%:4      !6%-(px~5.~~ph~2d{[(tth'6|8r**!:|t#!!4!",
"   48xk+>lt[t-+l>*      ![tt(x'.~.5xpp%l>>6d{l{d2kp6^#j4 ^|!4   ",
"  4*^+v^6'(0l+>8b      #{[hp5<s=c.0%'=(|+v+-6>vlt%p'd-#4 ^*44   ",
" 4jn6dnr-h'-{^^!      ^h(5.5kk-tt>>#|-'-v+|v6vt%[(x(xk+:j4! *4  ",
" j:l%[+80pp6n^*!     >'hp~5kk'xkll[6>0hk-v5s$c<h50({v[t->b!4j*4 ",
"!#+~x5(tt-dn8: 4    f.'%p~2(%=sl0d#r:v(h>b8%pk<p-{ld{(..+n*!b*!j",
"j|.g=k<d[6f#>4     bx'2px=p[vvn###r#8r8nbb!>l+v^8+-%%0[-vf#:b*4!",
"8(~]/<<dl|n#r      +p22d.xd^:j44*:n*444!*bb:rj!b*bb^ph-%'hlrj*!4",
"tg9=~kp{l+>r4     #-'5tll^:j!!!!*#*j*4!4 4r^v^44b::*--v-h~'|*j* ",
"te/p(d6v6|f*  4  4v[h[6^:*!4!j*rr#:88b!jj**#+|8!  j*d-|[.x'{fr*!",
"x1s('+8n6n:4  44!rd2p||b*4j#{-dpx00[l6||8**8d>rr!   %.(0(c9~'6#!",
"].xt{>#>|b!    *:lt'd8b**^lt%[%(-|-tdl6d[{n**6+::* 4r~=[d-t(5'+b",
"[d{+|68||:4    :>t'p>*j8+p'l[-xxdl[+|#>n6d0-#!!#nr8*![ocxl>[0h%n",
"0|>^8>#|^:    f-l0p5#j^l[d->6(ln|f^:b:8nn#^{[+*!4f*r!4-s5tv{{vl6",
"5>n8###>jb    5[[x[f!:6060nj4*:bj*flt^br^f|>v6l844jb>bj{x(l6>+{v",
"x'>nnr#>!j   4<+tc{jbv%{p0!!:b4r#8|vf8!!8>f|+l6|#* *b:88+dftdfv6",
"p~6+>br^!!   ftd0pn4+%[-.#r8bb|||f6f||{^*^>v|+vll^! j:8'8(v%'hl{",
"dhd-:br84    0{%2{*8%2+-^8|^|6v+|+[--v^n^8n8>|6fnlf!4r*v2|f>%p((",
"6dd+bbr8!    xl%.+4|0p6l**b6+|ff^#^6--66>rb#8v++|8-n!b*jfh8nt-0l",
"6t[|r*rr     [v%'^4{p'pdb!++nn8:bb:b*^ldl>#jb^{flv>f84:j*xxj{8++",
"d(.+^*#:     |+0db4-.%n#4n6##8^f+{+>:*f[%->j##8+^-f^^b*b:n2ll#n>",
"%d(6r*r:     >60-!4[5%+r*--^+|{+l66{v#*>60l8:bbf+>vn>r*r*#8%>#f>",
"060+:r#:     +{p-4 d50{*n%v*>+>rr*#[{+bj+6tv::b^l|n6^>4+vb#fv>|v",
"'|[[!:::4    [{264 d..-!+pf:vnn66{^:[-8*^{-6^bb^6d{{|+!ltr8b:666",
"->6(#n8#!    [p%64 {xh>!l{*n>^|n>8|#^d>>j6v[vrrrft[+6t:6[8bn!:8+",
"fn>0|^j#4    rtt0b f2.l![vr>nn^>#>r{!|v#4l6-6#^r|[l{v{v8.v!nb4br",
":b8v6b*#!    bvl[> :pp-jl0n:l#^^fn|f*^v#4{l-v^rr|pv6n+{*h[*rv*8:",
"*jb8f*:r*4   b-{[n  %h{b+l6bl^>v{6b6b|684[%-+r:*|%dv^-{rn|b:6|rb",
"+#8^|#*n*j!  !ht0|! ^0%^r%[f#-l[d8^%:6l#jt%66#:*fl%-8+[:bbb:>-f*",
"(f^#+fj:j jb 4h<(l:  ^%(^6'2d86+r+'fjd6::%-+>n!4#[dtf>l:4j:r8|{^",
"{pt#v6#b4 !8* {1=[^j  >00b|02%ttd+!!r{r!>0-{>nrjrtd6>>t#!!r88|vl",
"8(=6f{>j*4 :n4|/.(v#  j6(0^4^+8nn !rn+*4|tl-n8b:vl+vrnt84!r886>v",
"b>+%v6lr:b !#fv+'0vv:  tt[t+>bj*:r86fr!bl[d6^r!>^-{v#+-b4j^|rfvn",
"#^|-d{[l:84 *|t=[l|n>*  n[+tdd-lf|[%#!*|dtlf:j4|v%{v8+{*!#>v^8lv",
"+n^+[%['+#r  :[.<[ln^nj4  !+{{kk-.-n!*r+df^:b4f6t-v{8>nrj>8+vn%|",
"|+8>{ptt'>*b 4#((sp-f##b4     !r'{^4*#v6|^8!*4d+2t+l#||rbfr-+n+-",
"j^v8|th'tdr|#  r-{p[d6r::*4  4br*4rbfv|+f+f*4r|-'6d-#8j>8>^6v8f{",
"44:v#{0p'[+*^!  :n|'.([|::#*b!!*j8vttf->+{j*!|>0%{[nb:b^f^n|v>>v",
"*  6>^d[x.0l8-!  :>|(tf+l6n#8:^6l0h-f6>^n4j*flfpld-br^#8fr^v|+vv",
"684:[lr-[.k0l#n4 44:nr>6fnf|+lt00t^fv#>! !jf6v[d0vvrnjr|8nnv{6v>",
"rf*bb6d6{{x.'-r:n! 4 !b8>6-6+6{{6f##^r44*!:++v'([+88#*:###^6l>n8",
"rr:*^-0{f#|[hpd8:#b!8j4!:r#:r^fv|n>>*444j8-6+{0dlf##j*j*8>^{[vnr",
"!r::^n{|#br^-p0->*4488j!!*r*!*rb#bb!!!!bflt+6(t6-nb*jb::8|vl-6f8",
"!j*#|l|d|r>88f+v6{fb4:#rj!j4 !#*!br*#:nld|+|d0-[|:jb#r*rbn^|++6>",
" 444!:rf8ff[>^^>ff66>8r*!!4444!*::::|{h(l6nd0--+r*!8^b:+:#n{666[",
"^r  *b:||*#l%[{|f>>vv{d{+vffv6l-%t(550ddv|60+++r*#!^:bb#v>-[l6l%",
"8|r!rjrrf>^jb|l%[{t{+6++6l{6l0(%'hx2({+>+%p-+6>#::r:!4b:|>-h%l-d",
"44*jr6rbj^>j!:#+d-l-%((022'0(p((%%0+>||l%--f6n#:r*8b:r^r>n{(p-[d",
"   4r|{|:^+fr8rrnff>fl66d6|+{-d[+{>>+-0%{v|-|f*:*8:j^^v|n|-t-+vd",
"!*j 4!#n+6[+v^f{vrr:r#^|tp(p%dlv88>l[(dv|v0f8:j^*r*!b|vf+[-+|f+l",
" jb:4 4!4!j8n>+66v{6lv+>v+l>v%[[d%lt[vvvv6>:*r6^j*88^6f+x~(n|vd[",
"*4  !b*!   !4 44br^|f^br^+d0%tl|+vvvf|>8^brn#nr44j^n^+|655pl|t((",
"8b4  4*r#rjb4   !*:+66n^8^^8:r>6>6>::#n^::#:bb!!8:-|6{{60=%+ddl{",
"l|#j  4:* 4!*b4 44jv[%x[|8f^d[lf##j^+l>:*r^:r:*j:rlv6d[plf{|+-+r",
"ttl^* 4 4 r>|:b!j*j4!bfv8rjj!j!jn#v+8#bj4*jj***!^n+{t[[.'6{|nl+^",
"{+66|8>8bj*>>j 4*     4      !^^8f^*j:#>8#jjj4  *8>[0%2{+-+6n|f#",
"|f>6d-[[{|#r!         4   4#rn:*b*444*:*!4!!!+v^>fv>lt[{666{++>#",
"f{l-t[dd-{>nb !!!  4   j#bj*j**4! !!  4!b*8^l{|r#>{[[d{[[-66tf#r"};
