/* XPM */
static char *_6e3012be83e433dbaf6ddc97efa6cb8EElKV130LNb5CJKc[] = {
/* columns rows colors chars-per-pixel */
"64 64 64 1 ",
"  c #040204",
". c #848284",
"X c #444244",
"o c #C4C2C4",
"O c #242224",
"+ c #A4A2A4",
"@ c #646264",
"# c #E4E2E4",
"$ c #141214",
"% c #949294",
"& c #545254",
"* c #D4D2D4",
"= c #343234",
"- c #B4B2B4",
"; c #747274",
": c #F4F2F4",
"> c #0C0A0C",
", c #8C8A8C",
"< c #4C4A4C",
"1 c #CCCACC",
"2 c #2C2A2C",
"3 c #ACAAAC",
"4 c #6C6A6C",
"5 c #ECEAEC",
"6 c #1C1A1C",
"7 c #9C9A9C",
"8 c #5C5A5C",
"9 c #DCDADC",
"0 c #3C3A3C",
"q c #BCBABC",
"w c #7C7A7C",
"e c #FCFAFC",
"r c #040604",
"t c #848684",
"y c #444644",
"u c #C4C6C4",
"i c #242624",
"p c #A4A6A4",
"a c #646664",
"s c #E4E6E4",
"d c #141614",
"f c #949694",
"g c #545654",
"h c #D4D6D4",
"j c #343634",
"k c #B4B6B4",
"l c #747674",
"z c #F4F6F4",
"x c #0C0E0C",
"c c #8C8E8C",
"v c #4C4E4C",
"b c #CCCECC",
"n c #2C2E2C",
"m c #ACAEAC",
"M c #6C6E6C",
"N c #ECEEEC",
"B c #1C1E1C",
"V c #9C9E9C",
"C c #5C5E5C",
"Z c #DCDEDC",
"A c #3C3E3C",
"S c #BCBEBC",
"D c #7C7E7C",
"F c #FCFEFC",
/* pixels */
" >$A@OB=l,f%la&8@2dx>r      rrrBjaagXy8;avv&v&&<nOxx    rrAx  x6",
">d0CMOdnMt.M@8<8jx>>r      rr>OXw@@y<v@,CXAA0AyAXynBd>rxdOOdx>r>",
"6Aa%MnnAClwlM@@a$>r       rr$Xy@aCC4l;D.a4Mll;wD@vX==iB6ddd==iOx",
"6&pZ@n=CCl@@C@MA6r        riClgg;;.c.lM%ll,ttllDC4D&y=iddx>60lj>",
"x0%cA=Xa@aC&X<=id        r2g8C@;D;;,ttftwl,D<Xvv&;MV.8jid>r n&d>",
"$jXynA;llC&y2jxx        >gl@w.;w77+fpt.w@4C<=0v<8ACD;a8g0$r jOrr",
"n<<nO&.Dl&v=iBxr       O@wl4,.,.%,@aw@ga4;C0X<CaXj<&@t.tan$rr$ >",
"vCvABgtw;yn2i> r     r2.D4CM.,.%%;@@@==BAct&jAnyA0A<4wgM;vjO>rr ",
"wwwg&;@aCnijd        BwDM.;a+cMa@,p78A8&0ja48AA=XA4@a@vA;MMX2x>x",
"mtc,44gvjiOi        ><@;tl<l,w@ggMlA@wAn2jD7.jDm3%c.f4Cg@,D=idx$",
"qcfq@@<0=nB$       r0&@c;gCD4@Ani2BBO22iiiC.Mn$AtcVM<<gvagvgv=Bd",
"hm+f8g&<X0d   rr >rB<@MM8vj0iBdx>>>>x>>$iOB=nB6O@wftgCM;aC8M,a=$",
"ft%ay<v0nO>   r >dByawDX=j6$$$rrr>>x6i0B>>$OBd$x<C<=6Bi0;agacwvd",
";;gAj=X0$>      Biv@aM8=i$6>rr$dd$x>>6>>$r   >ddi6dBB6$2Dv<wt;g0",
"DwXi20A=$>     niAC4Mwnd$$xBi=yC@C<gv=6d$>r>  xOB6>r>6idyy<M,p%.",
"@&0nOAAidr    $m=C@w;l6>$2Ag;;8888w.laMag06>x$xdAgir>dx6yCy4.f,D",
"<Xv=Oji$$     ;fXC%@AB>dA&8g@Cg8<@4CAyggv<X=d>dd2j=B   $vlM8v<C;",
"=2=i20$>x    dM08;c<d>6A8aya&26@.wa<&=nvyv<Cg=dx<A6O$rr v%.Cv=X&",
"iiOOi=>xr    C8@8D&irOv@8X;Cdx >d$jAXagA2ijj&8A6x&g66>  >w3fcy<v",
"nn6dB2>r     f=@wMi>28aaXl.Br>d6$x$xdj0B6OBBX&4<d>i=B6drxXmVw80v",
"jjd6O2$     >DA@Da>r<4wXg4=iOOBddniiOiy@0d2jjO=C&d>>=iOi 6aVfwyM",
"0dd6BOr     iv&4M= i&D@<=x60Adn0XjjjA<Xjd>dOnjn0g&Br 0d6$rr&;=<4",
"j6$did      ii@ayx <4wllv$>$=vXyAAAj<XjA<0>6jn0j0yv6 x$d06$ivC=M",
"=i6dOd     rA=4a2 r8.lA<Br$y&2jAj0=X&8v<OA=$2j0Xy<<=6  ddBnnA400",
"Ai6di$     >gylad 64cCAOx$AXi222Bdd6iAg&0nni2nAjAvX<nO >$O=.BvB&",
"j6O$O$     xl<wv> 24tgvBd<v2n$nO2n2OB$BA&XX6Bni=jX0<vi> $dd8c0 6",
"2dOBn$     r%X@Ar <M.D2$n8<0XA0XgCgvAO$2<@vjidO2AA&2=8B xOx>v.0>",
"<xnx=>     >CXM<r yl,;d>8Mj$ny<=O20yvA2xX8Cvid$O=yAAn<<$xdx$O+cj",
"Cd=rB$     $AXC8r 0Dwy>2g4$i0=d=0262CX066=g@X66di<j&AnA2>>BdBAM&",
"liO$dBrrr  6&<Cy> <;t8xyvidj0O0yjvXB0CvixjA@&n$O22Xn&0=2B>dxO6O@",
"@0$BO$$>r  ilya0> j;4vx&gxiXijjj0injdvg26OX&806dxi0=y0n=6dB6x2>2",
"A=>O=$>xd  AVa4Ax $l;A$<8&6Ai=n=2j6vOO&nj><A8AB6$iyA2Xnnn =AdBi>",
"j06>Br >Ox Opfayd  v;A$Xvy6y<ni20=X==xX0Br0AgXiddiA&00X=jry;n$=6",
"A0=$d> >Oir=-7DXO  BCaBna8inyOXy&00i2rjAOr<vgy06dijCgjgAjrv82xO0",
"0<Adx$  B=$dV,wyi>  0a@d@;&O<vXy&0$<Ax&=O>&v<AXn$ijC8&<v&>Caj>xy",
"=&yBxOr $ivg0l4y06  B8l2nMDaiXa8n6&4OnCiO$M&8AjOxiy8&&A08dXVA$dn",
"n<&0di>  B0cw8&00n  >8a@6nCwa&v<&v4Ox<gnxnwXg0BB$0yMA<20gB>lAdd2",
"00&C6B2r dX8-4&j==$  a&4Cdr0gy<80i xBg06xg4AgjOB$=y;0j=&&idOBd6O",
"avCl8Odx  6wCpC&2n2>  vCCCnd   r  $B00d>2@80<i2$$0v;XA2<C6d>6BOO",
"ga8MwAd0> r28Mc4A226>  inC88AiiOBB=AyOx X@&vAnOxrn8&ggBXC6>r$O2O",
"8w4&ag6jn  $gy@av&6O6   r<&vMl&=j&80Oxr2gggvn2Od>j4Cv<BX<6>>din6",
"vaDtC@0xnx  djjM44<6B6     i;fCaw@vdxdiXa8<Aii6rAjCyA2i8;Br dAA=",
"0g;lD8aj=&   O0<%l8v666>   r>6aDAi>>dBygCg<XOd>=2AvXA6=yXdr$ijyX",
"=v@a,f@anji > >jjXj<v0OOdxr>dB6$r $$nA<gj=iddr>0=8gy=OX&<x>O=2g<",
"=nC@a%7482$O r $nOjnBX0idB$>$x$On6nA0y<22266rr<A&8A<j20j2dxi=2<X",
"A6i&8@%tlvBn=xrx xi<XXj=AA=j00jyg48jyy20XB$$ <g&;vA&22AyBdB0i=0j",
"C422vA&;l;<BxOBBi >i=08&<vg@44lw@Xj<<=Ag<>d BXj;;&X@OB0Bij=n22XA",
">CCC&Ojylw@X6r n6r$6BBOinjX&vvXO=<AiAOAdr$xdj0gM8<&gBBB$iiAO2n0v",
"$iw40B6O0&gv<ixr2j>>xBBxx2jX&ynOBdin$> x$$i<Xj;@vyCO6n$O6Ai22nXg",
"60&y=6jin=0jAgyB>>Odx>x>>diOB220j2$r> xx>0yyj&ag8<A$=BxOB0Bj6By8",
"OnX@&ni=22n=j=yA=Bxrr>x r$2BOB6d>>rr >$x2yv0&;CaXyOBA$$6$dd=Ajvv",
"=vgAgXi4gXAA0n0Ay@vAi>>>r>x$>$O6rrx>xOnv8X0XClagy=6iO>$$>6OO0ij0",
"rBOinB0<;MgAXvXX0jAXyyj2nnOO6B>rBO$B=Av8gXy84g<gj=6$dx$i>iBBiiAy",
"x$$BA=xd6j&l4CCygg<yg<y&@48CgvvX<X8wa80X0Agl8vg&nB$ iB$O><i22j&v",
">$Bij<=n>$OA8<&a;;;D;wM8gg@C;4DccwCC8<y0n@MagCg2dxxr0OBd$6OvjvM4",
"iixdd$njx>B2jX0=y&y<@CCCllM;lll;MCvvv=0ACa<X<yi66Ordnx$rdB6=nX4l",
"6j@=O$B2nBi6OOi6BijgMvyyvgg8<&CXjj0=jyaMlvXy<=dBdB>26x6OB=B=ny@4",
" O=<yAivvnn=<0iBii2=&Ml;@@8g0X=nAXv&aa&g&j<A2idO66B2d>O==y020vg&",
"rrri20A@vyXXC8yv8&<=jAyn2XAXnn2X&v4;@Xvnjv8n06xO$diddxxiyAj<880A",
"$ rrx>rx6nnj2n=A<Xi6O0Ca8;D@84a&aM8A0AAX@8Oi2x$ji$ddBjBA<=<.cl02",
"r$d$>    d>  r>d2BxB=2jXg&An=0AXyy00<A0XX6B$dOXA$rx$O=20XA<,,;8j",
"  $d6BnrBr    x$nX@v0ijid6Bi<j=vjnOjiBii$$jiOi6$rrO6&0yXy<X;+;v8",
"   r2B>rxdxx  >r$v@M,8==nv4@<An0$d6iA026dB6i$B6x>$OdyyyXC&vjyg<v",
"$  r r dd6$Bx>x$$>>OA8jnd6x$xxxO60Xyv26$>66O$666dxj=y<vvgC7wX8<j"
};
