/* XPM */
static char *_98aa11deff04d29c9c9a71198577195dJaeGUvkWCVvdx5I[] = {
/* columns rows colors chars-per-pixel */
"64 64 64 1 ",
"  c #040204",
". c #848284",
"X c #444244",
"o c #C4C2C4",
"O c #242224",
"+ c #A4A2A4",
"@ c #646264",
"# c #E4E2E4",
"$ c #141214",
"% c #949294",
"& c #545254",
"* c #D4D2D4",
"= c #343234",
"- c #B4B2B4",
"; c #747274",
": c #F4F2F4",
"> c #0C0A0C",
", c #8C8A8C",
"< c #4C4A4C",
"1 c #CCCACC",
"2 c #2C2A2C",
"3 c #ACAAAC",
"4 c #6C6A6C",
"5 c #ECEAEC",
"6 c #1C1A1C",
"7 c #9C9A9C",
"8 c #5C5A5C",
"9 c #DCDADC",
"0 c #3C3A3C",
"q c #BCBABC",
"w c #7C7A7C",
"e c #FCFAFC",
"r c #040604",
"t c #848684",
"y c #444644",
"u c #C4C6C4",
"i c #242624",
"p c #A4A6A4",
"a c #646664",
"s c #E4E6E4",
"d c #141614",
"f c #949694",
"g c #545654",
"h c #D4D6D4",
"j c #343634",
"k c #B4B6B4",
"l c #747674",
"z c #F4F6F4",
"x c #0C0E0C",
"c c #8C8E8C",
"v c #4C4E4C",
"b c #CCCECC",
"n c #2C2E2C",
"m c #ACAEAC",
"M c #6C6E6C",
"N c #ECEEEC",
"B c #1C1E1C",
"V c #9C9E9C",
"C c #5C5E5C",
"Z c #DCDEDC",
"A c #3C3E3C",
"S c #BCBEBC",
"D c #7C7E7C",
"F c #FCFEFC",
/* pixels */
"$=&;ndiC.,w@8&v&O>>>r      rrrd=;aayX<gDMy00jjAX0<0i6$rr$dBO$>rr",
"n8tw0nng;wllC8MXxrr        r>nA84CCg44wc;Ca4;a;ll&X==nO6$6$On2O6",
"v7htnj&@MM@a@M@i$         r><lCg8;lt,.MlDwD,,D..M8;aj02id6>$iy;n",
"=,m&jn8@@a8<X&in>         xA@g8@lD;Dt.,7,4Mc.<<4<8D,%4<iB$>  ig$",
"=g&jjCwM48v0=2dr         OMa@.lMDfc,%fltDll4v=n=<8AM.;@v<O>r yir",
"A<j2AwlD@vyO2dx        >A;D;M,.,.c%,w+wa@CM&yiyaCj888Mt;l<O> $dr",
"g&ABADDlgA=2Brrr      xC.wa@lt,t+pDyC@X<&4VDA<<vy0jAXDl4c4n2$rrr",
"MavACwMlyinnr        $y,l4.MM7,;M@@,,@nj=2A;a<A2X0<44a@yj@MgjB>>",
".cDMMC&<nO2i         n&MM%4vwcl@8@73l4Da&Xj@D;<8&@v84;MvaD,Dj2$>",
"%fma4&y==iO>        Bv&l%@&atwlvAjX0nn0iO$Bl.;B43mp-cD88ACC<jjO6",
"p73wg&yAnj$    r >rx084wC@<AA=i6dx>rrxBii2iylwj60wcf4g<MaMCC;MvO",
"+V.v&&0AnB    r  B$0g;w4A=jB$x$>>>>>>dxrrdBB2=66$@a.lygv4t8@;,ly",
"l;@A0<vB$>      >2AC@4M<n2$d$rr r>xx>$2Aix>xBOd$>X@v0$$O04X<Dcl<",
"wv2nj0jO>      =yn8a;l8i$$$xx6B2=0iiOd$>>$r   >d$OOd6BBxiM<Ct.D4",
"MA2O0<2i>     >p8gClac0xxdij<@a@44a@MCX2B$xr>  xOB6> >6id0j0C%-7",
"<y0BjA$B>     8p0g..<=xxOAv844@v8X8MlMa4a8A6>$xr6=vO r6x6gC@M;4a",
"jynOj2>$r    d;j8@fC2>>2X@Cy@&y<@l..@AX8gvyA2$xd$=y0B r $vD48<j8",
"ii2i0Br$     @@&@D8jrxA<a&A4&2$d<@<<v8Xnv<&v8&ixdjOBO$ r &ftC8=y",
"2O66n6>      f0ClwnxxX@;<&Dw$> xdBdO628&0n2=08&=dn@X66r  >D3f,Xv",
"j6d6n6>     6lACl;x A8l4jl4O$$6O>>>x$6Aj66BO2<8@n$$&j66>rxy3VD@=",
"nd66id      nXg440r$<;MXA2Oj=jd>Bjjiii2vand==Ojvaj>>Bj6iBr2;V%4<",
"d$dBOr      ni@ay$ A@wM;addB=dAXynAj0y<XO$x6iA2OyCj>r$2dOrrr84jv",
"BddBO      >XA4a2rrgwDg&y$>dX&AyAAA0XvjAyyd>in0Anv8j> 0d60xx2g8n",
"2B$OB      B8&l@$ d@,;0Bdr6vy2=0n=2j<g&vjjy66===00Av2rr>$OOBB<4j",
"OOxiBr     2w8ly> 24t&vB$i<0OiOOB$dd6=&8X=n=6n=X<<vynOr ddBX;O<x",
"d26Od>     6%v8jr <;D;AdBgv00Oj2==jiOdB0<yyidi=j=AyX&=i  $6Bwwi ",
">B$0d      6g&4Ar <lt.6>y@y=jXAyv8gvyidBj8<<B6n2=jXjX<O> $d$64Dj",
">jx66      20&C<  y.w<>dC;2dnXy26i=X<<26ng@v=i$d2Xy<2=@B dOx>X3,",
"Bidxirrr  rAyCg0  ClDy>Xg8$20n6j0nBd8yAi>08CyOxdi0X0XnvX$r$$6d@;",
"=$BBBx>>   8aggi  ga.X>g<>djjiAX=vyOi@v=$BA4&AxO6=<ng0nA2>$d$i>=",
"A>B26 $dr >wfC8i  &w82xggdiX2j=00i206yg0dxXX8vdB6200y<0iid$6$6ir",
"jx$nx >BB >w3wC2r 2MM2dg@AxXi=nn2jB<2Bg=0xjXC<O6d$=AjX0ijd6Bdxid",
"0ir6r rB2rrt-fg2>  yM=$&yy$vyninjnXnj>AA=r=<vy=666jv=2yijd &&d6j",
"AA6>x  6=6x.+D8=6  Oa42A4gOjAOyX&jAOnr=X2r2<Xgjd6BngX2vnAi>gaOx2",
"vX$xBr >6<vjM;&XO  rvMA24M8dv<AXvAxAXr<jOrXCyvXBB$j&g&yXyi$CCdx$",
"v<2$O>  6AlDgg<0j> r2aldAlDgBv4C=$A42OC2i$<gy<<62Bj<C8A<@n lM2>d",
"<gvdOir $=<k4g0njx  g@48>nal8vAA<vl=>AC2ddlg&<0Od60g&80y&X>@fnd6",
"j&a=6B>  6.838v=nnr  @v4X>>ygv8CA= >dC<OxAly&AiBxj0lA&jjyyd2C2$d",
"v8w;ndO  r=awcMjindr xa<a&2>  dd  $6jyOd6Ca0gjB6diXlAA2v&ji6666B",
"aCa;vdy2  $8<la&XBix   OyC@y266666i0<Ox X@8Ayi2$$=<;yXB<Cjd>>6O2",
"lM&@8i6i   Bn0ag8ndix   BCA8M@An=vy0id>6v@v&0=Oxr2&8v8OXvyxrrdii",
"4Dt@@<dXj  >0A@c4a=dB>    x8f,&8@lABxxdX@ggA2nOd>n@a<gi0y0>x>6A0",
"C;lDgM<Bgd r>BXM;yg=6Bdr    >X.wy26$6dy88gvABO6rAj@<Xji0.=x xBXX",
"<CatV@M0BBrr r2=2i=<viOd$rrdOi02d x>B0y8gvy=2>>=n0&XXBn0vO$ri2=&",
"j@@4c+Ma=x0x   $BA<in026Bd>>  >$Ox6=XACn22B6$ x0=8&<jO=v@$>$jing",
"$0ggCctlgO6jirix>6j0vvn0XniBi620y&<jAv2nii$$rxvj&C<yj2nX=i>6Xi=A",
"<Bj@y&MlM&O>>B$BrrBj=yg<<&C4aawl4&jvv2XAAxd>>Cy8MXA&nij<Oidin2jA",
"lgX&Ojylw@yBrrni>$BBBOin0<C@C8y==yy0n0<g$$x 0AAwMvyCOOAOdAnAii2A",
"iCl<2BiAvv<v=$ 2n$>xOB>$njXvX=OnAB2XOn6rx$r2jja;&vv8O6iddO==injX",
"Oa8AdOin=0jAg<B> Bd$>xxx62i2A=in22O>> >$d6jgnvw&&A@2BOOOdjjBn6BX",
"jA&=2=nOin=j=yAjOxr>>x >62BiBB=i$ rr $>>iy<X084&8vX$nB$BBi2BAi0g",
"yggaj6&y0jAjn0A<@<j6r>>r>>x>r>d>>rrrrxxnA&jXaaCa0vB6X$$6dxdBnA=X",
"Xj2<yA&wMg0XyAAj0Xyy0i$dx$x>6Odxdd>x2=y@vjyv;l88X=dO2>$$dxO66n2j",
">O6Axi2ygCMa@@<gvyy<y<gC8yjiiB$BO6jXy<&8Xy<@4&yg==6$dx$Oi$X6Bi2y",
"66$AXOO$dng@vvCM;4;MM8vCMMll@a4M8@D48AAAAy;@g&gvn6$rOndd$OAiA=v8",
"$diOAA=x>6iy<<vgaC4ll;a;aa4lw.%,wCg8vyX2&a;C88&idxxr2=6Bx$$nX=v;",
"=OBB>B06xdi2j2BBO=&g00yg4@gCalCCgy<y=0AvMgXy<XOddi>xOO>>xBOO=nX4",
"na<X6d20O2nid66Bii04l;44C8Cyvv=njA=jXa4;4yyy<2dOdBxB2BrnOn02==v@",
">O2=8=<gA=2y&A==jAjy&&<Ayvyn=inXy&gaa8&gXj<0nidO66B2Od>22jXjnyvv",
"r BOB=gvyy0ggX&88<nB2g&=g8&<A0Xg&aMMXyX2X8v206>BB$BO$$xdnv0Xg4gj",
"> >rr rxiBnOO2=j<2$O=y84Mw@ga4&8;gyjXAA<M<BO2x$jjdxdx0ii<A=8,%l0",
"$Bdxr   >r   rxBn$di=n=A=iBOn0XyAX0A<AjX0dBddi=AOrrxd==2X0ygc.4g",
" >ddOnrBdr   rdxXgMy0j0B6=0yv=y<=62=OO2ix$n=BBB$>r62ng0y<X<XDVM<",
"  ri6$r>$d$> rr>Ogv.w&B0i8@gAj2i$6B2XAn6dB6i6di$xxddOgA<yCg&=Xg<"
};
