/* XPM */
static char *_65498a2d8024ca8c0f508506678058071zSGackc3B34Ur2[] = {
/* columns rows colors chars-per-pixel */
"64 64 64 1 ",
"  c #040204",
". c #848284",
"X c #444244",
"o c #C4C2C4",
"O c #242224",
"+ c #A4A2A4",
"@ c #646264",
"# c #E4E2E4",
"$ c #141214",
"% c #949294",
"& c #545254",
"* c #D4D2D4",
"= c #343234",
"- c #B4B2B4",
"; c #747274",
": c #F4F2F4",
"> c #0C0A0C",
", c #8C8A8C",
"< c #4C4A4C",
"1 c #CCCACC",
"2 c #2C2A2C",
"3 c #ACAAAC",
"4 c #6C6A6C",
"5 c #ECEAEC",
"6 c #1C1A1C",
"7 c #9C9A9C",
"8 c #5C5A5C",
"9 c #DCDADC",
"0 c #3C3A3C",
"q c #BCBABC",
"w c #7C7A7C",
"e c #FCFAFC",
"r c #040604",
"t c #848684",
"y c #444644",
"u c #C4C6C4",
"i c #242624",
"p c #A4A6A4",
"a c #646664",
"s c #E4E6E4",
"d c #141614",
"f c #949694",
"g c #545654",
"h c #D4D6D4",
"j c #343634",
"k c #B4B6B4",
"l c #747674",
"z c #F4F6F4",
"x c #0C0E0C",
"c c #8C8E8C",
"v c #4C4E4C",
"b c #CCCECC",
"n c #2C2E2C",
"m c #ACAEAC",
"M c #6C6E6C",
"N c #ECEEEC",
"B c #1C1E1C",
"V c #9C9E9C",
"C c #5C5E5C",
"Z c #DCDEDC",
"A c #3C3E3C",
"S c #BCBEBC",
"D c #7C7E7C",
"F c #FCFEFC",
/* pixels */
"&DD<iOvMllla8846>rr        r>B0&M@C&C@M%DCC@4@a4lCyj2ji6d$d6inOB",
"c17==A@awaMaMM<d>          rjaMg&44lttM4D;D,t,,DD8@4vnn2O$d>d2v@",
"to4j2va@48&yg<nO          rB@CgC4Dww,Dt.7lMtcav4@gl,.DvjBBd>>x=a",
"@@An<l44a&<=A$6r         >&4Ca.M;DDD,.tt,wlD;X=228vyc.M&yjx>rr<i",
"Xjn=MwD;vv=O2xr         B8DwM..t,c7VV%-w.484vA=gag0aM8;DCCj$r 2d",
"gjOn;tw@<A22$rxr      r2DDla@.,tt+p;vC@g8a;@v0y&@<jjA8cltV&BB>>r",
"8<ny.;.C=O26         rOwtla.M;c.ww;a4a@=jB&Vt<0jn<jygMaCyACCXi$>",
"cMaM@&8AOi0>         x<@;;7@&cVl4C4V-VC=&8j=4@yjij=&MCa@<www@0ix",
"c7MaCvA=iBO         >X&Ctc8vMttDC<Xg;ACt8j0jw77vt%,447l@vXMw8iid",
"%ktC&yjnj6r    r >>>iv@4.g4<v<X0iOO2Bi2nO6ddaw<r=,pmma<ya8a&@Cvj",
"3%aggyyjj$    r  6$n<@lt&A==BBxd$x>>>>>$BOni28D0BAl%3.@@;;;gat.a",
",lXy&y=6$r      >nn8@aM@X==$dd>rrrr>>x66$>xBBij6dxCg@v=0nglvvDtl",
"8X==jy2x>      Oa6&@MMDAB$$$>rrxdd$x>r>i0ixr>6O6$rAa<Ax$6gw0C,DM",
"<2i=yjn$>     >fDyC4wMtixxd6n=0<v@&vj26$xx$>   >d$Oi$dOB$OgX8lf+",
"A=O=<iB6r     ymjgM78AO>xiA<g;wa&C@8lD;&0O$xr>  >BB6> >6id0&v;%V",
"&0Bnj$r$     $D=8g%;A$>xny@Cv8CgCvyC@4CCaa8Adr$r 6n06 r6xBa8;gv<",
"jnO0n>$>     @4y4laydrBXva&A@CjdXl%,.@XA8g<yAOx$6>=8X6 r $g,@CXn",
"OiO=irr      7y8;Dy6 ngCM<<.46$r>$26y&8X2&v8&&Xd>6dBiO$ r Cfc.w0",
"Od62ix      iMA8;w6 Bg;wyA,M6 rx666ddxi8&0=iny@vi$A@OB6r  x,3clX",
"6d62Or      jjg4a<r>X8l80802nBBO6rr>x$6Xn6BBn=vCvOx=@26$rrxvm7tl",
"ddBi$      rj2aa<6r28;la@B$OAA6dOjX=iiB=g@BO=B=yagd>BjO6Ox>0l+.y",
"$$Bir      $Xy4a2r v;taa;i>xd2<yy0AX0A<y=O6$Bj0B=8g$>>=26nrrrg@j",
"6$6i>      =8ClC$ >C.lAnix>O<&=AAXAj0v<=yyO>din0i08v$> =$66>x288",
"Bxii>r     &;a4y> ia.ayO$>2<0n=j=22iAv8X<n&=>ij=AjX&yx id6ABdx&M",
"OddB$     r&D8gnr <MtagdB0&ABOdOBdd$6iyC&j2Ai6nA=AyXvn>  $66vg2=",
"ndjO>     r0yCa=  vlttO$i8XyXj0=000nBBdnv<X2=B=nXy<&y=ir 6$O2%@B",
"ixOi      >A=8aj  v.D@$>84yBiXXvy8g&vj6>nvXvi6B===AAygji  $$6=tD",
"=6>2 rr   dgja&i  a.;0>n8lBB=AAidinXXvnO6XM<yid2ijjyjA<O> dBxr8m",
"BBxOr$>r  Owy4XB  a4,jr<vX$n0n6AAjOdv&Xi$Av@v2B$6n<yXi0@B 6Bx$O;",
"xBiBr$dx  <V44Xd  444ix@X>B0=iAAn<<2xavXd$jgCA6x62X0XAiv0xr6x6B>",
">dj6rrdO  j-ca<6  CwvOB&CBiX20=002i0BAg<6xAXavO6BBAyA&jO0i>>$xi6",
"dr6x  dnx 8qVlX6  24giOgai>Xi=nn2=iXj$gXj>nXCgjdO2Byi&A0iO$6B$xn",
"2x$>  dnix<-DwAi   vMjdgA<$&X=i2jnyiA>0yXr6v<8j6d>2j=yAn2j>6iBxO",
"X6x6r r6yXj8D@y2>  naM$&4vB00ByXg=yB=rnX2r6y0gABB$i<XiAjO0>>M8dx",
"XdxOx  6X@c<88j06 r6g420M48$&y0Xvy>0yr0AirB&A@0B6diX&j=vnX$=gg$x",
"v=dBB  $2Ak;8An0B  xvl8><wwvOgM@jxn@=dCjOrnaAgXOBxn0Cg=gjy>jCgd>",
"gg662>  B.&m8<jn=>  Dv;vr0MlvynnAvDvdn@OixvCA&<d=6=ja8<vy8dd,DO$",
"&aXOdx  >j;.%;=i=Br dCg@=r6&gg@C<j>x$8gnx6wg<&ABB$0<ggvyjCi wlid",
"8lw0dXd  $80tagjO2x  n8&4AB   =2  >d=gj6>v;y&X2Bxnj4vvy208O>j0Bd",
"ga;g6==  >n<XavgiBBr  >n888j6dx>$dOnyn$>naCjg0B6dBXM&X=0v&i6Bd6B",
"a&C@=x=x  $A0Mwag6B6    yvv@ayjniAy=Ad>r&@vXXO2ddn<M&XiXyCd$r>6i",
"DDC@gOA&   d0X%wCvB66    r0t+My&8;2=d>>j&C<&jj6>>2v8&8=jX@drrx6j",
"lDDgMgBA6 > xA=y0v<B6B>    r0;tlvX6x$$j&CgC=inO$r2C4<C=2X<6>>xB<",
"aMtV@MyBd6 rrB=inOj8jBddrr$O2=<jBrrddAya8vyXi6B>=0@&XX2=lCBrrOij",
"@a;%+M4jxA2r> rd0g0O=nB66rr rr   d$i0AC<vvyBi>>n00gXAinn&=d>x0B=",
"v@8aftlC2d2O>n$r6n2g8j0A266B$iO=O=A0A&A22OdB> B0ngvy0O=<ai>>6AB=",
"6Xa&g;lM&Ox>$B$x>$n=jv<<&C@Cv&C44vjX<=jii66>r6<jg@&XjinXjid$2020",
"0dAi0<wD@yO>rin>$BBBBO=0&@4a;lay=A&v2A0<d$$rB@X8a0AvjinyAOOOnO2n",
"C@C22nX&<<&jd n26rxOB>d=0X<yj6n<y0n=0ygO>$ $yA&wMyyCOOX2$=jjjOn=",
"MDX2dB20AjA&<O>r6$$x>xxBn=0AniO$B=06Odrx$>$=A0M;vv&@O6i6d62=i2i=",
"&v0O2j2in=jjXAjOxr>xr >BB6BOn00nO>>>  $$di<X2@lyvXCnB$ndidynOn$i",
"2gg=innnn0=nAAgC<n$r>rrx6dOB$$x>rr  d>x$X<<=y4@vC&X$2BO$BB66OA=<",
"Cyg<nvav<XXAj0j0yXynd r>$$>OOBrr r>rxx2j<y0<Mg@C0v6dX6xddx$BOiA2",
"OOAi0X;way<8@<&<XyXv&&vyj2BdrrBid>$njy@&jAX@wM8&X=dOn>x$Od$Od62n",
"B6A6x6invllCy&aaC@M8<v4;aMCvyn=2n&&<<vCyXyga@&<&n=6d6x$$2d=<diOA",
"BdAyAnBxB=gg&aMwMtDDMC8g8C44wc.Mawa8AAX008l@v&8<26$rr0i6d>iiAX08",
"xOd2=0O>di0X0i2n=A<X&awl;MwwD.DM8g8&Xy2AaMag@gvid$xr$0d66xddn==v",
"vBir$=i$d6B=2OdO=g;g<y<vg8v8M&vXAyA=0AX4avX<<XBdd2drBO$r$diB2=n<",
"&&&O$iXjO=ni6BBOi2yMll4a88AvXnnjX=jXC4;;vXy<<i$O66dxn6dx0ij0=n0&",
"6BBgX8gy0n08&Aj<X<Ay0=20XjOiOnXyv844@vg&=A<0=id6BdBiOd$>2=0A=j<v",
" 6idB0&AyAv&XX&8&n6i&a<8;@CyvvgC@MM&Av==y@y20Bx$2ddOd$>$60<=v@;g",
" >r   >BBOBdO2=Aj662nya4;@v84<<4Cvj00XXvMXBO2$x=XOx$ddXij&=0ac%;",
"6dxr   r>    >x2i$Onn2=nBd6BjA<0<j0<AAjXAd6OdBn02rr>xnj=ny0<a%D4",
"rddi=>dB>    x$iv;avjAn6OX<8yjg0iB2=6O2ixdB0O6Bdxrxn6vy<X<y<Xtf4"
};
