/* XPM */
static char *_639e45654a748ebb64d035652675f34c9j6WvobAEUxED4g[] = {
/* columns rows colors chars-per-pixel */
"64 64 64 1 ",
"  c #040204",
". c #848284",
"X c #444244",
"o c #C4C2C4",
"O c #242224",
"+ c #A4A2A4",
"@ c #646264",
"# c #E4E2E4",
"$ c #141214",
"% c #949294",
"& c #545254",
"* c #D4D2D4",
"= c #343234",
"- c #B4B2B4",
"; c #747274",
": c #F4F2F4",
"> c #0C0A0C",
", c #8C8A8C",
"< c #4C4A4C",
"1 c #CCCACC",
"2 c #2C2A2C",
"3 c #ACAAAC",
"4 c #6C6A6C",
"5 c #ECEAEC",
"6 c #1C1A1C",
"7 c #9C9A9C",
"8 c #5C5A5C",
"9 c #DCDADC",
"0 c #3C3A3C",
"q c #BCBABC",
"w c #7C7A7C",
"e c #FCFAFC",
"r c #040604",
"t c #848684",
"y c #444644",
"u c #C4C6C4",
"i c #242624",
"p c #A4A6A4",
"a c #646664",
"s c #E4E6E4",
"d c #141614",
"f c #949694",
"g c #545654",
"h c #D4D6D4",
"j c #343634",
"k c #B4B6B4",
"l c #747674",
"z c #F4F6F4",
"x c #0C0E0C",
"c c #8C8E8C",
"v c #4C4E4C",
"b c #CCCECC",
"n c #2C2E2C",
"m c #ACAEAC",
"M c #6C6E6C",
"N c #ECEEEC",
"B c #1C1E1C",
"V c #9C9E9C",
"C c #5C5E5C",
"Z c #DCDEDC",
"A c #3C3E3C",
"S c #BCBEBC",
"D c #7C7E7C",
"F c #FCFEFC",
/* pixels */
"S30n=CCw44Ma;4ixr          ri8wg&aa;.,walMwttct,t48aC0n2i6x$>6nv",
"btjnX@@4C8<<8j=x           dgag88lwwt..DccMwttggw8CttlMXi66$rrx0",
"lyn04Ma48v00=6$          rnMC8;w4lD;lc.tf.ww,CjjiXC<afD4<X2$x>>v",
"0j2CDwDgvyinBx          xXl.;4clt.7V+V7Vt.4@@<=AC8X8a;8lM8vi> rn",
"jiO4tD4&<=2Orxr       rd@tw;@a,t..f7;C;,@CC;@<=yC@0=Xy;,wfcX6drx",
"<nnlDDMXi2ix          6v%wM4wM;t.t%,a8@@=v<l+MAyAA00AgM;gv88v=6>",
"@8aMg@g2iji          rjgMMw7Cgf+w4a8;c%a==ii<MgXAjXAMa@CvA;;;80O",
"%laa&<jiB2$          ivga,,gvMttD@g8fpl4w4@A0Ca&AyX8yC%M@g8.,82B",
"kc@8yj=nO6    rr >xrd0g4MDg4vgC8&XjjAX=jvAijO.7Vy,S3mmDg&v@8&g<A",
"7t&gvyX0i>    r  dBBy8Ml.v0n=i2d6dx>>rx6i2iBdvDar <ccwvg4lMCv@.l",
"t<vgX0nBx       >iOv@a4M80=jd$d$$r>>xx>>rxd22OnlyO=;f-D&<v;DgC..",
"@00A&0xxr      OtO<Ca;Mw=6$$dxrrrrrr>xxdOid>dBijd6>g&vj6BO@40gc.",
"n2=A0=6>r     r,fnC@Da,86x>d$BiOinnnBxr B2=$rr$OB$>=@0j6B$vC<M,t",
"nO=<jii>      X+AgCfD<=$>$O0Xv4M4@MM@yXn6xx$x   >dd6i$x66BiXnya+",
"AO2Ai>$>     >tn8gwtgi>>d=yCCg@Mgv8v8w,.aX2dxrxr >BBB$ >BB6@g4Ml",
"jBnjd>d      8DA4Mlv2 >nX&agXC@<Xg&gCa8y8@4CAdr$r 6iidr 6>OM;@8y",
"2Oj=xrr      c8v;.CB>$XC@avAl@ndxAM,.la<08&<<XO>$d>2Cvd r r@cMCX",
"B62nx>      OCAg4D0rr<C;l0v,wB>r >d$6X<@y2gg8&<j$>ddnn2x r gVpft",
"d622$r      =ng4@g> nvlMyAMgi$d$B6d$d$xO8gA0ijv@X6$=<$O6rr >t-.l",
"d6OO>      r0n4avOr$8@DagAxd0njB6>xx$x$BXiBBOj=<8A6xgC66>r x&p3,",
"$6id       ByvMa=r Aa.;Mwv$$6j$njA0A=226AC&dii6Xg40$>yy6Bdr>=gfM",
"$6i6       ygal@d r&DD<=XBrxBX&y<A0yA0AvXiAid2ji=v4j>>d0BO2 r>X8",
"$BOdr      la4@X> 6@DwXiBr>n&<2j00X00y&A0v0xx6iAiO<C2>r$2$B>rx2C",
"xdid      rlg@gnr <4,@8Bd$X<222==iBBnyg<A0jv$>2nAj=&8O> A6BXdd>g",
"dBi$      xy0@ai  vlt.n$B<gABi$OO6ddd6j8gy2jAxijnjjjyvd  x$BO<vi",
"$2jr      ByA8a6  gD.Md>A@A<AAA=0AX0iO$2<&An=26=Xjyvy<n$  6dB07l",
"d>ixrrr   jg<C<d r4t40>6CMAxOX<&Xgg&vABxO0vyjBO2nAA<vy02> xx6Oj.",
"irB6x>>   vDy@0x >;w.nr<&4$Oj0=B$OiAXvjid=C&&6OO2==X0ygjO  6$x>@",
"idOxdxdr >l+8ajr >MaMBx8Xdd=A2BXXj2dX&yn6nvav02di200<=AvO> $Ox>i",
"B2B> xO$ xt3w@n> r;;<dO@AxOX22X0n<vnx@vyOrjgCXO$xOjy<0iXa6 66>B6",
"xnBr $iOrd+3%82x  vly6n&a26X20n002OAOj8&Ox2X4&jxdBny0X0Ov=x B>$n",
"r6xr xOj>$V%t&n6  n@g$nggddyOj=n2=iA0x&v2xOXvgyxid2yjvy02ji>>Bxd",
"d>xr  6A0AXDMvj6  >g4AO@yy$@==i2==yBy>j<AOxXyC<6Bd2=Xng0jiOxO6$>",
"BxB$  dj<7y8@AX2  >y4g$@M06XjByAgn<djr2Xnd>&A8XBd$$=AnyAn=2r6&Xd",
"O$6d  xBA+%8Aj==r ri@l6Al4&O8A0Xvy>jXr=XnrxX0gXid6Bjvj2ynijr2;v$",
"0dBn>  BDXm@v==jx  @&;Xxgw;X2C;ajdi8Axg0Br$@XCynddi2gX2v=jA><&&x",
"COdOx  >nww7;jinOr 648ln>y;4yXO6jvD8B2@i2r2CAgX2B$BjCvyyyyjrvM8B",
"a&idix  $vj,4@jO2x  A488O n8gC@gg0Od$&gn6x@4Ag<O=x2j88CA<@X>XfwB",
";D<dXj  >ACyMvgnO6>  nj@C0x  rXjr r$nCXBxnw&<&ABO>=Agggjyvvdrl<B",
"al8id2r  d=ja4C<dOd   d<@C<idxrr>$6iX0Bd6CMXgX2B$60g@y&n0X&B>O66",
"&8a0xXj   iX&f;4A6Bx   >vX8av0niBnX0A$rrva&=&jOBddXCa0X2v&0id>$6",
"4gCC=B8x r $XC4<8ndBx    dM+tvXv88jj6$r2ga<v0O2ddiy@@A=O&@0$> x6",
",.&MC2iB rrr2=2ij&ABO6     j8.taayd>x>iyCgvyj0$x>i<g8gAB<gyx>>xO",
";t7@Mvi$0 r  diX=6<XOd6xrxBOX8A=ix$6d=X4g<8=i2O$r284<@X6A<jxr 6O",
"alf+MMAdnA>>O $ivX2iji6Brrrrx>   $r$=y8@8gA=nd6>20a8X<nO<tnd x=O",
"aCM7,la=6>i$O6 d=ng@y0XnB6B$OB=ddBjX0C<Xy0ABBx>j008X0ni2A&6$x6A6",
"<8&@wl4gi$ $=r$x6B=nXvv&8C8<y<&8gyjXvAnin6d6r n0n&vy02n<A@6>xiyi",
"B8yXvw.a<ix BA>>dOBdB=0&a4aMwlagAjvy20i26$$rr=yjgC&XjinX=i2xBni2",
"<8220<&vy&A6rd2O >6O>d=0A<<Xi2jy<yX=AXCn$$> <8AC@jXvAinAv$=njjO2",
"D<0O6iAXjA&vix $$$$>xxB=0yXnOi0BB002yXOrd> =y0@waXyCiiiAd$jOAOin",
"@<Odi2nn=j0XAjOxr>x> x6$$O2nn=nnnBxx> >$$r2=0v;;vv&@OOOB6dBXiii6",
"vjni0OO2j=nXX88<2xr>rrdiBiBBnO$r >>  $$dO0&=0MM<<yCj6dj$i66=B206",
"C4AOn&00XA0=0=AyyXi> r>$$>>$6>>rr  d>x>Ay<A=glvv8gy$i26x66$ddij0",
"ny&0jl4CAXvC<<<yXX&v<yj2BdOBx>>$>x$d$=jyv=XCagag0&B$0nx$d$xdOBOj",
"BAdO0ya4@;@8y@CgC4&yv4ag<n2BxOi$$B=0<aCXjXv;wa8&AjdBn$>$dnxBn66i",
"xj==$$dn&M8Xa;lltlw4Cg@a;l@@@Cy&Ma8vXg<Xy<C48v<&nj66>Bd6dirXAB=2",
"O=Ay=i>$O=gv&<@y<@CaawMM;ww,fcw@aagyXy=0<la@vv8<2O$x OA6BdxB6<AA",
"dx6Bj=>>Onj026Bi&C0jyvaC&CMlMM4&gggAyjnC@lC&@8<i6dx>rOjxd>$662nn",
"i2$xn2OBBdOOO6OinCw4MMC8@<v8yjjjAjn00y8M8yXv<AB6$Oix$iBxxOd=6n==",
"&gn$2yyB=n0OBBiinA&8Cy&v80X02nAy0Ay&;4M4yX<<y2$iO66>Bn6>ij2AAjnA",
"Biv<g@<Xjng4yvyvv0njXnnyA02i2X<yC@l@&gvX=X<0nndxBd6B2Bd>$20A0=X&",
">BB>djjAXXvX0yg8y66j@@8ll4g8a&C4;4C0yy=j&@yOAix>B2$BB$>ddOXXjCMD",
">r   rxO6$xdOO2AB$Onj<@a@yy8yAgCvX=yjXX<MyOBOB$B<jd>$$nAiXv2AM%c",
"B$>   >r    rxd=6di=2i=OdddB0Xy0v=AyXj=Xjddi$6n=2drr>d0jj0yA<4%w"
};
