/* XPM */
static char *_e2ed8045bd04b03e9dc4670db88c64bHZsqTER607qQVjW8[] = {
/* columns rows colors chars-per-pixel */
"64 64 64 1 ",
"  c #040204",
". c #848284",
"X c #444244",
"o c #C4C2C4",
"O c #242224",
"+ c #A4A2A4",
"@ c #646264",
"# c #E4E2E4",
"$ c #141214",
"% c #949294",
"& c #545254",
"* c #D4D2D4",
"= c #343234",
"- c #B4B2B4",
"; c #747274",
": c #F4F2F4",
"> c #0C0A0C",
", c #8C8A8C",
"< c #4C4A4C",
"1 c #CCCACC",
"2 c #2C2A2C",
"3 c #ACAAAC",
"4 c #6C6A6C",
"5 c #ECEAEC",
"6 c #1C1A1C",
"7 c #9C9A9C",
"8 c #5C5A5C",
"9 c #DCDADC",
"0 c #3C3A3C",
"q c #BCBABC",
"w c #7C7A7C",
"e c #FCFAFC",
"r c #040604",
"t c #848684",
"y c #444644",
"u c #C4C6C4",
"i c #242624",
"p c #A4A6A4",
"a c #646664",
"s c #E4E6E4",
"d c #141614",
"f c #949694",
"g c #545654",
"h c #D4D6D4",
"j c #343634",
"k c #B4B6B4",
"l c #747674",
"z c #F4F6F4",
"x c #0C0E0C",
"c c #8C8E8C",
"v c #4C4E4C",
"b c #CCCECC",
"n c #2C2E2C",
"m c #ACAEAC",
"M c #6C6E6C",
"N c #ECEEEC",
"B c #1C1E1C",
"V c #9C9E9C",
"C c #5C5E5C",
"Z c #DCDEDC",
"A c #3C3E3C",
"S c #BCBEBC",
"D c #7C7E7C",
"F c #FCFEFC",
/* pixels */
"V0=j@@4a8&v8gnO            $&Mgg8MDDt,DDDfl;tc@gMlCMcD;gjB66xrrx",
"vn=CMa4@&y=ydOx           6@Cg@w4;Dl4,t,ffw;%wA002gC&,fw8Aj6xxr>",
"02&wwD@vv=2nx>          >natl4wc;.t+77ffwtDM4&A=<&gja;MClCCyO>rr",
"2B@.DlgvXi2$>xr        >A.DlM@lcttD,%twf%4@g;vA2vMvnAv<.tD%Mjdxr",
"nOa.wlv=niBr          >nt.w@Ml;l,.f3VCv88<4@wlyv&vyj008;MgMMvAix",
"<&l@4ajin=>           Bv8;M,%8C+pD;MCC;MC==64V;AAjyA&laa@<j444v=",
"l4ag&A2OOi        r  xy&gl%.&v;..;@8apkp4ny80=l@XOOjAvMw;gCl,%v=",
".Ca<A=niOx    rr r$rxnvC4w;8avaMlMgy0yMXC,MXX0CDwg.c,c7t88X8CvA0",
"+&gvXA2jd     r  x2dA&ClDlvA===j2OBOO2ii2=2OB$lt,iw-m-lAX4a;@&aw",
"CvgyX0=B>       >6iA8a44M&jj06xd$6xx>>> r62ii6y.,drX.f+;a@Mww84t",
"0yy&XB$x       df0j8@MMDCnd$$dd>r  rr>>>>d>>OnOBC<22Mt.<2n2ggy&c",
"n==A06>>      r.32gC;wgf06$>$xxx$$6$$x$>xB2n$$6Ojdd><a8n>diD8<M%",
"OnXAnixr      0c&&g.VCAnx>$Bn00yv&<g&2BdrdO2$rrxOO$>282=iBxy<j8l",
"O2X06Bd      r,0gCa,@Ad>>6=yg8Clla8a448gXi$x$$   >$d6i$>>BO6&<@l",
"O2jirxx      vcjaat&A$r$=Xv4@yv@CgC8X8l,tM<2dxr>  rB6B$ $B6O;CMv",
"B=0drx      r.@y4.l2xr2vCa@vA@4y26&4;MagA&CM@jdr$r diBdrr6>O;tga",
"Bn=$>r      iC0g4w8> OgMl@A&t,j$x>n&l;Mav08<yvXB>$$r2gv$ r rt7DD",
"dOndx       n2gaa8d $yClM0gt@O  r$dBdBy<CAnCC8vAix$d$Aj2> > XV3c",
"6ind       >An4a&2rr<8ll&y2O2=O6OOxxxd$x2a8X0=y&CjxxiO6i6rr >.-c",
"BOB>       n<&;a0> BCD.;;lBdB0A2>>6$6dxdi0BB2i0=8g=6BM0dB>r x4p3",
"6iB        8&4lCd  y;ta=gydrxd60XAXX0n22d<8n6O6nyC82$640dBxr>62.",
"6OO r     rcv4CA> xgwcA0O$rx=vgXAXAXXj0X<0jgO6jOnya8d>x02dii r>A",
"O26>      >w0ag2r Xaca8i6>6A<02=Aj0AjA<<0yyO>$Bj0Bj@vx>rjndirr$B",
"$B$>      6XA@a6  vM,DydOB&&iiO22iBBB0v&A0=<=>di==ByCA>r n$BXxBr",
"Oj$      >=yv8@>  gD,.Ox68v<iA6=O6dddd2v@vA2<ixn=A0=v8n> =6diig8",
"6=$ rr   x&<88Xx >Mt4Axxg4<A=0A00yyX2O6BA@A===6i=jj0=X&Brrrd6dyV",
"rBi>>>r  6.@88n> 6;.l2r08l=xiAv&X&&gvy2d>=vyjnO2nXA<&yyid  B$Bin",
">6d$dd>  XV.agO  2MMl6x&v&$i0026d6OjXvXid2y&&=6Bnn00<<<02>  $dx>",
"BB$ rOB  =kVagOr iwMv$Bajrd00iOyy0nBjgy=O>yMv<O6ni=jXj<g=6  Bd$r",
"nO> xB2rrMq7w<B  x4lA$j8yBOXinXj2y&=xg&yn>AvC&2idOn0A<=0&O> BBxO",
"OBr rBj$xa-wlX2   yMj$y<MBOA2AiAAnB02OCv=xdj880Bx$iXXv=Og8d >B>d",
"$dr  6nA<nMwCyi>  n;v$jgAOi<6j=nnnn0Xx<gn$xX&@yB$6iAXj<=B&n>r$d>",
"xd$  $BvcCgC&A0$  dCln04gj6aBjO2jjy6<>=&2AxXAC&OdOO=<n80jnnOx$B$",
"xB6  >B0.m8yXn06  dvMj244Ax<=OyA&2&x0x2yn2>AyC&2dBiBXn<y022B$22n",
"$dir  B;Xp;8njjd  $8l@x<D4X=g00X<<>20r2Xj>>XX&yn6d>2jjXXj2Ad ODv",
"dB=$  xitapa<2nnr  .v;068.Mn=alaA6OvvryX2rryyv<n6Bd2<yi0XijO <8y",
"Od6x>  x<yc;4=On$  n8a@ddgl@y=Bx2<;4iO@jOrxayg<Ad6B2v<=n&2<2r88v",
"&260O  >A4y;&&=OB>  Cv@&x ACgaag8yy6xXCi2>=@0gA0B6$=<g&ng=<Or;fC",
"D&6nA   6O=8@gy$O$   2XMv=r  6vj$  >2@y2xdM4A8ynnd60y@@A&A4iryc&",
"lC2x=$  r=y8%4MndO>   n4g806xr r xdOy<ndxyw<<vABi>2Av88yy=@nxryi",
"gaA$A&r  >iADD&8O66    BAvagA=2BBOAAA6x$n4408AiB$xjyayg0nA8i666d",
"&@CA$v6 >r>ABAj<vB66r   r<f740=X&<j0B$rB@@<jv=BBddXvljy=Av&OO> x",
",gMa=OB> rrdn22O082iO>    d@ClDCwn2dx>$XCCy&jiO6dOXg;00Ovya6xr>$",
"D,CMg2xXdrr rdXgn2XO$B$rx6O0w4ynO6$$dOX@g&gA2Axx>2<gMy<By0aOr>rd",
"l774;X6OA6>= >inj<2jnB6>rr>x$>$> >$6jyC8CgynnBOxr2gay@&60y<O> xn",
"Cwp%l406>Bx>6r>==y@v0yjOd6d6OB6x6$ij0gCCgyXO2dd$6AaayvAO0D8Bxr6A",
"8g;.l482x B0>d$idnn0vv&8@8y=jA0AAA0Ag&j00yB2xx>A00Cy00B2j@ix>xOX",
"a8vg..av2$rdX>rxOO$B=j&aaaMwD;M80jX&=ni2idBx >jjn&<yA=Bj&@iB>6==",
"022y&Cg<gA6rrnB >dB>6=XAy<<0jn20ygXiAn=O>B>rrX0j88gyj22=y=B2B2nO",
"802inXXjAg<ix $$$6rx$inX&y=i2<yA2==A<@0>dxrx@<XCCjX<Xi20yjdX2X2O",
"v=ddOnn=00AAjOxrxrrrx6$$2nnOO$BnAj6A=$r$x $<y0MlCAyCi2BXdx6On=i2",
"Ai602i2=n=<yC8Xir>>rrBiiiBi0jni$rxr rx$dr6j0=@lMv<&aBidO$id2yini",
"8ji=22njAnn0jAy<A6r >x$x>rx>x> r>  r$x$B=&Xngl@<y&C06d2nxiB6BdnA",
"8&nBavy<AyyyXX<X<&<XjO$x>iO6rr  r dx>>jyy<nX@wy&gg<dBjx$$6d>6Bi=",
"AAAXaDM&y<M<g&<g8X<g48X2i$r>Bi6>x6Bdj0X&0A<MgCa&A&Oxn0$x$$6x6B6B",
"XOxi2XgCD;gy4;MwMM@gCM;D;8<22B6in0Av@a<jXA@D;@8vAj66i2>x$B2>0=BO",
"j0yd6$6=&@ya4w;MDwMaagC@aaw,D@@w;CvAvvXyyg@4g<&vnj66>$iiddd>Xn=j",
"BjX0n>xBO<vy2=2jyAyg;lM4lwD,tw@C@&yXXj0ACDC8&vC<2O$$rrj=6B$x$d<j",
"Ox$n0$>dnnA=O6O<4a0yy<&Cv@;@8@vg&gAXA2<44MC&C8<i6d6$r$2O>xrdO6=n",
"i6xi2nBi6d66BBiij@ltwaa8<<&0nn=0=n=Xy&MavAXv<AOd$62BriOBrOOBj6=n",
"gXBi<v22=XjniOijj<&v=0X&==nOnXyXX<&M44;CAX<yy=662B6dd2Odr=2=X0j=",
"nA<<4gy0=<4&v<C<vii0vny&<A=2Av<&@;M8<gvj=XvAi=B$$B$BOO6dxd2XAjjy",
"$Brx6njXAy000<g&=dB<@aall@g;@&aM;avj<0=0ga<20=d>x2BxBdxd66i<004l",
"r    >O$$xx6di=n$d2n0<@avAyvjjCv<0=vjyX<avnBBO$$XyB>x$$Xni<ynXlf"
};
