/* XPM */
static char *a2339e5b8b474e86f24859c554d0c844xGFTLkOkSu0yT1RY[] = {
/* columns rows colors chars-per-pixel */
"64 64 64 1 ",
"  c #040204",
". c #848284",
"X c #444244",
"o c #C4C2C4",
"O c #242224",
"+ c #A4A2A4",
"@ c #646264",
"# c #E4E2E4",
"$ c #141214",
"% c #949294",
"& c #545254",
"* c #D4D2D4",
"= c #343234",
"- c #B4B2B4",
"; c #747274",
": c #F4F2F4",
"> c #0C0A0C",
", c #8C8A8C",
"< c #4C4A4C",
"1 c #CCCACC",
"2 c #2C2A2C",
"3 c #ACAAAC",
"4 c #6C6A6C",
"5 c #ECEAEC",
"6 c #1C1A1C",
"7 c #9C9A9C",
"8 c #5C5A5C",
"9 c #DCDADC",
"0 c #3C3A3C",
"q c #BCBABC",
"w c #7C7A7C",
"e c #FCFAFC",
"r c #040604",
"t c #848684",
"y c #444644",
"u c #C4C6C4",
"i c #242624",
"p c #A4A6A4",
"a c #646664",
"s c #E4E6E4",
"d c #141614",
"f c #949694",
"g c #545654",
"h c #D4D6D4",
"j c #343634",
"k c #B4B6B4",
"l c #747674",
"z c #F4F6F4",
"x c #0C0E0C",
"c c #8C8E8C",
"v c #4C4E4C",
"b c #CCCECC",
"n c #2C2E2C",
"m c #ACAEAC",
"M c #6C6E6C",
"N c #ECEEEC",
"B c #1C1E1C",
"V c #9C9E9C",
"C c #5C5E5C",
"Z c #DCDEDC",
"A c #3C3E3C",
"S c #BCBEBC",
"D c #7C7E7C",
"F c #FCFEFC",
/* pixels */
"==v4a@4gv0yjB6            dCC&8;MMwD4D,tf7D;.c80XjA@a8V,M<=ndx> ",
"2ylwl;&vXij$$           rOg.DM4f;lwfV%,fDwwllCX=j<&vy@DM@4&8jdr ",
"B8.wD@v<niO>$r         r2;tl;4a,tc..,77,k.lCa@<iX@4jAyggt,D,8=d>",
"Bg.wl8A=i2x           >BM%wlgMlwwctV-%v8@C&MM@gX&C<X0AjCt4@,;j=O",
"AllMl<2ij6            >ygMMM7.8ap7wl;M844g2Ay+f8A=0<AgMM@8X=CMCy",
"M48g<=OOj>        rrrr=&g@D7wv<;,D44CCDf7C==i2v4vyi==g@@M4v4.tty",
"C4vyj=iBO     >  r$x>BAga4,@C@&wDtwC&8%pwCaa4A04&Xv&Da;pwC&0&;40",
"&CvAjnj6r     r  rn$=<84wta&<0=0AA0=n=Ayn<;C=X=DmV&SSko@y<a&;g&@",
"vgv<y=j$        rBOngCa4M4<j00i$dx6d$>x>6OniBdx8@0rxM,.;a@ll@ag4",
"<<&AnBxr       >c4OCCa;4.&2dd$dddxxr>>xx>r$Oi2OXD7jd&D-p<yjy.Cgg",
"0=X<6xx       rMq=yC4.M4c=d$x$x>rrrr  r>x>6>rd2OBXXi64vAO>BA,yXa",
"=0A=2x>       =.@<ga+Dv0i>>$dOnnniO2BB$$>>6206xdO=$BxXM&nOd$&&v;",
"iXyii6r      rtXXM8.lgn>>>d2X<&8;MM@a@yjix$OOx>>>BO$xigOiBi6nX2v",
"i0jxr$       <V=C@.My2 rd=X<a4&v@MgXCa@C@vndxx$r  r$ddix>rO6n48;",
"2jOr$x      r;MX@DD<d>>j&g4@vAvM8<vav08lt,l<Odxr>r r66B$r6B6Xw;8",
"n06r>       O@j8M;M6 rygMl8vvMtAidx&Dtl480&C;@=$rx  dO6d  xr6D,C",
"i=dxr      rnOg@4gnr>j<;;ajg,DXxx  >nCa4avj8yygAdx$>rivv$ r >tpV",
"OnBr       $Xn4@Cnr 28@.a00vA2$$x$6dOdO<vC=j@avyj6>ddx<A2rr> App",
"B2d       r0vgl4yx rgMt;DDy$d=0=OOB>>>d$xjMC0Xyg&<O>$B$Oi6r  dlm",
"OBr       >4vMwC6r na.l&<4X$$dji>ddO2OdxdOi6=nin0a&idOC66B>rrdMt",
"ii        >Vja8A> r<;%CXOO$rx6j<vyyAAj2nOigy6B6=jy8yOx<M2dd>rr 2",
"BO>       dlA4g2r j@,l<yOxrdAg&nj<0AXXjAX<2886i2dXg40$>A<6B2B r$",
"n6x      r2Ayaad  <4c4M2Oxj<X2n=jj=A00Avyjv=66$2jij&42x>dXO62 r$",
"Bdx      dy0888r  v.c,j>628&2B66OiB662yg<0jyj>xB2A6i&Cd>>xi$6X>n",
"A$ r r   iajagA> $Mt;vd>nMy&n<i0266dddB0@g&2&j>d2n0iXCvx> X662iM",
"2Brrrr   A%v4<2r 2;tM=>68MgiO0A0A<<yjOO6jg&j2yi$jn0Aj<g0> rxxBd0",
"dirdd$  >;p4My6  XMwl6>v&l6xn0&vA<&g&<j6xi<<02j6ijjjAjyvOrr BdBn",
"6d $6Or $,-tCy6  &w@gxdCy2$200OdB6d=Xy<26BjgXAi6n2yXygyXOB  xxd>",
"O$ >dn$ri3p78jd  0;42xAa2>6A0Oi<yXjOB8yA2xjCggBB6=j=0vyv0jx  Bx$",
"i>  6=Bxdpct&nO  dC4n$<v&iiXi=X=iX&0dy@y2dj<av0idnij0Xj&gid  6Bx",
"Br  dOAAjv.MvjB   &M=$gyadn02AiAA=6AndC&X$$=@8AOd6O=0<An0gOrrB6>",
"d>  x6glD<8@0Xi   AaCx<vyB=ydj=nn2=nydX8Ad>0Xav2$x62<AvnO4y$ r6x",
"dd  rB0&og8yn02  >jaa$<MCO2a$jii=jX$&x2g2nxjA@v0x662y0AXn6v2>r$O",
"6B   B8CfcC=jn2r  O8Di0MCAx&=2XAgig$A$i<j0>nX8gXxid2yAXgjn=266BB",
"$nx  >B,v-C@220x  Mg;X>8.;iAv0jyy<$Bj>iA0B>=g<806Bd2nyOg0AB2d>=;",
"B2d>  x<gtDMjin6  Oa@lOO@.MBA4laXB6y&rjA0> jXyv066>6nA2vAniXx X4",
"dddx  >0;Xw&&jOO>  g@@<ri@MgyiixBA8;=6CAOrr<<y&0BB$BA<jny=O0$>88",
"2BAX   6ing@v<dOx   &<aAr>v8Ca@888@2>jai2rd4<gvXBBdi0&02&j=<dd;.",
"g6O=r  >jy8taMi6O>  rn8avB  >j<n2 r>O@<nBxXa0&AX6Bxn=@vjy<XXx w7",
"@n>jO   $jAct8gO6d   >g@gvi$r    r$B<g0B>iw@XCXjnBdjjaggAvCgB j4",
"aXdj@r > xXj&XgAdBd    OyC@X02O6d6n0y26d68wAvvABi>iAX@ggj<XCOxd6",
"48AdAi rrr2=OO=vA6Bd    OD3D<nn0<y=<Oxr$&48jCAiO$rn0a<&v2A0giB$r",
"g;ajBdi r  $iy=6&XOB$ rr r8C8aaMa=0Od>ry@@AX<nOBdBAyDj<Anv8Add>r",
"M&;gn>yjr$d digABnnd6Br>6O=4,;<<=$>>x$0&agX&nnB6dBXvwjXi0v@y$rxr",
"V%@MyB6n2 nd O02@v=0idxr >x6=26> $66OA8@gv&0i0>>x=<&wAvOn<<&$rr>",
",3cwa06>xOx>$x6==&&XXA2d6dxd   $x>$=yv4g<Cji=dOxrn&@<C@iOyajB>r6",
"@.%w;8nx dA$$$26Onnygg8@gAi2=n6O2AX0gg8g8AjiOB$xdXa4Xvy2i<w=d>xB",
"ggaDl8v2$rrX6 xBix6==&aaaMllM4av0=yvv2=0=0Bi>xxyjA@yjX6nnX46>>dj",
"yAy@l4&gX6rr2Or>$d>6=XAyv&&8<<j=Xvynnn2nd66>rdXn=v<y00$jg=&iB$i2",
"0O0AvXjA8vix rx$6rxd2n<&Xn6i<<<<vjnXnAi>6$rr$Aj08ggyj2i=yAOBj2A=",
"Ai6BnX00jAAjOxrxrrr$d$$n0=iO6$B=A=0v@Ard$> A8<y8C0yyyii=AAdOj2XO",
"2$Oi=2n==v<@8ABr>>r>2iO262A0nnn26xn6rrxd  0y<y;l&Ay8niB=j$dd=AOn",
"=OA2BijjnnjjXy<j$ r>x$>>>dd$r  >>r >x$drxn=A0Mw@v<vMO2di$6i6206j",
"X2By0=0AAAXA0yXvvA=O$>>xii6x>r>  $x$x$6=yv==al8<XgCX6Bd0d$BBxddn",
"CXi@4gv0Aa&&&X<yA&C8v0iOxrr>>xrx >>rx=<<<An&lMX8&gvdd0nx$$dx>6OB",
"2iX<ll4vgCvg4@aM@&<;M4aXjixiidr>OiOAXX<yjXC4gCavA&2xBXi>x$BBxO6B",
"=xxBijvlwC<MlDt..MCgg8aMaa8&0j<<yX&@4vjAXvMDMCC<A0BdOBBx$$Bix&n6",
"0&On$$Bjg&&a48Xg&C4tl;wDw,%cw4lw@&jy&yXy<Caag<&&=jOd$r>0266x6niy",
"i00n>>6BAyAiOOjgv=yva@g@M;w;l@88&vXy0=0v;M@&&<@<nOd$x $AB6B>d$6X",
">>O06>xiOjj2dB=vlaaa8ga&v@C<vX<v&0AA==aal@8&Cgv26$OB>>62dr>x6i6=",
"i$O2j2inBB$B6OOij4l;8@8gX&02njA==2Xyv@;CvAXv<Aid6$Bixx=Bdr=Oi06=",
"vjO<gj=2jvA2O2=0Av<j2jyjiii2X<X<v&8l4algAA<X<0B$ii66dO2d$>ji=yjn",
"2yX48yXjyC@ygg8&0Bi&y=C8gXjjXgv84wa&v&<==X8Ain2d>Bddd2d6d>dn<0j0",
"6>>xB=00A00jAvgX6d=v@4awlCCw8&Mw4Cyj<0jjgag=2AB>>6n$d6dx2dO=<jX;"
};
