/* XPM */
static char *ad43b707f6904a81e4623b41d47e6d760o4saJyMNCq2PE69[] = {
/* columns rows colors chars-per-pixel */
"64 64 64 1 ",
"  c #040204",
". c #848284",
"X c #444244",
"o c #C4C2C4",
"O c #242224",
"+ c #A4A2A4",
"@ c #646264",
"# c #E4E2E4",
"$ c #141214",
"% c #949294",
"& c #545254",
"* c #D4D2D4",
"= c #343234",
"- c #B4B2B4",
"; c #747274",
": c #F4F2F4",
"> c #0C0A0C",
", c #8C8A8C",
"< c #4C4A4C",
"1 c #CCCACC",
"2 c #2C2A2C",
"3 c #ACAAAC",
"4 c #6C6A6C",
"5 c #ECEAEC",
"6 c #1C1A1C",
"7 c #9C9A9C",
"8 c #5C5A5C",
"9 c #DCDADC",
"0 c #3C3A3C",
"q c #BCBABC",
"w c #7C7A7C",
"e c #FCFAFC",
"r c #040604",
"t c #848684",
"y c #444644",
"u c #C4C6C4",
"i c #242624",
"p c #A4A6A4",
"a c #646664",
"s c #E4E6E4",
"d c #141614",
"f c #949694",
"g c #545654",
"h c #D4D6D4",
"j c #343634",
"k c #B4B6B4",
"l c #747674",
"z c #F4F6F4",
"x c #0C0E0C",
"c c #8C8E8C",
"v c #4C4E4C",
"b c #CCCECC",
"n c #2C2E2C",
"m c #ACAEAC",
"M c #6C6E6C",
"N c #ECEEEC",
"B c #1C1E1C",
"V c #9C9E9C",
"C c #5C5E5C",
"Z c #DCDEDC",
"A c #3C3E3C",
"S c #BCBEBC",
"D c #7C7E7C",
"F c #FCFEFC",
/* pixels */
"XMD;l8&<n=ixx           rOgtD;a%w;;,7%,c,llDw4<0n0y80&aDMa@ggnxr",
"&Dw.4&&0O2$x>r         ri4,ll;aD,,%.,fpfpV,MgM&A=8;82&<8@ttwDv2$",
"vDDw@yjn2Brrrr        >6g7wDCg4w...cp3l&aMCC@;@0vg@<AjA0Mc4;fMn2",
"M.MDCjOni>            r0g@l4;V;C;V,w.DwyCay<&;m;00iyAy&4;@gX=8Mg",
"MC&gAOiji          rrrBv&g;.V;v<wVt4M@gllw<j2i8MvAA==AMCa@@v;tlD",
"Mgv0=iB2>     >   $d>$=v84;cg@8gttt.@g43Sp@n&@j<DgnXv4g4VMavA8.w",
"avX=n=Bd     rr   jdO<gCll,C&&y0<Xg&<0jXMXC%wyX0@tl.o3qklg<@<;gv",
"gg<y0ABr        rOB6<Ca4M;@y=0AnBi$6BBBin2nj=O=BtpMiwVf;&CCDlC@g",
"&&00OBx        >.%B&C@Mla.vn6B$$dd$d>>>>> xi2i6dyD8 BM,S%&&y@cC@",
"j<&i$xr       rau<08@l.Ctl26$x$$>rr  r>>xx>>$O222<cv2y;lAi6OXMyy",
"j00nx>r       nD8A88,+ayjB>>xd6d666$dx>>>xxB>r>iiBA2$$&a&d6$jwv&",
"A<22B>       rc<j;&l.CyB>>>diAA<y&&vXjjB$rr$2XOx$Bnd6xv&0j2d6vjj",
"AX6$B>       Xm2&4D.<0dr>6nAy848C;lM@M;C&=B>O6x>>>6id$6g$xx262C<",
"=nxxdr      ra;y8;.MB> d0g&@a8yy&@C8&Cg884806xx$r  r$ddi>x6dB<M4",
"AOr>>       B@=8Maw=r 6gC4wCvvvl@yj2gvAC4.,.vO$$>>r r66B$ 66$jDD",
"jBr>       r=6&@4&A> dygwl8jXt%4Bd$xywft;@0g@;C2$r>  $O6d  rr2f%",
"nOxr       6y=4@anx >&8;w80yM@0x r  rdX&4agjg<&CA$>$rriy&$   r4+",
"=Or       >yvgD4v$  A@Dt;lMOxOn=BdBB6OdBvvC=A@aX<jdr6$>&yn>r> i3",
"Od        xwyMw8Or $8DDM&@;O$6=Aj6d6r>>6$xA;@j&g8<06>d66ii6r  dw",
"ir        $p=agA>  04.,0jnO$rxdd6nn2=0Odxd66OXABj<a<6xBXxBB>rx$X",
"2rr      rO4X4Cnr d@D,gvOBrr$=<g&yyyj=j226=gn6BO0nvCABxagOdd>rr ",
"Bx       x0j<aa$  X@,alv6dxnXvy2=AAXAyX0AX0j4<didnACgn$>avdB2O >",
"6$       Bg=@ggr  yD%.@dOdv&Xi22n0njA0AA<AXyBAB60Bnv4gd>>jj662r>",
"d>r r   rAMj4v0r x4tl8i>xg&<AOBx6iOdBBj&g<n<<B>dBAn2XMyx>r==$6yx",
"B rrr   $M%AMXO  n;.M0>xylvv2<jA=iO66ddn&@<X=gd>BiAOOv@2>> jdBiO",
"2 $xdr  ifVa40d  v4DwBrX8;<660AXXv&vAiBdn<8yi0X>d==A208gd> 2dxBd",
"O BxB$  2-3wCnx  CwCgx$g&C$$j0v<j0&&gvAB$Bv<A2ABdj2j00y&X> rr6d6",
"B r>nOrrwk%t&i>  vD8ixAanrd=0j6diB$nXXvn6xnvyA2=6=0jjX0yvO>  d>d",
"$r dO=>$amlwyn$  n;&2$v82$BXjOnvyy0Odgy<nd2ygvABOn2<<ygyXBO  r6$",
">  $BAjX=Mw8<2$  O@@B68g82=AOjXnOX&A6n4X=Bx<M<v6Oinj=AvX&Aj>  i6",
">  r6&&fX8CvA0$  >g42dgyXx=jnAOAA=60=$8&<OrAg8&iiBnn0A0A&gB6 >B6",
"x   B=iq.CAAn06  x&MCdCv8dXX6==nn2jO<dXg<Bxi0Cg=Oxdi0j&j2X8Or rB",
"B   62Mw3CX==j>  $X;<x@M<BX8djiinjAd&di8AixiXaCA6x$i0yyX2O;j6 rd",
"Or  rBcAm4Mi=jB  $Ma;dAlCXB&jjAA&i8$XdB&jy>2Xv8<dd6O0yjyA2O<n$dd",
"n6r  xXa;fMAi22>  wv;jBaDMdy<0=vX<6d0x6Ajjr6y<Cgd6BO=vngyA2ji$60",
"id$  rnM0D8&0B2x  Ag4a>24.@6vMl@yidX&>20Xd>i8ACX66O2Bynyvjj22x X",
"dOO   BA=vav&6Odr  Myaj 24avA226x=yM=$&Xn>r=X0gXBddx20jXyAniXr$8",
"Bjvr  >ny&.aM2di>  x08ai dg8@a88&M4<dnajir>8vXC0Bd6d=<X2=<220xBM",
"B6n>   BAXc,CgO66   $y@Cy>  $&v20>>$68&i2>O@<&vXO6di2&X2ng20X>$,",
"=xjXr   xyga&C0dBx   iMyCX6>      $$vCXi$x@40gAX6B$2nC<y28=&j> g",
"Xdi4B >r>n=n2Ag26Br   r084&jnO6ddBB0vjOd$X.&yCX0i2$==@&@jg0Mydrd",
"gAdi2r >r>injB2C2Oir   >C+%Cji2i0yjvO$$x0M;jgyABixiA0C88Xv=8<Od6",
";@0B6A rr r6A822yid6xrrr 04gv8gMy0jOd>r0aa<0C0OO$r2j@&&&j=X&0i6>",
"v;8=>0y>$= xin00ijO6O>rdOi8,.4&aiB$$>>ng@gnvX2BB$BAXDAyy2yv@2$>>",
".C4yO$dnr66r>XiC4jAjdxx >xdXj=2$xd$d$j<CC<gXi=66d6X<D0X2Og0;jxr>",
"3twa0Bx 22rdd6ij=&yyXj6B6r>    >>$dnyvM&&@0j==>xxjy&.Av=6vj<Adr ",
"cVwlCnx >jO>xOixniXgC8a8AOni=$6d6=jX<488&X0inB6>r=&Cvga06A4;2B>x",
"CwDa&v2d> Ai xd2x$j=<a44MMa@Cg<XA0AC8<v8XyOndi>>dya;Xvv=B0Cy6>>d",
"yv4cD8gAB> OO$x$dxd=X0Xv8@;@Cg0=0vvA22niX$26$x><jXa<0yBnnAa&2$xO",
"iX<8&0A8vixr r$6r>6n=vgXn6i=jX<g&ji022nB$B$rrOXijv<y0Xdj=gji2OO=",
"ii20<AAjA0=Ox>xrr>ddd$jAniiA0=i2n0X=v=xddrr 2X208ggy0ninnyvd2X2X",
"6dBn2njjv<a806r>>rxniOiB2j=BOnAAO0v80rd$> >8&A<CC0<y<2in<26$OOn=",
"dj222=nnjjj<<v=x rxxx>d6iniiBxr>>$r >>6r 6<vAg;;<0yC0Oi6=6BB$AXB",
"i=nO2nAj20jjXXvyni$xxxx$dxx>r>>>  >d$6r>ij0=vlD8&y<l=i6djxOBBOOd",
"ndgvXXXXyy<&<AAy88&yjBBOOd      $$xxx6=Ag0n<M;8<Ag@yBBi$2xd66x66",
"y=vDMCAy@M&Cg@;8y&la&Xi6>xi26>x>x$r6i&v<y2A@.CXC&&86$2<6xxdd$xBB",
"d0j844@;av&MMw;w;@8aMDw@vni6$$6n=jXvX<v=XyaC8C4<0vA$di0x>$$26x2O",
"2>ddB08lCXa;.MDw44;@@a44w.w&g4MvvvC;g00<0@wl4CCvX02dB6$6dddB66gi",
"gnjdx6OAg&C<gjjXA<4l;MllDcct4a;@g00vyyyXg@MCg<&80n=dd> BAOBdxBBB",
"i006rxO=AAiBOO&aX0Ayg&&C;;@;@&&8&y<A2jA8DC@<gv@<jBBx$rriA$66>dd6",
">6jOx$6B2=nB6ijCw;Dla@gyv8AAjA<<A=A0nyM@l88&Cg&2Bddi6r$Bixrx$B26",
"d620jB=iid6BBOi2<aMgg<@AyA22=XAnn0yg8M;C<jXvX<nd666BB>6=6$x0OnAO",
"<iy8X=n2v&An2jAyy<02n0jnBOO0<A<vg8a;@a;g0AvX<0n6diO66B2i$>>j2=y0",
"jA@@X<X08@y&&@g<OB=@XAMCCy0Avg<CMDavvgynn0Cyj==6x$i$d6iddx>6j<0j"
};
